<?xml version="1.0" encoding="utf-8"?>
<!-- Generator: Adobe Illustrator 22.0.1, SVG Export Plug-In . SVG Version: 6.00 Build 0)  -->
<svg version="1.1" xmlns="http://www.w3.org/2000/svg" xmlns:xlink="http://www.w3.org/1999/xlink" x="0px" y="0px"
	 viewBox="0 0 400 400" style="enable-background:new 0 0 400 400;" xml:space="preserve">
<style type="text/css">
	.st0{clip-path:url(#SVGID_2_);}
	.st1{fill:url(#SVGID_3_);}
	.st2{opacity:0.1;fill:#FFFFFF;}
	.st3{fill:#FFFFFF;}
	.st4{fill:url(#SVGID_4_);}
	.st5{opacity:0.2;fill:#FFFFFF;}
	.st6{opacity:0.3;fill:#FFFFFF;}
	.st7{opacity:0.2;fill:#242A4C;}
	.st8{opacity:0.4;fill:#FFFFFF;}
	.st9{fill:#34234B;}
	.st10{fill:url(#SVGID_5_);}
	.st11{fill:none;}
	.st12{fill:#2A1C3E;}
	.st13{fill:url(#SVGID_6_);}
	.st14{fill:url(#SVGID_7_);}
	.st15{fill:url(#SVGID_8_);}
	.st16{fill:url(#SVGID_9_);}
	.st17{fill:url(#SVGID_10_);}
	.st18{fill:#EB1B7F;}
	.st19{opacity:0.6;fill:#FFFFFF;}
	.st20{clip-path:url(#SVGID_12_);fill:url(#SVGID_13_);}
	.st21{opacity:0.1;clip-path:url(#SVGID_12_);fill:#FFFFFF;}
	.st22{clip-path:url(#SVGID_12_);fill:#FFFFFF;}
	.st23{clip-path:url(#SVGID_12_);fill:url(#SVGID_14_);}
	.st24{opacity:0.2;clip-path:url(#SVGID_12_);fill:#FFFFFF;}
	.st25{opacity:0.3;clip-path:url(#SVGID_12_);fill:#FFFFFF;}
	.st26{opacity:0.2;clip-path:url(#SVGID_12_);fill:#242A4C;}
	.st27{opacity:0.4;clip-path:url(#SVGID_12_);fill:#FFFFFF;}
	.st28{clip-path:url(#SVGID_12_);}
	.st29{fill:url(#SVGID_15_);}
	.st30{fill:url(#SVGID_16_);}
	.st31{fill:url(#SVGID_17_);}
	.st32{fill:url(#SVGID_18_);}
	.st33{fill:url(#SVGID_19_);}
	.st34{fill:url(#SVGID_20_);}
	.st35{fill:url(#SVGID_21_);}
	.st36{fill:url(#SVGID_22_);}
	.st37{fill:url(#SVGID_23_);}
	.st38{fill:url(#SVGID_24_);}
	.st39{fill:url(#SVGID_25_);}
	.st40{fill:url(#SVGID_26_);}
	.st41{fill:url(#SVGID_27_);}
	.st42{fill:url(#SVGID_28_);}
	.st43{fill:url(#SVGID_29_);}
	.st44{fill:url(#SVGID_30_);}
	.st45{fill:url(#SVGID_31_);}
	.st46{fill:url(#SVGID_32_);}
	.st47{fill:url(#SVGID_33_);}
	.st48{fill:url(#SVGID_34_);}
	.st49{fill:url(#SVGID_35_);}
	.st50{fill:url(#SVGID_36_);}
	.st51{fill:url(#SVGID_37_);}
	.st52{fill:url(#SVGID_38_);}
	.st53{fill:url(#SVGID_39_);}
	.st54{fill:url(#SVGID_40_);}
	.st55{fill:url(#SVGID_41_);}
	.st56{fill:url(#SVGID_42_);}
	.st57{fill:url(#SVGID_43_);}
	.st58{fill:url(#SVGID_44_);}
	.st59{fill:url(#SVGID_45_);}
	.st60{fill:url(#SVGID_46_);}
	.st61{fill:url(#SVGID_47_);}
	.st62{fill:url(#SVGID_48_);}
	.st63{fill:url(#SVGID_49_);}
	.st64{fill:url(#SVGID_50_);}
	.st65{fill:url(#SVGID_51_);}
	.st66{fill:url(#SVGID_52_);}
	.st67{fill:url(#SVGID_53_);}
	.st68{fill:url(#SVGID_54_);}
	.st69{fill:url(#SVGID_55_);}
	.st70{fill:url(#SVGID_56_);}
	.st71{fill:url(#SVGID_57_);}
	.st72{fill:url(#SVGID_58_);}
</style>
<g id="Layer_1">
	<path class="st3" d="M138,400c-25.1,0-45.7-20.6-45.7-45.7c0-25.1,20.6-45.1,45.7-45.1s45.1,20,45.1,45.1
		C183.1,379.4,163.1,400,138,400z M170.6,267.4h-37.7c0-80.6,104-110.3,104-197.1c0-28-14.9-39.4-31.4-39.4
		c-21.7,0-45.7,18.9-45.7,47.4c0,13.1,5.7,33.1,21.7,37.7c-9.7,16-25.7,24-41.7,24c-22.3,0-43.4-16-43.4-48c0-38.9,33.7-92,120-92
		c78.3,0,91.4,30.9,91.4,69.1C307.7,179.4,198.6,182.3,170.6,267.4z"/>
</g>
<g id="ceu">
</g>
<g id="mar">
</g>
<g id="terra">
</g>
<g id="Layer_5">
</g>
<g id="Layer_6">
</g>
</svg>
