<?xml version="1.0" encoding="utf-8"?>
<!-- Generator: Adobe Illustrator 22.0.1, SVG Export Plug-In . SVG Version: 6.00 Build 0)  -->
<svg version="1.1" xmlns="http://www.w3.org/2000/svg" xmlns:xlink="http://www.w3.org/1999/xlink" x="0px" y="0px"
	 viewBox="0 0 400 400" style="enable-background:new 0 0 400 400;" xml:space="preserve">
<style type="text/css">
	.st0{clip-path:url(#SVGID_2_);}
	.st1{fill:url(#SVGID_3_);}
	.st2{opacity:0.1;fill:#FFFFFF;}
	.st3{fill:#FFFFFF;}
	.st4{fill:url(#SVGID_4_);}
	.st5{opacity:0.2;fill:#FFFFFF;}
	.st6{opacity:0.3;fill:#FFFFFF;}
	.st7{opacity:0.2;fill:#242A4C;}
	.st8{opacity:0.4;fill:#FFFFFF;}
	.st9{fill:#34234B;}
	.st10{fill:url(#SVGID_5_);}
	.st11{fill:none;}
	.st12{fill:#2A1C3E;}
	.st13{fill:url(#SVGID_6_);}
	.st14{fill:url(#SVGID_7_);}
	.st15{fill:url(#SVGID_8_);}
	.st16{fill:url(#SVGID_9_);}
	.st17{fill:url(#SVGID_10_);}
	.st18{fill:#EB1B7F;}
	.st19{fill:url(#SVGID_11_);}
	.st20{fill:#20749D;}
	.st21{opacity:0.6;fill:#FFFFFF;}
	.st22{clip-path:url(#SVGID_13_);fill:url(#SVGID_14_);}
	.st23{opacity:0.1;clip-path:url(#SVGID_13_);fill:#FFFFFF;}
	.st24{clip-path:url(#SVGID_13_);fill:#FFFFFF;}
	.st25{clip-path:url(#SVGID_13_);fill:url(#SVGID_15_);}
	.st26{opacity:0.2;clip-path:url(#SVGID_13_);fill:#FFFFFF;}
	.st27{opacity:0.3;clip-path:url(#SVGID_13_);fill:#FFFFFF;}
	.st28{opacity:0.2;clip-path:url(#SVGID_13_);fill:#242A4C;}
	.st29{opacity:0.4;clip-path:url(#SVGID_13_);fill:#FFFFFF;}
	.st30{clip-path:url(#SVGID_13_);}
	.st31{fill:url(#SVGID_16_);}
	.st32{fill:url(#SVGID_17_);}
	.st33{fill:url(#SVGID_18_);}
	.st34{fill:url(#SVGID_19_);}
	.st35{fill:url(#SVGID_20_);}
	.st36{fill:url(#SVGID_21_);}
	.st37{fill:url(#SVGID_22_);}
	.st38{fill:url(#SVGID_23_);}
	.st39{fill:url(#SVGID_24_);}
	.st40{fill:url(#SVGID_25_);}
	.st41{fill:url(#SVGID_26_);}
	.st42{fill:url(#SVGID_27_);}
	.st43{fill:url(#SVGID_28_);}
	.st44{fill:url(#SVGID_29_);}
	.st45{fill:url(#SVGID_30_);}
	.st46{fill:url(#SVGID_31_);}
	.st47{fill:url(#SVGID_32_);}
	.st48{fill:url(#SVGID_33_);}
	.st49{fill:url(#SVGID_34_);}
	.st50{fill:url(#SVGID_35_);}
	.st51{fill:url(#SVGID_36_);}
	.st52{fill:url(#SVGID_37_);}
	.st53{fill:url(#SVGID_38_);}
	.st54{fill:url(#SVGID_39_);}
	.st55{fill:url(#SVGID_40_);}
	.st56{fill:url(#SVGID_41_);}
	.st57{fill:url(#SVGID_42_);}
	.st58{fill:url(#SVGID_43_);}
	.st59{fill:url(#SVGID_44_);}
	.st60{fill:url(#SVGID_45_);}
	.st61{fill:url(#SVGID_46_);}
	.st62{fill:url(#SVGID_47_);}
	.st63{fill:url(#SVGID_48_);}
	.st64{fill:url(#SVGID_49_);}
	.st65{fill:url(#SVGID_50_);}
	.st66{fill:url(#SVGID_51_);}
	.st67{fill:url(#SVGID_52_);}
	.st68{fill:url(#SVGID_53_);}
	.st69{fill:url(#SVGID_54_);}
	.st70{fill:url(#SVGID_55_);}
	.st71{fill:url(#SVGID_56_);}
	.st72{fill:url(#SVGID_57_);}
	.st73{fill:url(#SVGID_58_);}
	.st74{fill:url(#SVGID_59_);}
</style>
<g id="Layer_1">
	<g>
		<g>
			<g>
				<linearGradient id="SVGID_2_" gradientUnits="userSpaceOnUse" x1="199.9999" y1="12" x2="199.9999" y2="399.6751">
					<stop  offset="0" style="stop-color:#00B3BC"/>
					<stop  offset="0.564" style="stop-color:#2E5B90"/>
					<stop  offset="0.8226" style="stop-color:#40377F"/>
				</linearGradient>
				<path style="fill:url(#SVGID_2_);" d="M327.5,78.4c-0.5,9.5-1.7,18.3-3.6,26.4c20.3,26.4,32.4,59.4,32.4,95.2
					c0,85.1-68.4,154.5-153.1,156.2c-0.2,7-1.5,13.7-3.7,20h0.6c97.2,0,176.3-79.1,176.3-176.3C376.2,152.9,357.7,110,327.5,78.4z
					 M77.1,103.7c-0.5-3.7-0.8-7.6-0.8-11.7c0-6.5,0.7-13,2.1-19.4C44.7,104.7,23.7,149.9,23.7,200c0,50,20.9,95.2,54.5,127.3
					c2.9-6.2,6.7-11.9,11.3-16.9C61.2,282.1,43.7,243,43.7,200C43.7,163.7,56.2,130.2,77.1,103.7z"/>
			</g>
		</g>
	</g>
	<path class="st3" d="M138,400c-25.1,0-45.7-20.6-45.7-45.7c0-25.1,20.6-45.1,45.7-45.1s45.1,20,45.1,45.1
		C183.1,379.4,163.1,400,138,400z M170.6,267.4h-37.7c0-80.6,104-110.3,104-197.1c0-28-14.9-39.4-31.4-39.4
		c-21.7,0-45.7,18.9-45.7,47.4c0,13.1,5.7,33.1,21.7,37.7c-9.7,16-25.7,24-41.7,24c-22.3,0-43.4-16-43.4-48c0-38.9,33.7-92,120-92
		c78.3,0,91.4,30.9,91.4,69.1C307.7,179.4,198.6,182.3,170.6,267.4z"/>
</g>
<g id="ceu">
</g>
<g id="mar">
</g>
<g id="terra">
</g>
<g id="Layer_5">
</g>
<g id="Layer_6">
</g>
</svg>
