<?xml version="1.0" encoding="utf-8"?>
<!-- Generator: Adobe Illustrator 22.0.1, SVG Export Plug-In . SVG Version: 6.00 Build 0)  -->
<svg version="1.1" id="Layer_1" xmlns="http://www.w3.org/2000/svg" xmlns:xlink="http://www.w3.org/1999/xlink" x="0px" y="0px"
	 viewBox="0 0 141.7 141.7" style="enable-background:new 0 0 141.7 141.7;" xml:space="preserve">
<style type="text/css">
	.st0{fill:#FEFEFE;}
	.st1{clip-path:url(#SVGID_2_);}
	.st2{fill:#575F5D;}
	.st3{fill:#6E7877;}
	.st4{fill:#B2C3C1;}
	.st5{fill:#FFFFFF;}
	.st6{fill:#2E1010;}
	.st7{fill:#6098D1;}
</style>
<circle class="st0" cx="70.8" cy="70.8" r="70.9"/>
<g>
	<defs>
		<circle id="SVGID_1_" cx="70.8" cy="70.8" r="70.9"/>
	</defs>
	<clipPath id="SVGID_2_">
		<use xlink:href="#SVGID_1_"  style="overflow:visible;"/>
	</clipPath>
	<g class="st1">
		<path class="st2" d="M-1.2,80.1c0,8.1-6.6,14.7-14.7,14.7c-8.1,0-14.7-6.6-14.7-14.7s6.6-14.7,14.7-14.7
			C-7.8,65.4-1.2,72-1.2,80.1z"/>
		<g>
			<path class="st3" d="M136,82.9c0-0.4,0.1-0.7,0.1-1.1v-6.5c0-2.2-0.1-4.2-0.3-6.1C133.4,45.3,117.1,39,96.3,39
				C93.1,39-2.4,38.4-4.4,87h139.8C135.7,85.7,135.9,84.3,136,82.9z"/>
			<path class="st4" d="M-4.4,87c0,0.2,0,0.4,0,0.7c0,0.3,0,0.6,0,0.9c0,0.3,0,0.6,0,0.9c0.5,12.2,10.7,15.7,23.4,15.7h93.7
				c11.1,0,20.4-7.8,22.8-18.2H-4.4z"/>
		</g>
		<g>
			<path class="st5" d="M121.3,69.8c-2.2-0.1-4.2,0.9-5.6,2.4c-1.3-1.6-3.3-2.6-5.5-2.7c-4.1-0.1-7.5,3.1-7.5,7.2
				c-0.1,4.1,3.1,7.5,7.2,7.5c2.2,0.1,4.2-0.9,5.6-2.4c1.3,1.6,3.3,2.6,5.5,2.7c4.1,0.1,7.5-3.1,7.6-7.2
				C128.6,73.3,125.4,69.9,121.3,69.8z"/>
			<path class="st6" d="M114.5,77c0,1.1-0.9,1.9-2,1.9c-1.1,0-1.9-0.9-1.9-2c0-1.1,0.9-1.9,2-1.9C113.7,75,114.5,75.9,114.5,77z"/>
			<path class="st6" d="M120.5,77.2c0,1.1-0.9,1.9-2,1.9c-1.1,0-1.9-0.9-1.9-2c0-1.1,0.9-1.9,2-1.9
				C119.7,75.2,120.6,76.1,120.5,77.2z"/>
		</g>
		<path class="st3" d="M136,62.5"/>
		<path class="st2" d="M89.7,83.7H70.1c-2.4,0-4.4,2-4.4,4.4c0,2.4,2,4.4,4.4,4.4h19.6c2.4,0,4.4-2,4.4-4.4
			C94.1,85.6,92.1,83.7,89.7,83.7z"/>
		<path class="st3" d="M-3.8,86.7c0,8.1-6.6,14.7-14.7,14.7c-8.1,0-14.7-6.6-14.7-14.7c0-8.1,6.6-14.7,14.7-14.7
			C-10.4,72-3.8,78.6-3.8,86.7z"/>
		<path class="st2" d="M95.3,44.6h-6.1c-0.9,0-1.6-0.7-1.6-1.6l0,0c0-0.9,0.7-1.6,1.6-1.6h6.1c0.9,0,1.6,0.7,1.6,1.6l0,0
			C96.9,43.9,96.2,44.6,95.3,44.6z"/>
		<path class="st7" d="M93.8,21.5c-0.6,0-1.1,0.5-1.1,1.1V21c0-0.6-0.5-1.1-1.1-1.1c-0.6,0-1.1,0.5-1.1,1.1v2.5
			c-0.1-0.4-0.5-0.8-1-0.8c-0.6,0-1.1,0.5-1.1,1.1v4.2c0,0.6,0.5,1.1,1.1,1.1c0.5,0,0.9-0.3,1-0.8v3.3c0,0.6,0.5,1.1,1.1,1.1
			c0.6,0,1.1-0.5,1.1-1.1v-3.3c0,0.6,0.5,1.1,1.1,1.1s1.1-0.5,1.1-1.1v-5.8C94.9,22,94.4,21.5,93.8,21.5z"/>
		<path class="st7" d="M90.5,19.2c0,0.6-0.5,1.1-1.1,1.1s-1.1-0.5-1.1-1.1c0-0.6,0.5-1.1,1.1-1.1S90.5,18.6,90.5,19.2z"/>
		<path class="st7" d="M95,34.3c0,0.6-0.5,1.1-1.1,1.1c-0.6,0-1.1-0.5-1.1-1.1c0-0.6,0.5-1.1,1.1-1.1C94.5,33.2,95,33.7,95,34.3z"/>
		<path class="st7" d="M94.3,17.2c0.4,0.2,0.6,0.6,0.4,1c-0.2,0.4-0.6,0.6-1,0.4c-0.4-0.2-0.6-0.6-0.4-1S93.9,17,94.3,17.2z"/>
	</g>
</g>
</svg>
