<?xml version="1.0" encoding="utf-8"?>
<!-- Generator: Adobe Illustrator 22.0.1, SVG Export Plug-In . SVG Version: 6.00 Build 0)  -->
<svg version="1.1" id="Layer_1" xmlns="http://www.w3.org/2000/svg" xmlns:xlink="http://www.w3.org/1999/xlink" x="0px" y="0px"
	 viewBox="0 0 750 1000.4" style="enable-background:new 0 0 750 1000.4;" xml:space="preserve">
<style type="text/css">
	.st0{clip-path:url(#SVGID_2_);}
	.st1{fill:url(#SVGID_3_);}
	.st2{opacity:0.1;fill:#FFFFFF;}
	.st3{fill:#FFFFFF;}
	.st4{fill:url(#SVGID_4_);}
	.st5{opacity:0.2;fill:#FFFFFF;}
	.st6{opacity:0.3;fill:#FFFFFF;}
	.st7{opacity:0.2;fill:#242A4C;}
	.st8{opacity:0.4;fill:#FFFFFF;}
	.st9{fill:#34234B;}
	.st10{fill:url(#SVGID_5_);}
	.st11{fill:none;}
	.st12{fill:#2A1C3E;}
	.st13{fill:url(#SVGID_6_);}
	.st14{fill:url(#SVGID_7_);}
	.st15{fill:url(#SVGID_8_);}
	.st16{fill:url(#SVGID_9_);}
	.st17{fill:url(#SVGID_10_);}
</style>
<g>
	<defs>
		<polygon id="SVGID_1_" points="0,0 750,0 750,906 375,1000 0,906 		"/>
	</defs>
	<clipPath id="SVGID_2_">
		<use xlink:href="#SVGID_1_"  style="overflow:visible;"/>
	</clipPath>
	<g class="st0">
		<g>
			<linearGradient id="SVGID_3_" gradientUnits="userSpaceOnUse" x1="250.4798" y1="0.3222" x2="250.4798" y2="1008.7805">
				<stop  offset="0" style="stop-color:#442E7B"/>
				<stop  offset="0" style="stop-color:#40377F"/>
				<stop  offset="0.1183" style="stop-color:#3B4083"/>
				<stop  offset="0.3094" style="stop-color:#2F588F"/>
				<stop  offset="0.5495" style="stop-color:#1B7EA2"/>
				<stop  offset="0.8226" style="stop-color:#00B3BC"/>
			</linearGradient>
			<rect x="-260.3" y="0.3" class="st1" width="1021.5" height="1008.5"/>
			<path class="st2" d="M47.1,565.3h-75.9h-29.3h-17.1c-3.2,0-5.7,2.6-5.7,5.7c0,3.2,2.6,5.7,5.7,5.7h17.1h29.3h75.9
				c3.2,0,5.7-2.6,5.7-5.7C52.8,567.9,50.2,565.3,47.1,565.3z"/>
			<path class="st2" d="M83,610.9H-37.5H-84h-27.2c-5,0-9.1,4.1-9.1,9.1c0,5,4.1,9.1,9.1,9.1H-84h46.5H83c5,0,9.1-4.1,9.1-9.1
				C92.1,615,88,610.9,83,610.9z"/>
			<path class="st2" d="M20.1,648h-120.4h-46.5H-174c-5,0-9.1,4.1-9.1,9.1c0,5,4.1,9.1,9.1,9.1h27.2h46.5H20.1c5,0,9.1-4.1,9.1-9.1
				C29.3,652.1,25.2,648,20.1,648z"/>
			<path class="st2" d="M190.1,697.3h-78.6H81.1H63.3c-3.3,0-6,2.7-6,6c0,3.3,2.7,6,6,6h17.8h30.4h78.6c3.3,0,6-2.7,6-6
				C196,699.9,193.4,697.3,190.1,697.3z"/>
			<path class="st2" d="M260.9,565.9h-68.2h-26.3h-15.4c-2.8,0-5.2,2.3-5.2,5.2c0,2.9,2.3,5.2,5.2,5.2h15.4h26.3h68.2
				c2.9,0,5.2-2.3,5.2-5.2C266.1,568.2,263.8,565.9,260.9,565.9z"/>
			<path class="st2" d="M689.5,540.6h-78.6h-30.4h-17.8c-3.3,0-6,2.7-6,6c0,3.3,2.7,6,6,6h17.8h30.4h78.6c3.3,0,6-2.7,6-6
				C695.5,543.2,692.8,540.6,689.5,540.6z"/>
			<path class="st2" d="M712.9,629.2h-78.6h-30.4h-17.8c-3.3,0-6,2.7-6,6c0,3.3,2.7,6,6,6h17.8h30.4h78.6c3.3,0,6-2.7,6-6
				C718.9,631.9,716.2,629.2,712.9,629.2z"/>
			<path class="st3" d="M12.7,599.4c0,0.8-0.6,1.4-1.4,1.4c-0.8,0-1.4-0.6-1.4-1.4c0-0.8,0.6-1.4,1.4-1.4
				C12.1,598,12.7,598.7,12.7,599.4z"/>
			<path class="st3" d="M148.5,731.9c0,0.6-0.5,1-1,1c-0.6,0-1-0.5-1-1c0-0.6,0.5-1,1-1C148,730.9,148.5,731.4,148.5,731.9z"/>
			<path class="st3" d="M115.1,531.9c0,0.6-0.5,1-1,1c-0.6,0-1-0.4-1-1c0-0.6,0.5-1,1-1C114.6,530.9,115.1,531.3,115.1,531.9z"/>
			<path class="st3" d="M99,602.6c0,0.6-0.5,1-1,1c-0.6,0-1-0.4-1-1c0-0.6,0.5-1,1-1C98.6,601.6,99,602.1,99,602.6z"/>
			<path class="st3" d="M58.4,641.3c0,0.6-0.5,1-1,1c-0.6,0-1-0.4-1-1c0-0.6,0.5-1,1-1C57.9,640.3,58.4,640.7,58.4,641.3z"/>
			<path class="st3" d="M83.1,556.3c0,0.6-0.5,1-1,1c-0.6,0-1-0.4-1-1c0-0.6,0.5-1,1-1C82.7,555.3,83.1,555.8,83.1,556.3z"/>
			<path class="st3" d="M140,559.6c0,0.6-0.5,1-1,1c-0.6,0-1-0.4-1-1c0-0.6,0.5-1,1-1C139.5,558.6,140,559,140,559.6z"/>
			<path class="st3" d="M197,536.9c0,0.6-0.5,1-1,1c-0.6,0-1-0.4-1-1c0-0.6,0.5-1,1-1C196.6,535.9,197,536.4,197,536.9z"/>
			<path class="st3" d="M252.3,597c0,0.6-0.5,1-1,1c-0.6,0-1-0.4-1-1c0-0.6,0.5-1,1-1C251.8,596,252.3,596.5,252.3,597z"/>
			<path class="st3" d="M258.5,540.8c0,0.6-0.5,1-1,1c-0.6,0-1-0.4-1-1c0-0.6,0.5-1,1-1C258,539.8,258.5,540.3,258.5,540.8z"/>
			<path class="st3" d="M208,597c0,0.6-0.5,1-1,1c-0.6,0-1-0.4-1-1c0-0.6,0.5-1,1-1C207.6,596,208,596.5,208,597z"/>
			<path class="st3" d="M321.1,540.8c0,0.6-0.5,1-1,1c-0.6,0-1-0.4-1-1c0-0.6,0.5-1,1-1C320.7,539.8,321.1,540.3,321.1,540.8z"/>
			<path class="st3" d="M250.7,634.8c0,0.6-0.5,1-1,1c-0.6,0-1-0.4-1-1c0-0.6,0.5-1,1-1C250.2,633.8,250.7,634.3,250.7,634.8z"/>
			<path class="st3" d="M139,630.9c0,0.6-0.5,1-1,1c-0.6,0-1-0.4-1-1c0-0.6,0.5-1,1-1C138.5,629.9,139,630.4,139,630.9z"/>
			<path class="st3" d="M538.9,546.5c0,0.6-0.5,1-1,1c-0.6,0-1-0.5-1-1c0-0.6,0.5-1,1-1C538.4,545.5,538.9,546,538.9,546.5z"/>
			<path class="st3" d="M199.1,659.4c0,0.6-0.5,1-1,1c-0.6,0-1-0.4-1-1c0-0.6,0.5-1,1-1C198.6,658.4,199.1,658.9,199.1,659.4z"/>
			<path class="st3" d="M588,598c0,0.6-0.5,1-1,1c-0.6,0-1-0.4-1-1c0-0.6,0.5-1,1-1C587.5,597,588,597.5,588,598z"/>
			<path class="st3" d="M581.2,577.8c0,0.6-0.5,1-1,1c-0.6,0-1-0.5-1-1c0-0.6,0.5-1,1-1C580.8,576.8,581.2,577.3,581.2,577.8z"/>
			<path class="st3" d="M544.6,571.1c0,0.6-0.5,1-1,1c-0.6,0-1-0.5-1-1c0-0.6,0.5-1,1-1C544.1,570.1,544.6,570.5,544.6,571.1z"/>
			<path class="st3" d="M488.8,535.9c0,0.6-0.5,1-1,1c-0.6,0-1-0.4-1-1c0-0.6,0.5-1,1-1C488.4,534.9,488.8,535.4,488.8,535.9z"/>
			<path class="st3" d="M267.1,683.5c0,0.6-0.5,1-1,1c-0.6,0-1-0.4-1-1c0-0.6,0.5-1,1-1C266.7,682.5,267.1,683,267.1,683.5z"/>
			<path class="st3" d="M593.4,697.3c0,0.6-0.5,1-1,1c-0.6,0-1-0.4-1-1c0-0.6,0.5-1,1-1C593,696.3,593.4,696.7,593.4,697.3z"/>
			<path class="st3" d="M109.2,666.3c0,0.6-0.5,1-1,1c-0.6,0-1-0.4-1-1c0-0.6,0.5-1,1-1C108.7,665.3,109.2,665.7,109.2,666.3z"/>
			<path class="st3" d="M549.8,175.3c-0.8,0.1-1.3,0.9-1.1,1.6c0.1,0.8,0.9,1.2,1.6,1.1l75.2-17.7L549.8,175.3z"/>
			<path class="st3" d="M92.8,603.9c0.7,0.2,1.2,1,0.9,1.7c-0.2,0.7-1,1.2-1.7,0.9l-73-25.5L92.8,603.9z"/>
			<path class="st2" d="M30.8,331.8H-45h-29.3h-17.1c-3.2,0-5.7,2.6-5.7,5.7c0,3.2,2.6,5.7,5.7,5.7h17.1H-45h75.9
				c3.2,0,5.7-2.6,5.7-5.7C36.6,334.4,34,331.8,30.8,331.8z"/>
			<path class="st2" d="M66.8,377.4H-53.7h-46.5h-27.2c-5,0-9.1,4.1-9.1,9.1c0,5,4.1,9.1,9.1,9.1h27.2h46.5H66.8
				c5,0,9.1-4.1,9.1-9.1C75.9,381.5,71.8,377.4,66.8,377.4z"/>
			<path class="st2" d="M3.9,414.5h-120.4H-163h-27.2c-5,0-9.1,4.1-9.1,9.1c0,5,4.1,9.1,9.1,9.1h27.2h46.5H3.9c5,0,9.1-4.1,9.1-9.1
				C13,418.6,9,414.5,3.9,414.5z"/>
			<path class="st2" d="M173.9,463.8H95.2H64.9H47.1c-3.3,0-6,2.7-6,6c0,3.3,2.7,6,6,6h17.8h30.4h78.6c3.3,0,6-2.7,6-6
				C179.8,466.4,177.2,463.8,173.9,463.8z"/>
			<path class="st2" d="M244.7,332.4h-68.2h-26.3h-15.4c-2.8,0-5.2,2.3-5.2,5.2c0,2.9,2.3,5.2,5.2,5.2h15.4h26.3h68.2
				c2.9,0,5.2-2.3,5.2-5.2C249.9,334.7,247.6,332.4,244.7,332.4z"/>
			<path class="st3" d="M132.3,498.4c0,0.6-0.5,1-1,1c-0.6,0-1-0.5-1-1c0-0.6,0.5-1,1-1C131.8,497.4,132.3,497.8,132.3,498.4z"/>
			<path class="st3" d="M98.9,298.4c0,0.6-0.5,1-1,1c-0.6,0-1-0.4-1-1c0-0.6,0.5-1,1-1C98.4,297.4,98.9,297.8,98.9,298.4z"/>
			<path class="st3" d="M82.8,369.1c0,0.6-0.5,1-1,1c-0.6,0-1-0.4-1-1c0-0.6,0.5-1,1-1C82.4,368.1,82.8,368.6,82.8,369.1z"/>
			<path class="st3" d="M42.2,407.8c0,0.6-0.5,1-1,1c-0.6,0-1-0.4-1-1c0-0.6,0.5-1,1-1C41.7,406.8,42.2,407.2,42.2,407.8z"/>
			<path class="st3" d="M66.9,322.8c0,0.6-0.5,1-1,1c-0.6,0-1-0.4-1-1c0-0.6,0.5-1,1-1C66.5,321.8,66.9,322.2,66.9,322.8z"/>
			<path class="st3" d="M123.8,326.1c0,0.6-0.5,1-1,1c-0.6,0-1-0.4-1-1c0-0.6,0.5-1,1-1C123.3,325.1,123.8,325.5,123.8,326.1z"/>
			<path class="st3" d="M180.8,303.4c0,0.6-0.5,1-1,1c-0.6,0-1-0.4-1-1c0-0.6,0.5-1,1-1C180.4,302.4,180.8,302.9,180.8,303.4z"/>
			<path class="st3" d="M236,363.5c0,0.6-0.5,1-1,1c-0.6,0-1-0.4-1-1c0-0.6,0.5-1,1-1C235.6,362.5,236,363,236,363.5z"/>
			<path class="st3" d="M242.2,307.3c0,0.6-0.5,1-1,1c-0.6,0-1-0.4-1-1c0-0.6,0.5-1,1-1C241.8,306.3,242.2,306.7,242.2,307.3z"/>
			<path class="st3" d="M191.8,363.5c0,0.6-0.5,1-1,1c-0.6,0-1-0.4-1-1c0-0.6,0.5-1,1-1C191.4,362.5,191.8,363,191.8,363.5z"/>
			<path class="st3" d="M304.9,307.3c0,0.6-0.5,1-1,1c-0.6,0-1-0.4-1-1c0-0.6,0.5-1,1-1C304.5,306.3,304.9,306.7,304.9,307.3z"/>
			<path class="st3" d="M234.5,401.3c0,0.6-0.5,1-1,1c-0.6,0-1-0.4-1-1c0-0.6,0.5-1,1-1C234,400.3,234.5,400.8,234.5,401.3z"/>
			<path class="st3" d="M122.8,397.4c0,0.6-0.5,1-1,1c-0.6,0-1-0.4-1-1c0-0.6,0.5-1,1-1C122.3,396.4,122.8,396.9,122.8,397.4z"/>
			<path class="st3" d="M182.8,425.9c0,0.6-0.5,1-1,1c-0.6,0-1-0.4-1-1c0-0.6,0.5-1,1-1C182.4,424.9,182.8,425.4,182.8,425.9z"/>
			<path class="st3" d="M250.9,450c0,0.6-0.5,1-1,1c-0.6,0-1-0.4-1-1c0-0.6,0.5-1,1-1C250.4,449,250.9,449.5,250.9,450z"/>
			<path class="st3" d="M92.9,432.7c0,0.6-0.5,1-1,1c-0.6,0-1-0.4-1-1c0-0.6,0.5-1,1-1C92.5,431.7,92.9,432.2,92.9,432.7z"/>
			<path class="st2" d="M479.9,380.8H404h-29.3h-17.1c-3.2,0-5.7,2.6-5.7,5.7c0,3.2,2.6,5.7,5.7,5.7h17.1H404h75.9
				c3.2,0,5.7-2.6,5.7-5.7C485.6,383.3,483,380.8,479.9,380.8z"/>
			<path class="st2" d="M515.8,426.4H395.4h-46.5h-27.2c-5,0-9.1,4.1-9.1,9.1c0,5,4.1,9.1,9.1,9.1h27.2h46.5h120.4
				c5,0,9.1-4.1,9.1-9.1C524.9,430.5,520.8,426.4,515.8,426.4z"/>
			<path class="st2" d="M453,463.5H332.5H286h-27.2c-5,0-9.1,4.1-9.1,9.1c0,5,4.1,9.1,9.1,9.1H286h46.5H453c5,0,9.1-4.1,9.1-9.1
				C462.1,467.5,458,463.5,453,463.5z"/>
			<path class="st2" d="M693.8,381.3h-68.2h-26.3h-15.4c-2.8,0-5.2,2.3-5.2,5.2c0,2.9,2.3,5.2,5.2,5.2h15.4h26.3h68.2
				c2.9,0,5.2-2.3,5.2-5.2C698.9,383.7,696.6,381.3,693.8,381.3z"/>
			<path class="st3" d="M296.2,445.2c0,0.6-0.5,1.1-1.1,1.1c-0.6,0-1.1-0.5-1.1-1.1c0-0.6,0.5-1.1,1.1-1.1
				C295.7,444.1,296.2,444.6,296.2,445.2z"/>
			<path class="st3" d="M318.2,373.9c0,0.6-0.5,1.1-1.1,1.1c-0.6,0-1.1-0.5-1.1-1.1c0-0.6,0.5-1.1,1.1-1.1
				C317.7,372.7,318.2,373.3,318.2,373.9z"/>
			<path class="st3" d="M386.3,404.1c0,1-0.8,1.8-1.8,1.8c-1,0-1.8-0.8-1.8-1.8c0-1,0.8-1.8,1.8-1.8
				C385.5,402.3,386.3,403.1,386.3,404.1z"/>
			<path class="st3" d="M445.5,414.8c0,0.8-0.6,1.4-1.4,1.4c-0.8,0-1.4-0.6-1.4-1.4c0-0.8,0.6-1.4,1.4-1.4
				C444.9,413.5,445.5,414.1,445.5,414.8z"/>
			<path class="st3" d="M422.3,363.7c0,1-0.8,1.8-1.8,1.8c-1,0-1.8-0.8-1.8-1.8c0-1,0.8-1.8,1.8-1.8
				C421.5,362,422.3,362.8,422.3,363.7z"/>
			<path class="st3" d="M351.8,419.1c0,0.6-0.5,1-1,1c-0.6,0-1-0.4-1-1c0-0.6,0.5-1,1-1C351.4,418.1,351.8,418.5,351.8,419.1z"/>
			<path class="st3" d="M547.9,347.3c0,0.6-0.5,1-1,1c-0.6,0-1-0.4-1-1c0-0.6,0.5-1,1-1C547.4,346.3,547.9,346.8,547.9,347.3z"/>
			<path class="st3" d="M531.9,418.1c0,0.6-0.5,1-1,1c-0.6,0-1-0.4-1-1c0-0.6,0.5-1,1-1C531.4,417.1,531.9,417.5,531.9,418.1z"/>
			<path class="st3" d="M491.2,456.7c0,0.6-0.5,1-1,1c-0.6,0-1-0.4-1-1c0-0.6,0.5-1,1-1C490.7,455.7,491.2,456.1,491.2,456.7z"/>
			<path class="st3" d="M370.7,451.3c0,0.6-0.5,1-1,1c-0.6,0-1-0.4-1-1c0-0.6,0.5-1,1-1C370.3,450.3,370.7,450.7,370.7,451.3z"/>
			<path class="st3" d="M287.3,348.3c0,0.6-0.5,1-1,1c-0.6,0-1-0.4-1-1c0-0.6,0.5-1,1-1C286.8,347.3,287.3,347.8,287.3,348.3z"/>
			<path class="st3" d="M515.9,371.7c0,0.6-0.5,1-1,1c-0.6,0-1-0.4-1-1c0-0.6,0.5-1,1-1C515.5,370.7,515.9,371.2,515.9,371.7z"/>
			<path class="st3" d="M572.8,375c0,0.6-0.5,1-1,1c-0.6,0-1-0.4-1-1c0-0.6,0.5-1,1-1C572.4,374,572.8,374.5,572.8,375z"/>
			<path class="st3" d="M629.9,352.4c0,0.6-0.5,1-1,1c-0.6,0-1-0.4-1-1c0-0.6,0.5-1,1-1C629.4,351.4,629.9,351.8,629.9,352.4z"/>
			<path class="st3" d="M640.8,412.5c0,0.6-0.5,1-1,1c-0.6,0-1-0.4-1-1c0-0.6,0.5-1,1-1C640.4,411.5,640.8,411.9,640.8,412.5z"/>
			<path class="st3" d="M571.8,446.4c0,0.6-0.5,1-1,1c-0.6,0-1-0.4-1-1c0-0.6,0.5-1,1-1C571.4,445.4,571.8,445.8,571.8,446.4z"/>
			<path class="st3" d="M631.9,474.9c0,0.6-0.5,1-1,1c-0.6,0-1-0.4-1-1c0-0.6,0.5-1,1-1C631.4,473.9,631.9,474.3,631.9,474.9z"/>
			<path class="st3" d="M542,481.7c0,0.6-0.5,1-1,1c-0.6,0-1-0.4-1-1c0-0.6,0.5-1,1-1C541.5,480.7,542,481.1,542,481.7z"/>
			<path class="st2" d="M467.6,162.1h-75.9h-29.3h-17.1c-3.2,0-5.7,2.6-5.7,5.7c0,3.2,2.6,5.7,5.7,5.7h17.1h29.3h75.9
				c3.2,0,5.7-2.6,5.7-5.7C473.4,164.7,470.8,162.1,467.6,162.1z"/>
			<path class="st2" d="M503.6,207.7H383.1h-46.5h-27.2c-5,0-9.1,4.1-9.1,9.1c0,5,4.1,9.1,9.1,9.1h27.2h46.5h120.4
				c5,0,9.1-4.1,9.1-9.1C512.7,211.8,508.6,207.7,503.6,207.7z"/>
			<path class="st2" d="M473.2,272.6H352.8h-46.5h-27.2c-5,0-9.1,4.1-9.1,9.1c0,5,4.1,9.1,9.1,9.1h27.2h46.5h120.4
				c5,0,9.1-4.1,9.1-9.1C482.3,276.7,478.2,272.6,473.2,272.6z"/>
			<path class="st2" d="M681.5,162.7h-68.2h-26.3h-15.4c-2.8,0-5.2,2.3-5.2,5.2c0,2.9,2.3,5.2,5.2,5.2h15.4h26.3h68.2
				c2.9,0,5.2-2.3,5.2-5.2C686.7,165,684.4,162.7,681.5,162.7z"/>
			<path class="st3" d="M284,226.6c0,0.6-0.5,1.1-1.1,1.1c-0.6,0-1.1-0.5-1.1-1.1c0-0.6,0.5-1.1,1.1-1.1
				C283.5,225.5,284,226,284,226.6z"/>
			<path class="st3" d="M306,155.2c0,0.6-0.5,1.1-1.1,1.1c-0.6,0-1.1-0.5-1.1-1.1c0-0.6,0.5-1.1,1.1-1.1
				C305.5,154.1,306,154.6,306,155.2z"/>
			<path class="st3" d="M374.1,185.4c0,1-0.8,1.8-1.8,1.8c-1,0-1.8-0.8-1.8-1.8c0-1,0.8-1.8,1.8-1.8
				C373.2,183.6,374.1,184.4,374.1,185.4z"/>
			<path class="st3" d="M433.3,196.2c0,0.8-0.6,1.4-1.4,1.4c-0.8,0-1.4-0.6-1.4-1.4c0-0.8,0.6-1.4,1.4-1.4
				C432.7,194.8,433.3,195.4,433.3,196.2z"/>
			<path class="st3" d="M410.1,145.1c0,1-0.8,1.8-1.8,1.8c-1,0-1.8-0.8-1.8-1.8c0-1,0.8-1.8,1.8-1.8
				C409.3,143.3,410.1,144.1,410.1,145.1z"/>
			<path class="st3" d="M339.6,200.4c0,0.6-0.5,1-1,1c-0.6,0-1-0.4-1-1c0-0.6,0.5-1,1-1C339.2,199.4,339.6,199.9,339.6,200.4z"/>
			<path class="st3" d="M535.6,128.7c0,0.6-0.5,1-1,1c-0.6,0-1-0.4-1-1c0-0.6,0.5-1,1-1C535.2,127.7,535.6,128.1,535.6,128.7z"/>
			<path class="st3" d="M519.6,199.4c0,0.6-0.5,1-1,1c-0.6,0-1-0.4-1-1c0-0.6,0.5-1,1-1C519.2,198.4,519.6,198.9,519.6,199.4z"/>
			<path class="st3" d="M478.9,238.1c0,0.6-0.5,1-1,1c-0.6,0-1-0.4-1-1c0-0.6,0.5-1,1-1C478.5,237,478.9,237.5,478.9,238.1z"/>
			<path class="st3" d="M358.5,232.6c0,0.6-0.5,1-1,1c-0.6,0-1-0.4-1-1c0-0.6,0.5-1,1-1C358,231.6,358.5,232.1,358.5,232.6z"/>
			<path class="st3" d="M275,129.7c0,0.6-0.5,1-1,1c-0.6,0-1-0.4-1-1c0-0.6,0.5-1,1-1C274.6,128.7,275,129.1,275,129.7z"/>
			<path class="st3" d="M503.7,153.1c0,0.6-0.5,1-1,1c-0.6,0-1-0.4-1-1c0-0.6,0.5-1,1-1C503.3,152.1,503.7,152.5,503.7,153.1z"/>
			<path class="st3" d="M560.6,156.4c0,0.6-0.5,1-1,1c-0.6,0-1-0.4-1-1c0-0.6,0.5-1,1-1C560.1,155.4,560.6,155.8,560.6,156.4z"/>
			<path class="st3" d="M617.6,133.7c0,0.6-0.5,1-1,1c-0.6,0-1-0.4-1-1c0-0.6,0.5-1,1-1C617.2,132.7,617.6,133.2,617.6,133.7z"/>
			<path class="st3" d="M628.6,193.8c0,0.6-0.5,1-1,1c-0.6,0-1-0.4-1-1c0-0.6,0.5-1,1-1C628.2,192.8,628.6,193.3,628.6,193.8z"/>
			<path class="st3" d="M559.6,227.7c0,0.6-0.5,1-1,1c-0.6,0-1-0.4-1-1c0-0.6,0.5-1,1-1C559.1,226.7,559.6,227.2,559.6,227.7z"/>
			<path class="st3" d="M619.6,256.2c0,0.6-0.5,1-1,1c-0.6,0-1-0.4-1-1c0-0.6,0.5-1,1-1C619.2,255.2,619.6,255.7,619.6,256.2z"/>
			<path class="st3" d="M529.7,263c0,0.6-0.5,1-1,1c-0.6,0-1-0.4-1-1c0-0.6,0.5-1,1-1C529.3,262,529.7,262.5,529.7,263z"/>
			<path class="st2" d="M63.9,128.9h-75.9h-29.3h-17.1c-3.2,0-5.7,2.6-5.7,5.7c0,3.2,2.6,5.7,5.7,5.7h17.1h29.3h75.9
				c3.2,0,5.7-2.6,5.7-5.7C69.7,131.5,67.1,128.9,63.9,128.9z"/>
			<path class="st2" d="M99.9,174.6H-20.6h-46.5h-27.2c-5,0-9.1,4.1-9.1,9.1c0,5,4.1,9.1,9.1,9.1h27.2h46.5H99.9
				c5,0,9.1-4.1,9.1-9.1C109,178.6,104.9,174.6,99.9,174.6z"/>
			<path class="st2" d="M37,211.6H-83.4h-46.5h-27.2c-5,0-9.1,4.1-9.1,9.1c0,5,4.1,9.1,9.1,9.1h27.2h46.5H37c5,0,9.1-4.1,9.1-9.1
				C46.1,215.7,42.1,211.6,37,211.6z"/>
			<path class="st2" d="M277.8,129.5h-68.2h-26.3H168c-2.8,0-5.2,2.3-5.2,5.2c0,2.9,2.3,5.2,5.2,5.2h15.4h26.3h68.2
				c2.9,0,5.2-2.3,5.2-5.2C283,131.8,280.7,129.5,277.8,129.5z"/>
			<path class="st3" d="M29.6,163c0,0.8-0.6,1.4-1.4,1.4c-0.8,0-1.4-0.6-1.4-1.4c0-0.8,0.6-1.4,1.4-1.4
				C29,161.7,29.6,162.3,29.6,163z"/>
			<path class="st3" d="M6.4,111.9c0,1-0.8,1.8-1.8,1.8c-1,0-1.8-0.8-1.8-1.8c0-1,0.8-1.8,1.8-1.8C5.6,110.1,6.4,110.9,6.4,111.9z"
				/>
			<path class="st3" d="M131.9,95.5c0,0.6-0.5,1-1,1c-0.6,0-1-0.4-1-1c0-0.6,0.5-1,1-1C131.5,94.5,131.9,95,131.9,95.5z"/>
			<path class="st3" d="M115.9,166.3c0,0.6-0.5,1-1,1c-0.6,0-1-0.4-1-1c0-0.6,0.5-1,1-1C115.5,165.2,115.9,165.7,115.9,166.3z"/>
			<path class="st3" d="M75.2,204.9c0,0.6-0.5,1-1,1c-0.6,0-1-0.4-1-1c0-0.6,0.5-1,1-1C74.8,203.9,75.2,204.3,75.2,204.9z"/>
			<path class="st3" d="M100,119.9c0,0.6-0.5,1-1,1c-0.6,0-1-0.4-1-1c0-0.6,0.5-1,1-1C99.6,118.9,100,119.4,100,119.9z"/>
			<path class="st3" d="M156.9,123.2c0,0.6-0.5,1-1,1c-0.6,0-1-0.4-1-1c0-0.6,0.5-1,1-1C156.4,122.2,156.9,122.7,156.9,123.2z"/>
			<path class="st3" d="M213.9,100.5c0,0.6-0.5,1-1,1c-0.6,0-1-0.4-1-1c0-0.6,0.5-1,1-1C213.5,99.5,213.9,100,213.9,100.5z"/>
			<path class="st3" d="M224.9,160.7c0,0.6-0.5,1-1,1c-0.6,0-1-0.4-1-1c0-0.6,0.5-1,1-1C224.5,159.6,224.9,160.1,224.9,160.7z"/>
			<path class="st3" d="M155.9,194.6c0,0.6-0.5,1-1,1c-0.6,0-1-0.4-1-1c0-0.6,0.5-1,1-1C155.4,193.5,155.9,194,155.9,194.6z"/>
			<path class="st3" d="M215.9,223.1c0,0.6-0.5,1-1,1c-0.6,0-1-0.4-1-1c0-0.6,0.5-1,1-1C215.5,222.1,215.9,222.5,215.9,223.1z"/>
			<path class="st3" d="M126,229.9c0,0.6-0.5,1-1,1c-0.6,0-1-0.4-1-1c0-0.6,0.5-1,1-1C125.6,228.9,126,229.3,126,229.9z"/>
			<path class="st2" d="M559.8,693.4H439.3h-46.5h-27.2c-5,0-9.1,4.1-9.1,9.1c0,5,4.1,9.1,9.1,9.1h27.2h46.5h120.4
				c5,0,9.1-4.1,9.1-9.1C568.9,697.5,564.8,693.4,559.8,693.4z"/>
		</g>
		<linearGradient id="SVGID_4_" gradientUnits="userSpaceOnUse" x1="252.6469" y1="811.5051" x2="252.6469" y2="1003.0013">
			<stop  offset="0" style="stop-color:#EB1B7F"/>
			<stop  offset="1" style="stop-color:#302E80"/>
		</linearGradient>
		<rect x="-253" y="811.5" class="st4" width="1011.3" height="191.5"/>
		<path class="st2" d="M342.6,833h-75.9h-29.3h-17.1c-3.2,0-5.7,2.6-5.7,5.7c0,3.2,2.6,5.7,5.7,5.7h17.1h29.3h75.9
			c3.2,0,5.7-2.6,5.7-5.7C348.4,835.5,345.8,833,342.6,833z"/>
		<path class="st2" d="M295.3,851h-75.9h-29.3H173c-3.2,0-5.7,2.6-5.7,5.7c0,3.2,2.6,5.7,5.7,5.7h17.1h29.3h75.9
			c3.2,0,5.7-2.6,5.7-5.7C301,853.5,298.5,851,295.3,851z"/>
		<path class="st5" d="M334,865.9h-75.9h-29.3h-17.1c-3.2,0-5.7,2.6-5.7,5.7c0,3.2,2.6,5.7,5.7,5.7h17.1h29.3H334
			c3.2,0,5.7-2.6,5.7-5.7C339.8,868.4,337.2,865.9,334,865.9z"/>
		<path class="st6" d="M297.2,903.7h-92.8h-35.8h-21c-3.9,0-7,3.1-7,7c0,3.9,3.1,7,7,7h21h35.8h92.8c3.9,0,7-3.1,7-7
			C304.2,906.8,301.1,903.7,297.2,903.7z"/>
		<path class="st2" d="M44.9,846.1H5.1h-15.4h-9c-1.7,0-3,1.3-3,3c0,1.7,1.3,3,3,3h9H5.1h39.8c1.7,0,3-1.3,3-3
			C47.9,847.4,46.6,846.1,44.9,846.1z"/>
		<path class="st2" d="M246.7,884.8h-39.8h-15.4h-9c-1.7,0-3,1.3-3,3c0,1.7,1.3,3,3,3h9h15.4h39.8c1.7,0,3-1.3,3-3
			C249.7,886.2,248.3,884.8,246.7,884.8z"/>
		<path class="st7" d="M371.9,945.9h-39.8h-15.4h-9c-1.7,0-3,1.3-3,3c0,1.7,1.3,3,3,3h9h15.4h39.8c1.7,0,3-1.3,3-3
			C374.9,947.3,373.5,945.9,371.9,945.9z"/>
		<path class="st7" d="M91.4,861.6H51.6H36.2h-9c-1.7,0-3,1.3-3,3c0,1.7,1.3,3,3,3h9h15.4h39.8c1.7,0,3-1.3,3-3
			C94.4,863,93.1,861.6,91.4,861.6z"/>
		<path class="st7" d="M155.7,838.6h-39.8h-15.4h-9c-1.7,0-3,1.3-3,3c0,1.7,1.3,3,3,3h9h15.4h39.8c1.7,0,3-1.3,3-3
			C158.7,840,157.4,838.6,155.7,838.6z"/>
		<path class="st7" d="M400.8,925.3H361h-15.4h-9c-1.7,0-3,1.3-3,3c0,1.7,1.3,3,3,3h9H361h39.8c1.7,0,3-1.3,3-3
			C403.8,926.7,402.4,925.3,400.8,925.3z"/>
		<path class="st2" d="M373.1,817.5h-39.8H318h-9c-1.7,0-3,1.3-3,3c0,1.7,1.3,3,3,3h9h15.4h39.8c1.7,0,3-1.3,3-3
			C376.1,818.9,374.8,817.5,373.1,817.5z"/>
		<path class="st2" d="M363,811.5h-39.8h-15.4h-9c-1.7,0-3,1.3-3,3c0,1.7,1.3,3,3,3h9h15.4H363c1.7,0,3-1.3,3-3
			C366.1,812.9,364.7,811.5,363,811.5z"/>
		<rect x="-257.4" y="811.1" class="st3" width="1022.9" height="0.8"/>
		<path class="st8" d="M378.4,823.6h-7.1h-7.6h-25.3h-32.6h-25.3h-7.6h-7.1c-2.7,0-5,2.2-5,5c0,2.7,2.2,5,5,5h7.1h7.6h25.3h32.6
			h25.3h7.6h7.1c2.7,0,5-2.2,5-5C383.4,825.8,381.2,823.6,378.4,823.6z"/>
		<path class="st7" d="M692.3,833.7h-12.7v-0.3h-197h-76h-44.5c-8.2,0-14.9,6.7-14.9,14.9c0,8.2,6.7,14.9,14.9,14.9h12.7v0.3h197h76
			h44.5c8.2,0,14.9-6.7,14.9-14.9C707.3,840.4,700.6,833.7,692.3,833.7z"/>
		<path class="st7" d="M596.3,864.1H572h-41.5H423.2v0.2h-7.1h-24.3c-4.5,0-8.1,3.6-8.1,8.1c0,4.5,3.6,8.1,8.1,8.1h24.3h41.5h107.4
			v-0.2h7.1h24.3c4.5,0,8.1-3.6,8.1-8.1C604.4,867.8,600.8,864.1,596.3,864.1z"/>
		<path class="st7" d="M673.6,880.6h-30.8h-6.9h-45.7h-90.6h-45.7H447h-30.8c-5.7,0-10.3,4.6-10.3,10.3c0,5.7,4.6,10.3,10.3,10.3
			H447h6.9h45.7h90.6h45.7h6.9h30.8c5.7,0,10.3-4.6,10.3-10.3C683.9,885.2,679.3,880.6,673.6,880.6z"/>
		<path class="st7" d="M738.8,901.4H708h-52.6h-53.2v0H465.9h-52.6h-30.8c-5.7,0-10.3,4.6-10.3,10.3c0,5.7,4.6,10.3,10.3,10.3h30.8
			h52.6h53.2v0h136.3H708h30.8c5.7,0,10.3-4.6,10.3-10.3C749.1,906,744.5,901.4,738.8,901.4z"/>
		<path class="st7" d="M669.4,922h-30.8h-2.8H586h-86.5h-49.8H447h-30.8c-5.7,0-10.3,4.6-10.3,10.3c0,5.7,4.6,10.3,10.3,10.3H447
			h2.8h49.8H586h49.8h2.8h30.8c5.7,0,10.3-4.6,10.3-10.3C679.8,926.6,675.1,922,669.4,922z"/>
		<path class="st7" d="M696.9,942.6h-30.8h-52.6H477.3v0h-25.1c-5.7,0-10.3,4.6-10.3,10.3c0,5.7,4.6,10.3,10.3,10.3h30.8h52.6h136.3
			v0h25.1c5.7,0,10.3-4.6,10.3-10.3C707.3,947.2,702.6,942.6,696.9,942.6z"/>
		<g>
			<g>
				<path class="st3" d="M1146.2,703.8h-277c3.7-1.6,6.2-5.2,6.2-9.4c0-5.6-4.6-10.2-10.2-10.2H655.4c-5.6,0-10.2,4.6-10.2,10.2
					c0,4.2,2.6,7.8,6.2,9.4h-25.9c-14,0-25.3,11.3-25.3,25.3c0,14,11.3,25.3,25.3,25.3h-62.9c-8.3,0-15,6.7-15,15
					c0,7.8,5.9,14.1,13.5,14.9h-70.8c-0.1,0-0.3-0.1-0.4-0.1c-0.1,0.1-0.3,0.1-0.4,0.1h-10v1.3l-1.2-1.1h-17.8c-8.3,0-15,6.7-15,15
					s6.7,15,15,15h48.9l-18.2-17.6h77.7v-7.1l209.8,20.8c3.1-2.7,5-6.7,5-11.1c0-8.3-6.7-15-15-15h102.2c8.3,0,15-6.7,15-15
					s-6.7-15-15-15h275.4c14,0,25.3-11.3,25.3-25.3C1171.6,715.1,1160.2,703.8,1146.2,703.8z"/>
			</g>
			<g>
				<path class="st9" d="M490.7,778.8h-10.2c-1.3,0-2.3,1-2.3,2.3c0,1.3,1,2.3,2.3,2.3h10.2c1.3,0,2.3-1,2.3-2.3
					C492.9,779.8,491.9,778.8,490.7,778.8z"/>
				<path class="st9" d="M519.4,782h-1.1v-8c0-1.3-1-2.3-2.3-2.3c-1.3,0-2.3,1-2.3,2.3v10.2c0,1.3,1,2.3,2.3,2.3h3.3
					c1.2,0,2.2-1,2.2-2.2C521.6,783,520.6,782,519.4,782z"/>
				<linearGradient id="SVGID_5_" gradientUnits="userSpaceOnUse" x1="808.9409" y1="686.0063" x2="808.9409" y2="862.0541">
					<stop  offset="0" style="stop-color:#2F328F"/>
					<stop  offset="1" style="stop-color:#300B30"/>
				</linearGradient>
				<path class="st10" d="M1146.7,705.6h-277c3.7-1.6,6.2-5.2,6.2-9.4c0-5.6-4.6-10.2-10.2-10.2H655.8c-5.6,0-10.2,4.6-10.2,10.2
					c0,4.2,2.6,7.8,6.2,9.4h-25.9c-14,0-25.3,11.3-25.3,25.3c0,14,11.3,25.3,25.3,25.3h-62.9c-8.3,0-15,6.7-15,15
					c0,8.3,6.7,15,15,15h-47.9c1.9-0.5,3.3-2.2,3.3-4.3c0-0.1,0-0.2,0-0.3v-21.1c0.4-0.3,0.7-0.7,0.9-1.1h2.7v0
					c0.2,0,0.3-0.1,0.3-0.3c0-0.2-0.1-0.3-0.3-0.3v0h-2.5c0-0.1,0.1-0.3,0.1-0.4h2.4v0c0.2,0,0.3-0.1,0.3-0.3c0-0.2-0.1-0.3-0.3-0.3
					v0h-2.4c0-0.1,0-0.3-0.1-0.4h2.5v0c0.2,0,0.3-0.1,0.3-0.3c0-0.2-0.1-0.3-0.3-0.3v0h-2.7c-0.2-0.5-0.6-0.9-1.1-1.2
					c-0.8-4.9-5.1-8.7-10.3-8.7c-5.8,0-10.5,4.7-10.5,10.5v18.5h-5c-2.8,0-5.1,2.3-5.1,5.1c0,0.2,0,0.3,0,0.5H479
					c-1.3,0-2.3,1-2.3,2.3c0,1.2,0.9,2.1,2,2.2h-17.8c-8.3,0-15,6.7-15,15c0,8.3,6.7,15,15,15h48.9c-8.3,0-15,6.7-15,15
					c0,8.3,6.7,15,15,15h50.7v1.4c-3.7,0.3-6.6,3.4-6.6,7.2c0,4,3.2,7.2,7.2,7.2h69.9h78.8h131c5.6,0,10.2-4.6,10.2-10.2
					c0-5.6-4.6-10.2-10.2-10.2h-12.1c2.6-2.7,4.2-6.3,4.2-10.4c0-8.3-6.7-15-15-15h-48.9c8.3,0,15-6.7,15-15c0-8.3-6.7-15-15-15
					h102.2c8.3,0,15-6.7,15-15c0-8.3-6.7-15-15-15h275.4c14,0,25.3-11.3,25.3-25.3C1172,717,1160.7,705.6,1146.7,705.6z M490.4,786
					c0.3,0.1,0.6,0.2,0.9,0.3h-1.7C489.8,786.2,490.1,786.2,490.4,786z"/>
			</g>
		</g>
		<path class="st3" d="M337.1,876.8H171.7c1.3-1.2,2.1-3,2.1-4.9c0-3.8-3-6.8-6.8-6.8h-7.2V805c4.5-4,7.4-9.8,7.4-16.4v-32h15.2
			c0.2,0,0.3,0,0.4,0c0.1,0,0.3,0,0.4,0c2.6,0,4.7-2.1,4.7-4.7v-27.4v-2.3v-5.8c0-2.6-2.1-4.7-4.7-4.7c-0.2,0-0.4,0-0.6,0.1
			c-1.1-1.7-2.9-2.8-5.1-2.8h-8.5c-3.3,0-6,2.7-6,6c0,0.8,0.2,1.5,0.4,2.1l-8.6,15.1c-1.2-0.6-2.4-1-3.7-1.4v-3.1c0-0.1,0-0.2,0-0.3
			c5.9-2.3,10.1-8,10.1-14.7v-16.5c0-1.9-0.4-3.6-1-5.3h1.8c2.9,0,5.2-2.3,5.2-5.2s-2.3-5.2-5.2-5.2h-11.3c-0.7,0-1.3,0.1-1.9,0.4
			c-1.1-0.2-2.2-0.4-3.3-0.4c-8.7,0-15.8,7.1-15.8,15.8v16.5c0,6.9,4.5,12.7,10.7,14.9c0,0.1,0,0.1,0,0.2v2.9
			c-9.6,2.3-16.7,10.9-16.7,21.2v36.7c0,6.6,3,12.5,7.6,16.5V872c0,1.8,0.7,3.5,1.9,4.8h-258.9c0,0,0.1,0,0.1,0c-1.3,0-2.6,0-3.9,0
			c0,0,0.1,0,0.1,0h-10.4c-0.6,0.2-1.2,0.3-1.9,0.3c-0.7,0-1.3-0.1-2-0.3H-490v119.6h827.1c33.1,0,59.8-26.8,59.8-59.8
			C397,903.6,370.2,876.8,337.1,876.8z M171.8,721.1h5.8c0.3,0,0.7,0,1-0.1v2.5v1v20.9h-12.4c-0.9-2.8-2.3-5.3-4.1-7.4L171.8,721.1z
			"/>
		<g>
			<path class="st11" d="M140.5,880.8c2.4,0.1,5.1,0.1,8.2,0.2c-0.1,0-0.3-0.1-0.4-0.2H140.5z"/>
			<path class="st11" d="M152.5,880.9c2.9,0,6-0.1,9.4-0.2h-8.8C152.9,880.8,152.7,880.9,152.5,880.9z"/>
			<path class="st11" d="M138.9,880.8c-0.2,0.1-0.4,0.1-0.6,0.2h10.4c0,0-0.1,0-0.1,0c-3.1,0-5.8-0.1-8.2-0.2H138.9z"/>
			<path class="st12" d="M138.9,880.8h1.6c-3.1-0.1-5.5-0.2-7.3-0.3c0.4,0.2,0.9,0.4,1.3,0.5h3.8
				C138.5,880.9,138.7,880.8,138.9,880.8z"/>
			<g>
				<path class="st12" d="M175.6,711.1h-8.5c-3.3,0-6,2.7-6,6c0,0.8,0.2,1.5,0.4,2.1l-16.8,29.5c-1.3,2.2-0.5,5,1.7,6.2
					c2.2,1.3,5,0.5,6.2-1.7l17.2-30.1h5.8c3.3,0,6-2.7,6-6S179,711.1,175.6,711.1z"/>
				<path class="st12" d="M148.2,880.8c-2.8-1-4.8-3.6-4.8-6.7v-61.6c-5.4,0-10.4-2-14.2-5.3V874c0,2.8,1.6,5.2,3.9,6.4
					c1.8,0.1,4.3,0.2,7.3,0.3H148.2z"/>
				<linearGradient id="SVGID_6_" gradientUnits="userSpaceOnUse" x1="153.8491" y1="682.5411" x2="153.8491" y2="1000.5699">
					<stop  offset="0" style="stop-color:#2F328F"/>
					<stop  offset="1" style="stop-color:#300B30"/>
				</linearGradient>
				<path class="st13" d="M136.4,792.9c4,0,7.2,3.2,7.2,7.2v67.1h7.2c3.8,0,6.8,3,6.8,6.8s-3,6.8-6.8,6.8h-2.6
					c0.1,0.1,0.3,0.1,0.4,0.2c1.2,0,2.5,0,3.9,0c0.2,0,0.4-0.1,0.6-0.2h8.8c1.5,0,3-0.1,4.5-0.2c3.1-0.7,5.3-3.4,5.3-6.6
					c0-3.8-3-6.8-6.8-6.8h-7.2V807c4.5-4,7.4-9.8,7.4-16.4v-32h15.2c0.2,0,0.3,0,0.4,0c0.1,0,0.3,0,0.4,0c2.6,0,4.7-2.1,4.7-4.7
					v-27.4v-2.3v-5.8c0-2.6-2.1-4.7-4.7-4.7c-2.6,0-4.7,2.1-4.7,4.7v7.1v1v20.9h-12.4c-2.2-7.1-7.9-12.6-15-14.5v-3.1
					c0-0.1,0-0.2,0-0.3c5.9-2.3,10.1-8,10.1-14.7v-16.5c0-1.9-0.4-3.6-1-5.3h1.8c2.9,0,5.2-2.3,5.2-5.2c0-2.9-2.3-5.2-5.2-5.2h-11.3
					c-0.7,0-1.3,0.1-1.9,0.4c-1.1-0.2-2.2-0.4-3.3-0.4c-8.7,0-15.8,7.1-15.8,15.8v16.5c0,6.9,4.5,12.7,10.7,14.9c0,0.1,0,0.1,0,0.2
					v2.9c-9.6,2.3-16.7,10.9-16.7,21.2v36.7c0,6.6,3,12.5,7.6,16.5v-7.1C129.3,796.2,132.5,792.9,136.4,792.9z"/>
			</g>
			<linearGradient id="SVGID_7_" gradientUnits="userSpaceOnUse" x1="164.2084" y1="682.5411" x2="164.2084" y2="1000.5699">
				<stop  offset="0" style="stop-color:#2F328F"/>
				<stop  offset="1" style="stop-color:#300B30"/>
			</linearGradient>
			<path class="st14" d="M165,880.8c0.5,0,1-0.1,1.4-0.2c-1.5,0.1-3.1,0.1-4.5,0.2H165z"/>
			<path class="st12" d="M138.3,881h-3.8c0.6,0.2,1.3,0.3,2,0.3C137.1,881.2,137.7,881.1,138.3,881z"/>
			<linearGradient id="SVGID_8_" gradientUnits="userSpaceOnUse" x1="136.4204" y1="682.5411" x2="136.4204" y2="1000.5699">
				<stop  offset="0" style="stop-color:#2F328F"/>
				<stop  offset="1" style="stop-color:#300B30"/>
			</linearGradient>
			<path class="st15" d="M138.3,881h-3.8c0.6,0.2,1.3,0.3,2,0.3C137.1,881.2,137.7,881.1,138.3,881z"/>
			<path class="st12" d="M143.4,874c0,3.1,2,5.7,4.8,6.7h2.6c3.8,0,6.8-3,6.8-6.8s-3-6.8-6.8-6.8h-7.2v-67.1c0-4-3.2-7.2-7.2-7.2
				c-4,0-7.2,3.2-7.2,7.2v7.1c3.8,3.3,8.8,5.3,14.2,5.3V874z"/>
			<linearGradient id="SVGID_9_" gradientUnits="userSpaceOnUse" x1="143.4489" y1="682.5411" x2="143.4489" y2="1000.5699">
				<stop  offset="0" style="stop-color:#2F328F"/>
				<stop  offset="1" style="stop-color:#300B30"/>
			</linearGradient>
			<path class="st16" d="M143.4,874c0,3.1,2,5.7,4.8,6.7h2.6c3.8,0,6.8-3,6.8-6.8s-3-6.8-6.8-6.8h-7.2v-67.1c0-4-3.2-7.2-7.2-7.2
				c-4,0-7.2,3.2-7.2,7.2v7.1c3.8,3.3,8.8,5.3,14.2,5.3V874z"/>
		</g>
		<linearGradient id="SVGID_10_" gradientUnits="userSpaceOnUse" x1="-46.52" y1="681.4274" x2="-46.52" y2="999.4562">
			<stop  offset="0" style="stop-color:#2F328F"/>
			<stop  offset="1" style="stop-color:#300B30"/>
		</linearGradient>
		<path class="st17" d="M337.1,879.8h-462.9c0,0,0.1,0,0.1,0c-1.3,0-2.6,0-3.9,0c0,0,0.1,0,0.1,0h-10.4c-0.6,0.2-1.2,0.3-1.9,0.3
			c-0.7,0-1.3-0.1-2-0.3H-490v119.6h827.1c33.1,0,59.8-26.8,59.8-59.8C397,906.6,370.2,879.8,337.1,879.8z"/>
	</g>
</g>
</svg>
