<?xml version="1.0" encoding="utf-8"?>
<!-- Generator: Adobe Illustrator 22.0.1, SVG Export Plug-In . SVG Version: 6.00 Build 0)  -->
<svg version="1.1" id="Layer_1" xmlns="http://www.w3.org/2000/svg" xmlns:xlink="http://www.w3.org/1999/xlink" x="0px" y="0px"
	 viewBox="0 0 1920 192" style="enable-background:new 0 0 1920 192;" xml:space="preserve">
<style type="text/css">
	.st0{opacity:0.2;fill:#FFFFFF;}
	.st1{fill:#FFFFFF;}
	.st2{fill:url(#SVGID_1_);}
	.st3{opacity:0.1;fill:#FFFFFF;enable-background:new    ;}
	.st4{opacity:0.2;fill:#FFFFFF;enable-background:new    ;}
	.st5{opacity:0.3;fill:#FFFFFF;enable-background:new    ;}
	.st6{opacity:0.2;fill:#242A4C;enable-background:new    ;}
	.st7{opacity:0.4;fill:#FFFFFF;enable-background:new    ;}
	.st8{fill:#34234B;}
	.st9{fill:url(#SVGID_2_);}
	.st10{fill:none;}
	.st11{fill:#2A1C3E;}
	.st12{fill:url(#SVGID_3_);}
	.st13{fill:url(#SVGID_4_);}
	.st14{fill:url(#SVGID_5_);}
	.st15{fill:url(#SVGID_6_);}
</style>
<g>
	<path class="st0" d="M574.7,29.8c0,3.1-2.5,5.6-5.5,5.6c-3.1,0-5.6-2.5-5.6-5.5c0-3.1,2.5-5.6,5.5-5.6
		C572.2,24.2,574.7,26.7,574.7,29.8z"/>
	<path class="st0" d="M573.2,29.8c0,2.2-1.8,4-4,4c-2.2,0-4-1.8-4-4c0-2.2,1.8-4,4-4C571.4,25.8,573.2,27.6,573.2,29.8z"/>
	<path class="st0" d="M572.1,29.8c0,1.6-1.3,2.9-2.9,2.9c-1.6,0-2.9-1.3-2.9-2.9c0-1.6,1.3-2.9,2.9-2.9
		C570.8,26.9,572.1,28.2,572.1,29.8z"/>
	<path class="st1" d="M570.9,29.8c0,1-0.8,1.8-1.8,1.8c-1,0-1.8-0.8-1.8-1.8c0-1,0.8-1.8,1.8-1.8C570.1,28,570.9,28.8,570.9,29.8z"
		/>
</g>
<g id="Layer_1_1_">
</g>
<g id="ceu">
</g>
<g id="mar">
	<g>
		
			<linearGradient id="SVGID_1_" gradientUnits="userSpaceOnUse" x1="961" y1="109.5323" x2="961" y2="-4.2677" gradientTransform="matrix(1 0 0 -1 0 189.7323)">
			<stop  offset="0" style="stop-color:#00B3BC"/>
			<stop  offset="0" style="stop-color:#00B3BC"/>
			<stop  offset="0.1183" style="stop-color:#05AAB8"/>
			<stop  offset="0.3093" style="stop-color:#1192AC"/>
			<stop  offset="0.5493" style="stop-color:#256C99"/>
			<stop  offset="0.8226" style="stop-color:#40377F"/>
		</linearGradient>
		<rect x="-4" y="80.2" class="st2" width="1930" height="113.8"/>
		<path class="st3" d="M951.8,93.1h-45.5h-17.6h-10.3c-1.9,0-3.4,1.5-3.4,3.4s1.5,3.4,3.4,3.4h10.3h17.6h45.5c1.9,0,3.4-1.5,3.4-3.4
			S953.7,93.1,951.8,93.1z"/>
		<path class="st3" d="M923.4,103.9h-45.5h-17.6H850c-1.9,0-3.4,1.5-3.4,3.4s1.5,3.4,3.4,3.4h10.3h17.6h45.5c1.9,0,3.4-1.5,3.4-3.4
			C926.8,105.4,925.3,103.9,923.4,103.9z"/>
		<path class="st4" d="M945.6,112.8h-45.5h-17.6h-10.3c-1.9,0-3.4,1.5-3.4,3.4s1.5,3.4,3.4,3.4h11.3h17.6h44.5
			c1.9,0,3.4-1.5,3.4-3.4C949.1,114.4,947.5,112.8,945.6,112.8z"/>
		<path class="st5" d="M924.5,135.5h-55.7h-21.5h-12.6c-2.3,0-4.2,1.9-4.2,4.2s1.9,4.2,4.2,4.2h12.6h21.5h55.7
			c2.3,0,4.2-1.9,4.2-4.2S926.8,135.5,924.5,135.5z"/>
		<path class="st3" d="M772,101h-23.9h-9.2h-5.4c-1,0-1.8,0.8-1.8,1.8s0.8,1.8,1.8,1.8h5.4h10.2H773c0,0,0.8-0.8,0.8-1.8
			S773,101,772,101z"/>
		<path class="st3" d="M718.6,119.4h-33.3h-12.9h-7.5c-1.4,0-2.5,1.1-2.5,2.5s1.1,2.5,2.5,2.5h7.5h12.9h33.3c1.4,0,2.5-1.1,2.5-2.5
			C721.1,120.6,720,119.4,718.6,119.4z"/>
		<path class="st3" d="M893.2,124.2h-23.9H860h-5.4c-1,0-1.8,0.8-1.8,1.8s0.8,1.8,1.8,1.8h5.4h10.2h23.9c0,0,0.8-0.8,0.8-1.8
			C895,125,894.2,124.2,893.2,124.2z"/>
		<path class="st6" d="M968.3,160.9h-23.9h-9.2h-5.4c-1,0-1.8,0.8-1.8,1.8s0.8,1.8,1.8,1.8h5.4h9.2h23.9c1,0,1.8-0.8,1.8-1.8
			S969.3,160.9,968.3,160.9z"/>
		<path class="st6" d="M800.9,110.3H777h-9.2h-5.4c-1,0-1.8,0.8-1.8,1.8s0.8,1.8,1.8,1.8h5.4h9.2h23.9c1,0,1.8-0.8,1.8-1.8
			C802.8,111.1,801.9,110.3,800.9,110.3z"/>
		<path class="st6" d="M839.5,96.5h-23.9h-9.2H801c-1,0-1.8,0.8-1.8,1.8s0.8,1.8,1.8,1.8h5.4h9.2h23.9c1,0,1.8-0.8,1.8-1.8
			C841.3,97.3,840.5,96.5,839.5,96.5z"/>
		<path class="st6" d="M730.8,91.4h-23.9h-9.2h-5.4c-1,0-1.8,0.8-1.8,1.8s0.8,1.8,1.8,1.8h5.4h9.2h23.9c1,0,1.8-0.8,1.8-1.8
			C732.6,92.2,731.7,91.4,730.8,91.4z"/>
		<path class="st3" d="M1094.2,105h-23.9h-9.2h-5.4c-1,0-1.8,0.8-1.8,1.8s0.8,1.8,1.8,1.8h5.4h9.2h23.9c1,0,1.8-0.8,1.8-1.8
			S1095.2,105,1094.2,105z"/>
		<path class="st3" d="M1039.7,123.4h-33.3h-12.9H986c-1.4,0-2.5,1.1-2.5,2.5s1.1,2.5,2.5,2.5h7.5h12.9h33.3c1.4,0,2.5-1.1,2.5-2.5
			C1042.3,124.6,1041.1,123.4,1039.7,123.4z"/>
		<path class="st3" d="M746.6,139.4h-33.3h-12.9h-7.5c-1.4,0-2.5,1.1-2.5,2.5s1.1,2.5,2.5,2.5h7.5h13.9h33.3c0.4,0,1.5-1.1,1.5-2.5
			C749.1,140.6,748,139.4,746.6,139.4z"/>
		<path class="st3" d="M1182.8,142.4h-33.3h-12.9h-7.5c-1.4,0-2.5,1.1-2.5,2.5s1.1,2.5,2.5,2.5h7.5h12.9h33.3c1.4,0,2.5-1.1,2.5-2.5
			C1185.3,143.6,1184.2,142.4,1182.8,142.4z"/>
		<path class="st3" d="M1125.8,128.4h-33.3h-12.9h-7.5c-1.4,0-2.5,1.1-2.5,2.5s1.1,2.5,2.5,2.5h7.5h12.9h33.3c1.4,0,2.5-1.1,2.5-2.5
			C1128.3,129.6,1127.2,128.4,1125.8,128.4z"/>
		<path class="st6" d="M1122.1,114.3h-23.9h-9.2h-5.4c-1,0-1.8,0.8-1.8,1.8s0.8,1.8,1.8,1.8h5.4h9.2h23.9c1,0,1.8-0.8,1.8-1.8
			C1123.9,115.1,1123.1,114.3,1122.1,114.3z"/>
		<path class="st6" d="M1160.7,100.5h-23.9h-9.2h-5.4c-1,0-1.8,0.8-1.8,1.8s0.8,1.8,1.8,1.8h5.4h9.2h23.9c1,0,1.8-0.8,1.8-1.8
			S1161.7,100.5,1160.7,100.5z"/>
		<path class="st6" d="M1051.9,95.4H1028h-9.2h-5.4c-1,0-1.8,0.8-1.8,1.8s0.8,1.8,1.8,1.8h5.4h9.2h23.9c1,0,1.8-0.8,1.8-1.8
			C1053.7,96.2,1052.9,95.4,1051.9,95.4z"/>
		<path class="st6" d="M985.7,148.5h-23.9h-9.2h-5.4c-1,0-1.8,0.8-1.8,1.8s0.8,1.8,1.8,1.8h5.4h9.2h23.9c1,0,1.8-0.8,1.8-1.8
			S986.7,148.5,985.7,148.5z"/>
		<path class="st6" d="M817.6,153.5h-23.9h-9.2h-5.4c-1,0-1.8,0.8-1.8,1.8s0.8,1.8,1.8,1.8h5.4h10.2h23.9c0,0,0.8-0.8,0.8-1.8
			C819.4,154.3,818.6,153.5,817.6,153.5z"/>
		<path class="st6" d="M772.6,131.5h-23.9h-9.2H734c-1,0-1.8,0.8-1.8,1.8s0.8,1.8,1.8,1.8h5.4h10.2h23.9c0,0,0.8-0.8,0.8-1.8
			C774.4,132.3,773.6,131.5,772.6,131.5z"/>
		<path class="st6" d="M1060.7,150.5h-23.9h-9.2h-5.4c-1,0-1.8,0.8-1.8,1.8s0.8,1.8,1.8,1.8h5.4h9.2h23.9c1,0,1.8-0.8,1.8-1.8
			S1061.7,150.5,1060.7,150.5z"/>
		<path class="st3" d="M969.1,83.8h-23.9H936h-5.4c-1,0-1.8,0.8-1.8,1.8s0.8,1.8,1.8,1.8h5.4h9.2h23.9c1,0,1.8-0.8,1.8-1.8
			C970.9,84.6,970.1,83.8,969.1,83.8z"/>
		<path class="st3" d="M963,80.2h-23.9h-9.2h-5.4c-1,0-1.8,0.8-1.8,1.8s0.8,1.8,1.8,1.8h5.4h9.2H963c1,0,1.8-0.8,1.8-1.8
			S964,80.2,963,80.2z"/>
		<polygon class="st1" points="1926,80.4 -4,80.4 -5,80 1925,80 		"/>
		<path class="st7" d="M973.3,87.4H969h-4.6h-15.2h-19.5h-15.2h-4.6h-4.3c-1.6,0-3,1.3-3,3c0,1.6,1.3,3,3,3h4.3h4.6h15.2h19.5h15.2
			h4.6h4.3c1.6,0,3-1.3,3-3C976.2,88.8,974.9,87.4,973.3,87.4z"/>
		<path class="st6" d="M1427.9,93.6h-7.6v-0.2H1302h-45.6h-26.7c-4.9,0-9,4-9,8.9s4,8.9,9,8.9h7.6v0.2h118.3h45.6h26.7
			c4.9,0,9-4,9-8.9C1436.8,97.6,1432.8,93.6,1427.9,93.6z"/>
		<path class="st6" d="M1370.2,111.8h-14.6h-24.9h-64.5v0.1h-4.3h-14.6c-2.7,0-4.9,2.2-4.9,4.9c0,2.7,2.2,4.9,4.9,4.9h14.6h24.9
			h64.5v-0.1h4.3h14.6c2.7,0,4.9-2.2,4.9-4.9S1372.9,111.8,1370.2,111.8z"/>
		<path class="st6" d="M1416.6,121.7h-18.5h-4.2h-27.4h-54.4h-27.4h-4.2H1262c-3.4,0-6.2,2.8-6.2,6.2s2.8,6.2,6.2,6.2h18.5h4.2h27.4
			h54.4h27.4h4.2h18.5c3.4,0,6.2-2.8,6.2-6.2C1422.8,124.4,1420,121.7,1416.6,121.7z"/>
		<path class="st6" d="M1455.8,134.1h-18.5h-31.6h-32l0,0h-81.8h-31.6h-18.5c-3.4,0-6.2,2.8-6.2,6.2s2.8,6.2,6.2,6.2h18.5h31.6h32
			l0,0h81.8h31.6h18.5c3.4,0,6.2-2.8,6.2-6.2S1459.2,134.1,1455.8,134.1z"/>
		<path class="st6" d="M1414.1,146.5h-18.5h-1.7H1364h-51.9h-29.9h-1.7H1262c-3.4,0-6.2,2.8-6.2,6.2s2.8,6.2,6.2,6.2h18.5h1.7h29.9
			h51.9h29.9h1.7h18.5c3.4,0,6.2-2.8,6.2-6.2C1420.3,149.3,1417.5,146.5,1414.1,146.5z"/>
		<path class="st6" d="M1430.6,158.9h-18.5h-31.6h-81.8l0,0h-15.1c-3.4,0-6.2,2.8-6.2,6.2s2.8,6.2,6.2,6.2h18.5h31.6h81.8l0,0h15.1
			c3.4,0,6.2-2.8,6.2-6.2C1436.8,161.7,1434.1,158.9,1430.6,158.9z"/>
	</g>
</g>
<g id="terra">
	<g>
		<g>
			<path class="st1" d="M1505.1,82l-23.4-2.3c-1.6,1.4-3.7,2.3-6,2.3H1505.1z"/>
			<path class="st1" d="M1702.4,15.6h-166.3c2.2-0.9,403.9-3.1,403.9-5.6c0-3.4-2.7-6.1-6.1-6.1h-526.2c-3.4,0-6.1,2.7-6.1,6.1
				c0,2.5,1.5,4.7,3.7,5.6h-15.5c-8.4,0-15.2,6.8-15.2,15.2s6.8,15.2,15.2,15.2H1352c-5,0-9,4-9,9c0,4.7,3.6,8.5,8.1,8.9h-42.5
				c-0.1,0-0.2-0.1-0.3-0.1c-0.1,0-0.2,0.1-0.3,0.1h-6v0.8l-0.7-0.7h-10.7c-5,0-9,4-9,9s4,9,9,9h29.3L1309,71.5h46.6v-4.2l126,12.5
				c1.8-1.6,3-4,3-6.7c0-5-4-9-9-9h61.4c5,0,9-4,9-9s-4-9-9-9h165.3c8.4,0,15.2-6.8,15.2-15.2C1717.6,22.4,1710.8,15.6,1702.4,15.6z
				"/>
		</g>
		<g>
			<path class="st8" d="M1308.8,60.6h-6.1c-0.8,0-1.4,0.6-1.4,1.4s0.6,1.4,1.4,1.4h6.1c0.8,0,1.4-0.6,1.4-1.4
				S1309.5,60.6,1308.8,60.6z"/>
			<path class="st8" d="M1326,62.5h-0.6v-4.8c0-0.8-0.6-1.4-1.4-1.4s-1.4,0.6-1.4,1.4v6.1c0,0.8,0.6,1.4,1.4,1.4h2
				c0.7,0,1.3-0.6,1.3-1.3C1327.4,63.1,1326.8,62.5,1326,62.5z"/>
			
				<linearGradient id="SVGID_2_" gradientUnits="userSpaceOnUse" x1="1616.7502" y1="184.8323" x2="1616.7502" y2="79.2322" gradientTransform="matrix(1 0 0 -1 0 189.7323)">
				<stop  offset="0" style="stop-color:#2F328F"/>
				<stop  offset="1" style="stop-color:#300B30"/>
			</linearGradient>
			<path class="st9" d="M1939,4.9h-531c-3.4,0-6.1,2.7-6.1,6.1c0,2.5,1.5,4.7,3.7,5.6H1390c-8.4,0-15.2,6.8-15.2,15.2
				S1381.6,47,1390,47h-37.7c-5,0-9,4-9,9s4,9,9,9h-28.8c1.1-0.3,2-1.3,2-2.6c0-0.1,0-0.1,0-0.2V49.7c0.2-0.2,0.4-0.4,0.6-0.7h1.6
				l0,0c0.1,0,0.2-0.1,0.2-0.2c0-0.1-0.1-0.2-0.2-0.2l0,0h-1.5c0-0.1,0-0.2,0-0.2h1.5l0,0c0.1,0,0.2-0.1,0.2-0.2
				c0-0.1-0.1-0.2-0.2-0.2l0,0h-1.5c0-0.1,0-0.2,0-0.2h1.5l0,0c0.1,0,0.2-0.1,0.2-0.2c0-0.1-0.1-0.2-0.2-0.2l0,0h-1.6
				c-0.1-0.3-0.4-0.5-0.7-0.7c-0.5-3-3.1-5.2-6.2-5.2c-3.5,0-6.3,2.8-6.3,6.3V59h-3c-1.7,0-3.1,1.4-3.1,3.1c0,0.1,0,0.2,0,0.3h-5
				c-0.8,0-1.4,0.6-1.4,1.4c0,0.7,0.5,1.2,1.2,1.3h-10.7c-5,0-9,4-9,9s4,9,9,9h29.3c-5,0-9,4-9,9s4,9,9,9h30.5v0.8
				c-2.2,0.2-4,2-4,4.3c0,2.4,1.9,4.3,4.3,4.3h42h47.3H1951C1954.4,110.6,1942.4,4.9,1939,4.9z M1308.6,64.9
				c0.2,0.1,0.3,0.1,0.5,0.2h-1C1308.3,65.1,1308.5,65,1308.6,64.9z"/>
		</g>
	</g>
	<g>
		<path class="st1" d="M649,110.1h-83.5c0.6-0.6,1.1-1.5,1.1-2.5c0-1.9-1.5-3.4-3.4-3.4h-3.6V73.9c2.3-2,3.7-5,3.7-8.3V49.5h7.7
			c0.1,0,0.1,0,0.2,0c0.1,0,0.1,0,0.2,0c1.3,0,2.4-1.1,2.4-2.4V33.3v-1.2v-2.9c0-1.3-1.1-2.4-2.4-2.4c-0.1,0-0.2,0-0.3,0
			c-0.5-0.8-1.5-1.4-2.6-1.4h-4.3c-1.7,0-3,1.4-3,3c0,0.4,0.1,0.7,0.2,1.1l-4.3,7.6c-0.6-0.3-1.2-0.5-1.9-0.7v-1.5
			c0-0.1,0-0.1,0-0.2c3-1.2,5.1-4,5.1-7.4V19c0-0.9-0.2-1.8-0.5-2.7h0.9c1.5,0,2.6-1.2,2.6-2.6s-1.2-2.6-2.6-2.6H555
			c-0.3,0-0.7,0.1-1,0.2c-0.5-0.1-1.1-0.2-1.7-0.2c-4.4,0-8,3.6-8,8v8.4c0,3.5,2.3,6.4,5.4,7.5v0.1v1.5c-4.8,1.2-8.4,5.5-8.4,10.7
			v18.5c0,3.3,1.5,6.3,3.8,8.3v33.7c0,0.9,0.4,1.8,0.9,2.4H415.3c0,0,0,0,0.1,0c-0.7,0-1.3,0-2,0l0,0h-5.3c-0.3,0.1-0.6,0.1-1,0.1
			c-0.3,0-0.7-0.1,0-0.1h-412l-1,60.4H649c16.7,0,30.2-13.5,30.2-30.2C679.2,123.6,665.7,110.1,649,110.1z M565.6,31.5h2.9
			c0.2,0,0.3,0,0.5,0v1.3v0.5v10.6h-6.3c-0.4-1.4-1.1-2.7-2-3.8L565.6,31.5z"/>
		<g>
			<path class="st10" d="M549.7,112.1c1.2,0,2.6,0.1,4.1,0.1c-0.1,0-0.1-0.1-0.2-0.1H549.7z"/>
			<path class="st10" d="M555.8,112.2c1.5,0,3.1,0,4.7-0.1H556C556,112.1,555.9,112.2,555.8,112.2z"/>
			<path class="st10" d="M548.9,112.1c-0.1,0-0.2,0.1-0.3,0.1h5.3l0,0c-1.5,0-2.9,0-4.1-0.1H548.9z"/>
			<path class="st11" d="M548.9,112.1h0.8c-1.5,0-2.8-0.1-3.7-0.2c0.2,0.1,0.4,0.2,0.7,0.3h1.9C548.7,112.2,548.8,112.1,548.9,112.1
				z"/>
			<g>
				<path class="st11" d="M567.5,26.5h-4.3c-1.7,0-3,1.4-3,3c0,0.4,0.1,0.7,0.2,1.1l-8.5,14.9c-0.6,1.1-0.2,2.5,0.9,3.2
					c1.1,0.6,2.5,0.2,3.2-0.9l8.7-15.2h2.9c1.7,0,3-1.4,3-3C570.5,27.8,569.2,26.5,567.5,26.5z"/>
				<path class="st11" d="M553.6,112.1c-1.4-0.5-2.4-1.8-2.4-3.4V77.6c-2.7,0-5.2-1-7.2-2.7v33.7c0,1.4,0.8,2.6,2,3.2
					c0.9,0.1,2.1,0.1,3.7,0.2L553.6,112.1L553.6,112.1z"/>
			</g>
			
				<linearGradient id="SVGID_3_" gradientUnits="userSpaceOnUse" x1="561.65" y1="177.6741" x2="561.65" y2="17.1645" gradientTransform="matrix(1 0 0 -1 0 189.7323)">
				<stop  offset="0" style="stop-color:#2F328F"/>
				<stop  offset="1" style="stop-color:#300B30"/>
			</linearGradient>
			<path class="st12" d="M562.1,112.1c0.3,0,0.5,0,0.7-0.1c-0.8,0-1.5,0.1-2.3,0.1H562.1z"/>
			<path class="st11" d="M548.7,112.2h-1.9c0.3,0.1,0.6,0.1,1,0.1C548,112.3,548.3,112.3,548.7,112.2z"/>
			
				<linearGradient id="SVGID_4_" gradientUnits="userSpaceOnUse" x1="547.75" y1="177.6741" x2="547.75" y2="17.1645" gradientTransform="matrix(1 0 0 -1 0 189.7323)">
				<stop  offset="0" style="stop-color:#2F328F"/>
				<stop  offset="1" style="stop-color:#300B30"/>
			</linearGradient>
			<path class="st13" d="M548.7,112.2h-1.9c0.3,0.1,0.6,0.1,1,0.1C548,112.3,548.3,112.3,548.7,112.2z"/>
			<path class="st11" d="M551.2,108.7c0,1.6,1,2.9,2.4,3.4h1.3c1.9,0,3.4-1.5,3.4-3.4s-1.5-3.4-3.4-3.4h-3.6V71.4
				c0-2-1.6-3.6-3.6-3.6s-3.6,1.6-3.6,3.6V75c1.9,1.7,4.4,2.7,7.2,2.7v31H551.2z"/>
			
				<linearGradient id="SVGID_5_" gradientUnits="userSpaceOnUse" x1="556.5001" y1="178.1074" x2="556.5001" y2="17.6618" gradientTransform="matrix(1 0 0 -1 0 189.7323)">
				<stop  offset="0" style="stop-color:#2F328F"/>
				<stop  offset="1" style="stop-color:#300B30"/>
			</linearGradient>
			<path class="st14" d="M570.4,27.8c-1.3,0-2.4,1.1-2.4,2.4v3.6v0.5v10.6h-6.3c-1.1-3.6-4-6.4-7.6-7.3v-1.5c0-0.1,0-0.1,0-0.2
				c3-1.2,5.1-4,5.1-7.4V20c0-0.9-0.2-1.8-0.5-2.7h0.9c1.5,0,2.6-1.2,2.6-2.6c0-1.5-1.2-2.6-2.6-2.6h-5.7c-0.3,0-0.7,0.1-1,0.2
				c-0.5-0.1-1.1-0.2-1.7-0.2c-4.4,0-8,3.6-8,8v8.4c0,3.5,2.3,6.4,5.4,7.5v0.1v1.5c-4.8,1.2-8.4,5.5-8.4,10.7v18.5
				c0,3.3,1.5,6.3,3.8,8.3c1.9,1.7,4.4,2.7,7.2,2.7v31.1c0,1.6,1,2.9,2.4,3.4c0.1,0,0.1,0.1,0.2,0.1c0.6,0,1.3,0,2,0
				c0.1,0,0.2,0,0.3-0.1h4.5c0.7,0,1.5,0,2.3-0.1c1.5-0.3,2.7-1.7,2.7-3.3c0-1.9-1.5-3.4-3.4-3.4h-3.6V74.9c2.3-2,3.7-5,3.7-8.3
				V50.5h7.7c0.1,0,0.1,0,0.2,0c0.1,0,0.1,0,0.2,0c1.3,0,2.4-1.1,2.4-2.4V34.3v-1.2v-2.9C572.7,28.9,571.7,27.8,570.4,27.8z"/>
		</g>
		
			<linearGradient id="SVGID_6_" gradientUnits="userSpaceOnUse" x1="337.65" y1="178.2362" x2="337.65" y2="17.7266" gradientTransform="matrix(1 0 0 -1 0 189.7323)">
			<stop  offset="0" style="stop-color:#2F328F"/>
			<stop  offset="1" style="stop-color:#300B30"/>
		</linearGradient>
		<path class="st15" d="M650,111.6H416.3c0,0,0,0,0.1,0c-0.7,0-1.3,0-2,0l0,0h-5.3c-0.3,0.1-0.6,0.1-1,0.1c-0.3,0-0.7-0.1-1-0.1
			h-412V172H650c16.7,0,30.2-13.5,30.2-30.2C680.2,125.2,666.7,111.6,650,111.6z"/>
	</g>
</g>
<g id="Layer_5">
</g>
<g id="Layer_6">
</g>
</svg>
