<?xml version="1.0" encoding="utf-8"?>
<!-- Generator: Adobe Illustrator 22.0.1, SVG Export Plug-In . SVG Version: 6.00 Build 0)  -->
<svg version="1.1" xmlns="http://www.w3.org/2000/svg" xmlns:xlink="http://www.w3.org/1999/xlink" x="0px" y="0px"
	 viewBox="0 0 1920 191.8" style="enable-background:new 0 0 1920 191.8;" xml:space="preserve">
<style type="text/css">
	.st0{clip-path:url(#SVGID_2_);}
	.st1{fill:url(#SVGID_3_);}
	.st2{opacity:0.1;fill:#FFFFFF;}
	.st3{fill:#FFFFFF;}
	.st4{fill:url(#SVGID_4_);}
	.st5{opacity:0.2;fill:#FFFFFF;}
	.st6{opacity:0.3;fill:#FFFFFF;}
	.st7{opacity:0.2;fill:#242A4C;}
	.st8{opacity:0.4;fill:#FFFFFF;}
	.st9{fill:#34234B;}
	.st10{fill:url(#SVGID_5_);}
	.st11{fill:none;}
	.st12{fill:#2A1C3E;}
	.st13{fill:url(#SVGID_6_);}
	.st14{fill:url(#SVGID_7_);}
	.st15{fill:url(#SVGID_8_);}
	.st16{fill:url(#SVGID_9_);}
	.st17{fill:url(#SVGID_10_);}
	.st18{fill:#EB1B7F;}
	.st19{fill:url(#SVGID_11_);}
	.st20{fill:url(#SVGID_12_);}
	.st21{fill:url(#SVGID_13_);}
	.st22{fill:url(#SVGID_14_);}
	.st23{fill:#2D5A96;}
	.st24{clip-path:url(#SVGID_16_);fill:url(#SVGID_17_);}
	.st25{opacity:0.1;clip-path:url(#SVGID_16_);fill:#FFFFFF;}
	.st26{clip-path:url(#SVGID_16_);fill:#FFFFFF;}
	.st27{clip-path:url(#SVGID_16_);fill:url(#SVGID_18_);}
	.st28{opacity:0.2;clip-path:url(#SVGID_16_);fill:#FFFFFF;}
	.st29{opacity:0.3;clip-path:url(#SVGID_16_);fill:#FFFFFF;}
	.st30{opacity:0.2;clip-path:url(#SVGID_16_);fill:#242A4C;}
	.st31{opacity:0.4;clip-path:url(#SVGID_16_);fill:#FFFFFF;}
	.st32{clip-path:url(#SVGID_16_);}
	.st33{fill:url(#SVGID_19_);}
	.st34{fill:url(#SVGID_20_);}
	.st35{fill:url(#SVGID_21_);}
	.st36{fill:url(#SVGID_22_);}
	.st37{fill:url(#SVGID_23_);}
	.st38{fill:url(#SVGID_24_);}
	.st39{fill:url(#SVGID_25_);}
	.st40{fill:#20749D;}
	.st41{fill:url(#SVGID_26_);}
	.st42{fill:url(#SVGID_27_);}
	.st43{fill:url(#SVGID_28_);}
	.st44{fill:url(#SVGID_29_);}
	.st45{fill:url(#SVGID_30_);}
	.st46{fill:url(#SVGID_31_);}
	.st47{fill:url(#SVGID_32_);}
	.st48{fill:url(#SVGID_33_);}
	.st49{fill:url(#SVGID_34_);}
	.st50{fill:url(#SVGID_35_);}
	.st51{fill:url(#SVGID_36_);}
	.st52{fill:url(#SVGID_37_);}
	.st53{fill:url(#SVGID_38_);}
	.st54{fill:url(#SVGID_39_);}
	.st55{fill:url(#SVGID_40_);}
	.st56{fill:url(#SVGID_41_);}
	.st57{fill:url(#SVGID_42_);}
	.st58{fill:url(#SVGID_43_);}
	.st59{fill:url(#SVGID_44_);}
	.st60{fill:url(#SVGID_45_);}
	.st61{fill:url(#SVGID_46_);}
	.st62{fill:url(#SVGID_47_);}
	.st63{fill:url(#SVGID_48_);}
	.st64{fill:url(#SVGID_49_);}
	.st65{fill:url(#SVGID_50_);}
	.st66{fill:url(#SVGID_51_);}
	.st67{fill:url(#SVGID_52_);}
	.st68{fill:url(#SVGID_53_);}
	.st69{fill:url(#SVGID_54_);}
	.st70{fill:url(#SVGID_55_);}
	.st71{fill:url(#SVGID_56_);}
	.st72{fill:url(#SVGID_57_);}
	.st73{fill:url(#SVGID_58_);}
	.st74{fill:url(#SVGID_59_);}
	.st75{fill:url(#SVGID_60_);}
	.st76{fill:url(#SVGID_61_);}
</style>
<g id="Layer_1">
</g>
<g id="ceu">
</g>
<g id="mar">
	<g>
		<linearGradient id="SVGID_2_" gradientUnits="userSpaceOnUse" x1="960.9858" y1="79.1372" x2="960.9858" y2="192.9703">
			<stop  offset="0" style="stop-color:#00B3BC"/>
			<stop  offset="0" style="stop-color:#00B3BC"/>
			<stop  offset="0.1183" style="stop-color:#05AAB8"/>
			<stop  offset="0.3093" style="stop-color:#1192AC"/>
			<stop  offset="0.5493" style="stop-color:#256C99"/>
			<stop  offset="0.8226" style="stop-color:#40377F"/>
		</linearGradient>
		<rect x="-4" y="79.1" style="fill:url(#SVGID_2_);" width="1930" height="113.8"/>
		<path class="st2" d="M951.8,92h-45.5h-17.6h-10.3c-1.9,0-3.4,1.5-3.4,3.4c0,1.9,1.5,3.4,3.4,3.4h10.3h17.6h45.5
			c1.9,0,3.4-1.5,3.4-3.4C955.2,93.6,953.7,92,951.8,92z"/>
		<path class="st2" d="M923.4,102.8h-45.5h-17.6h-10.3c-1.9,0-3.4,1.5-3.4,3.4c0,1.9,1.5,3.4,3.4,3.4h10.3h17.6h45.5
			c1.9,0,3.4-1.5,3.4-3.4C926.8,104.4,925.3,102.8,923.4,102.8z"/>
		<path class="st5" d="M945.6,111.8h-45.5h-17.6h-10.3c-1.9,0-3.4,1.5-3.4,3.4c0,1.9,1.5,3.4,3.4,3.4h11.3h17.6h44.5
			c1.9,0,3.4-1.5,3.4-3.4C949.1,113.3,947.5,111.8,945.6,111.8z"/>
		<path class="st6" d="M924.5,134.4h-55.7h-21.5h-12.6c-2.3,0-4.2,1.9-4.2,4.2c0,2.3,1.9,4.2,4.2,4.2h12.6h21.5h55.7
			c2.3,0,4.2-1.9,4.2-4.2C928.7,136.3,926.8,134.4,924.5,134.4z"/>
		<path class="st2" d="M772,99.9h-23.9h-9.2h-5.4c-1,0-1.8,0.8-1.8,1.8c0,1,0.8,1.8,1.8,1.8h5.4h10.2H773c0,0,0.8-0.8,0.8-1.8
			C773.8,100.7,773,99.9,772,99.9z"/>
		<path class="st2" d="M718.6,118.4h-33.3h-12.9h-7.5c-1.4,0-2.5,1.1-2.5,2.5c0,1.4,1.1,2.5,2.5,2.5h7.5h12.9h33.3
			c1.4,0,2.5-1.1,2.5-2.5C721.1,119.5,720,118.4,718.6,118.4z"/>
		<path class="st2" d="M893.2,123.1h-23.9H860h-5.4c-1,0-1.8,0.8-1.8,1.8c0,1,0.8,1.8,1.8,1.8h5.4h10.2h23.9c0,0,0.8-0.8,0.8-1.8
			C895,123.9,894.2,123.1,893.2,123.1z"/>
		<path class="st7" d="M968.3,159.8h-23.9h-9.2h-5.4c-1,0-1.8,0.8-1.8,1.8c0,1,0.8,1.8,1.8,1.8h5.4h9.2h23.9c1,0,1.8-0.8,1.8-1.8
			C970.1,160.6,969.3,159.8,968.3,159.8z"/>
		<path class="st7" d="M800.9,109.2H777h-9.2h-5.4c-1,0-1.8,0.8-1.8,1.8c0,1,0.8,1.8,1.8,1.8h5.4h9.2h23.9c1,0,1.8-0.8,1.8-1.8
			C802.8,110,801.9,109.2,800.9,109.2z"/>
		<path class="st7" d="M839.5,95.4h-23.9h-9.2H801c-1,0-1.8,0.8-1.8,1.8c0,1,0.8,1.8,1.8,1.8h5.4h9.2h23.9c1,0,1.8-0.8,1.8-1.8
			C841.3,96.2,840.5,95.4,839.5,95.4z"/>
		<path class="st7" d="M730.8,90.3h-23.9h-9.2h-5.4c-1,0-1.8,0.8-1.8,1.8c0,1,0.8,1.8,1.8,1.8h5.4h9.2h23.9c1,0,1.8-0.8,1.8-1.8
			C732.6,91.1,731.7,90.3,730.8,90.3z"/>
		<path class="st2" d="M1094.2,103.9h-23.9h-9.2h-5.4c-1,0-1.8,0.8-1.8,1.8c0,1,0.8,1.8,1.8,1.8h5.4h9.2h23.9c1,0,1.8-0.8,1.8-1.8
			C1096,104.7,1095.2,103.9,1094.2,103.9z"/>
		<path class="st2" d="M1039.7,122.4h-33.3h-12.9h-7.5c-1.4,0-2.5,1.1-2.5,2.5c0,1.4,1.1,2.5,2.5,2.5h7.5h12.9h33.3
			c1.4,0,2.5-1.1,2.5-2.5C1042.3,123.5,1041.1,122.4,1039.7,122.4z"/>
		<path class="st2" d="M746.6,138.4h-33.3h-12.9h-7.5c-1.4,0-2.5,1.1-2.5,2.5c0,1.4,1.1,2.5,2.5,2.5h7.5h13.9h33.3
			c0.4,0,1.5-1.1,1.5-2.5C749.1,139.5,748,138.4,746.6,138.4z"/>
		<path class="st2" d="M1182.8,141.4h-33.3h-12.9h-7.5c-1.4,0-2.5,1.1-2.5,2.5c0,1.4,1.1,2.5,2.5,2.5h7.5h12.9h33.3
			c1.4,0,2.5-1.1,2.5-2.5C1185.3,142.5,1184.2,141.4,1182.8,141.4z"/>
		<path class="st2" d="M1125.8,127.4h-33.3h-12.9h-7.5c-1.4,0-2.5,1.1-2.5,2.5c0,1.4,1.1,2.5,2.5,2.5h7.5h12.9h33.3
			c1.4,0,2.5-1.1,2.5-2.5C1128.3,128.5,1127.2,127.4,1125.8,127.4z"/>
		<path class="st7" d="M1122.1,113.2h-23.9h-9.2h-5.4c-1,0-1.8,0.8-1.8,1.8c0,1,0.8,1.8,1.8,1.8h5.4h9.2h23.9c1,0,1.8-0.8,1.8-1.8
			C1123.9,114,1123.1,113.2,1122.1,113.2z"/>
		<path class="st7" d="M1160.7,99.4h-23.9h-9.2h-5.4c-1,0-1.8,0.8-1.8,1.8c0,1,0.8,1.8,1.8,1.8h5.4h9.2h23.9c1,0,1.8-0.8,1.8-1.8
			C1162.5,100.2,1161.7,99.4,1160.7,99.4z"/>
		<path class="st7" d="M1051.9,94.3H1028h-9.2h-5.4c-1,0-1.8,0.8-1.8,1.8c0,1,0.8,1.8,1.8,1.8h5.4h9.2h23.9c1,0,1.8-0.8,1.8-1.8
			C1053.7,95.1,1052.9,94.3,1051.9,94.3z"/>
		<path class="st7" d="M985.7,147.4h-23.9h-9.2h-5.4c-1,0-1.8,0.8-1.8,1.8c0,1,0.8,1.8,1.8,1.8h5.4h9.2h23.9c1,0,1.8-0.8,1.8-1.8
			C987.5,148.2,986.7,147.4,985.7,147.4z"/>
		<path class="st7" d="M817.6,152.4h-23.9h-9.2h-5.4c-1,0-1.8,0.8-1.8,1.8c0,1,0.8,1.8,1.8,1.8h5.4h10.2h23.9c0,0,0.8-0.8,0.8-1.8
			C819.4,153.2,818.6,152.4,817.6,152.4z"/>
		<path class="st7" d="M772.6,130.4h-23.9h-9.2H734c-1,0-1.8,0.8-1.8,1.8c0,1,0.8,1.8,1.8,1.8h5.4h10.2h23.9c0,0,0.8-0.8,0.8-1.8
			C774.4,131.2,773.6,130.4,772.6,130.4z"/>
		<path class="st7" d="M1060.7,149.4h-23.9h-9.2h-5.4c-1,0-1.8,0.8-1.8,1.8c0,1,0.8,1.8,1.8,1.8h5.4h9.2h23.9c1,0,1.8-0.8,1.8-1.8
			C1062.5,150.2,1061.7,149.4,1060.7,149.4z"/>
		<path class="st2" d="M969.1,82.8h-23.9H936h-5.4c-1,0-1.8,0.8-1.8,1.8c0,1,0.8,1.8,1.8,1.8h5.4h9.2h23.9c1,0,1.8-0.8,1.8-1.8
			C970.9,83.6,970.1,82.8,969.1,82.8z"/>
		<path class="st2" d="M963,79.1h-23.9h-9.2h-5.4c-1,0-1.8,0.8-1.8,1.8c0,1,0.8,1.8,1.8,1.8h5.4h9.2H963c1,0,1.8-0.8,1.8-1.8
			C964.8,79.9,964,79.1,963,79.1z"/>
		<polygon class="st3" points="1926,79.4 -4,79.4 -5,78.9 1925,78.9 		"/>
		<path class="st8" d="M973.3,86.4H969h-4.6h-15.2h-19.5h-15.2h-4.6h-4.3c-1.6,0-3,1.3-3,3c0,1.6,1.3,3,3,3h4.3h4.6h15.2h19.5h15.2
			h4.6h4.3c1.6,0,3-1.3,3-3C976.2,87.7,974.9,86.4,973.3,86.4z"/>
		<path class="st7" d="M1427.9,92.5h-7.6v-0.2H1302h-45.6h-26.7c-4.9,0-9,4-9,8.9c0,4.9,4,8.9,9,8.9h7.6v0.2h118.3h45.6h26.7
			c4.9,0,9-4,9-8.9C1436.8,96.5,1432.8,92.5,1427.9,92.5z"/>
		<path class="st7" d="M1370.2,110.7h-14.6h-24.9h-64.5v0.1h-4.3h-14.6c-2.7,0-4.9,2.2-4.9,4.9c0,2.7,2.2,4.9,4.9,4.9h14.6h24.9
			h64.5v-0.1h4.3h14.6c2.7,0,4.9-2.2,4.9-4.9C1375.1,112.9,1372.9,110.7,1370.2,110.7z"/>
		<path class="st7" d="M1416.6,120.6h-18.5h-4.2h-27.4h-54.4h-27.4h-4.2h-18.5c-3.4,0-6.2,2.8-6.2,6.2c0,3.4,2.8,6.2,6.2,6.2h18.5
			h4.2h27.4h54.4h27.4h4.2h18.5c3.4,0,6.2-2.8,6.2-6.2C1422.8,123.3,1420,120.6,1416.6,120.6z"/>
		<path class="st7" d="M1455.8,133.1h-18.5h-31.6h-32v0h-81.8h-31.6h-18.5c-3.4,0-6.2,2.8-6.2,6.2s2.8,6.2,6.2,6.2h18.5h31.6h32v0
			h81.8h31.6h18.5c3.4,0,6.2-2.8,6.2-6.2S1459.2,133.1,1455.8,133.1z"/>
		<path class="st7" d="M1414.1,145.5h-18.5h-1.7h-29.9h-51.9h-29.9h-1.7h-18.5c-3.4,0-6.2,2.8-6.2,6.2c0,3.4,2.8,6.2,6.2,6.2h18.5
			h1.7h29.9h51.9h29.9h1.7h18.5c3.4,0,6.2-2.8,6.2-6.2C1420.3,148.2,1417.5,145.5,1414.1,145.5z"/>
		<path class="st7" d="M1430.6,157.8h-18.5h-31.6h-81.8v0h-15.1c-3.4,0-6.2,2.8-6.2,6.2c0,3.4,2.8,6.2,6.2,6.2h18.5h31.6h81.8v0
			h15.1c3.4,0,6.2-2.8,6.2-6.2C1436.8,160.6,1434.1,157.8,1430.6,157.8z"/>
	</g>
</g>
<g id="terra">
	<g>
		<g>
			<path class="st3" d="M1505.1,80.9l-23.4-2.3c-1.6,1.4-3.7,2.3-6,2.3H1505.1z"/>
			<path class="st3" d="M1702.4,14.5h-166.3c2.2-0.9,403.9-3.1,403.9-5.6c0-3.4-2.7-6.1-6.1-6.1h-526.2c-3.4,0-6.1,2.7-6.1,6.1
				c0,2.5,1.5,4.7,3.7,5.6h-15.5c-8.4,0-15.2,6.8-15.2,15.2c0,8.4,6.8,15.2,15.2,15.2H1352c-5,0-9,4-9,9c0,4.7,3.6,8.5,8.1,8.9
				h-42.5c-0.1,0-0.2-0.1-0.3-0.1c-0.1,0-0.2,0.1-0.3,0.1h-6v0.8l-0.7-0.7h-10.7c-5,0-9,4-9,9s4,9,9,9h29.3l-10.9-10.5h46.6v-4.2
				l126,12.5c1.8-1.6,3-4,3-6.7c0-5-4-9-9-9h61.4c5,0,9-4,9-9s-4-9-9-9h165.3c8.4,0,15.2-6.8,15.2-15.2
				C1717.6,21.3,1710.8,14.5,1702.4,14.5z"/>
		</g>
		<g>
			<path class="st9" d="M1308.8,59.5h-6.1c-0.8,0-1.4,0.6-1.4,1.4s0.6,1.4,1.4,1.4h6.1c0.8,0,1.4-0.6,1.4-1.4
				S1309.5,59.5,1308.8,59.5z"/>
			<path class="st9" d="M1326,61.4h-0.6v-4.8c0-0.8-0.6-1.4-1.4-1.4c-0.8,0-1.4,0.6-1.4,1.4v6.1c0,0.8,0.6,1.4,1.4,1.4h2
				c0.7,0,1.3-0.6,1.3-1.3C1327.4,62,1326.8,61.4,1326,61.4z"/>
			<linearGradient id="SVGID_3_" gradientUnits="userSpaceOnUse" x1="1616.7417" y1="3.8251" x2="1616.7417" y2="109.4718">
				<stop  offset="0" style="stop-color:#2F328F"/>
				<stop  offset="1" style="stop-color:#300B30"/>
			</linearGradient>
			<path class="st1" d="M1939,3.8h-531c-3.4,0-6.1,2.7-6.1,6.1c0,2.5,1.5,4.7,3.7,5.6H1390c-8.4,0-15.2,6.8-15.2,15.2
				c0,8.4,6.8,15.2,15.2,15.2h-37.7c-5,0-9,4-9,9c0,5,4,9,9,9h-28.8c1.1-0.3,2-1.3,2-2.6c0-0.1,0-0.1,0-0.2V48.6
				c0.2-0.2,0.4-0.4,0.6-0.7h1.6v0c0.1,0,0.2-0.1,0.2-0.2c0-0.1-0.1-0.2-0.2-0.2v0h-1.5c0-0.1,0-0.2,0-0.2h1.5v0
				c0.1,0,0.2-0.1,0.2-0.2c0-0.1-0.1-0.2-0.2-0.2v0h-1.5c0-0.1,0-0.2,0-0.2h1.5v0c0.1,0,0.2-0.1,0.2-0.2c0-0.1-0.1-0.2-0.2-0.2v0
				h-1.6c-0.1-0.3-0.4-0.5-0.7-0.7c-0.5-3-3.1-5.2-6.2-5.2c-3.5,0-6.3,2.8-6.3,6.3v11.1h-3c-1.7,0-3.1,1.4-3.1,3.1
				c0,0.1,0,0.2,0,0.3h-5c-0.8,0-1.4,0.6-1.4,1.4c0,0.7,0.5,1.2,1.2,1.3h-10.7c-5,0-9,4-9,9c0,5,4,9,9,9h29.3c-5,0-9,4-9,9
				c0,5,4,9,9,9h30.5v0.8c-2.2,0.2-4,2-4,4.3c0,2.4,1.9,4.3,4.3,4.3h42h47.3H1951C1954.4,109.5,1942.4,3.8,1939,3.8z M1308.6,63.8
				c0.2,0.1,0.3,0.1,0.5,0.2h-1C1308.3,64,1308.5,63.9,1308.6,63.8z"/>
		</g>
	</g>
	<g>
		<path class="st3" d="M649,109h-83.5c0.6-0.6,1.1-1.5,1.1-2.5c0-1.9-1.5-3.4-3.4-3.4h-3.6V72.8c2.3-2,3.7-5,3.7-8.3V48.4h7.7
			c0.1,0,0.1,0,0.2,0c0.1,0,0.1,0,0.2,0c1.3,0,2.4-1.1,2.4-2.4V32.2V31v-2.9c0-1.3-1.1-2.4-2.4-2.4c-0.1,0-0.2,0-0.3,0
			c-0.5-0.8-1.5-1.4-2.6-1.4h-4.3c-1.7,0-3,1.4-3,3c0,0.4,0.1,0.7,0.2,1.1l-4.3,7.6c-0.6-0.3-1.2-0.5-1.9-0.7v-1.5
			c0-0.1,0-0.1,0-0.2c3-1.2,5.1-4,5.1-7.4v-8.4c0-0.9-0.2-1.8-0.5-2.7h0.9c1.5,0,2.6-1.2,2.6-2.6s-1.2-2.6-2.6-2.6h-5.7
			c-0.3,0-0.7,0.1-1,0.2c-0.5-0.1-1.1-0.2-1.7-0.2c-4.4,0-8,3.6-8,8v8.4c0,3.5,2.3,6.4,5.4,7.5c0,0,0,0.1,0,0.1v1.5
			c-4.8,1.2-8.4,5.5-8.4,10.7v18.5c0,3.3,1.5,6.3,3.8,8.3v33.7c0,0.9,0.4,1.8,0.9,2.4H415.3c0,0,0,0,0.1,0c-0.7,0-1.3,0-2,0
			c0,0,0,0,0,0h-5.3c-0.3,0.1-0.6,0.1-1,0.1c-0.3,0-0.7-0.1,0-0.1H-4.9l-1,60.4H649c16.7,0,30.2-13.5,30.2-30.2
			C679.2,122.6,665.7,109,649,109z M565.6,30.4h2.9c0.2,0,0.3,0,0.5,0v1.3v0.5v10.6h-6.3c-0.4-1.4-1.1-2.7-2-3.8L565.6,30.4z"/>
		<g>
			<path class="st11" d="M549.7,111c1.2,0,2.6,0.1,4.1,0.1c-0.1,0-0.1-0.1-0.2-0.1H549.7z"/>
			<path class="st11" d="M555.8,111.1c1.5,0,3.1,0,4.7-0.1h-4.5C556,111.1,555.9,111.1,555.8,111.1z"/>
			<path class="st11" d="M548.9,111c-0.1,0-0.2,0.1-0.3,0.1h5.3c0,0,0,0,0,0c-1.5,0-2.9,0-4.1-0.1H548.9z"/>
			<path class="st12" d="M548.9,111h0.8c-1.5,0-2.8-0.1-3.7-0.2c0.2,0.1,0.4,0.2,0.7,0.3h1.9C548.7,111.1,548.8,111.1,548.9,111z"/>
			<g>
				<path class="st12" d="M567.5,25.4h-4.3c-1.7,0-3,1.4-3,3c0,0.4,0.1,0.7,0.2,1.1l-8.5,14.9c-0.6,1.1-0.2,2.5,0.9,3.2
					c1.1,0.6,2.5,0.2,3.2-0.9l8.7-15.2h2.9c1.7,0,3-1.4,3-3C570.5,26.7,569.2,25.4,567.5,25.4z"/>
				<path class="st12" d="M553.6,111c-1.4-0.5-2.4-1.8-2.4-3.4V76.5c-2.7,0-5.2-1-7.2-2.7v33.7c0,1.4,0.8,2.6,2,3.2
					c0.9,0.1,2.1,0.1,3.7,0.2H553.6z"/>
			</g>
			<linearGradient id="SVGID_4_" gradientUnits="userSpaceOnUse" x1="561.7102" y1="10.9797" x2="561.7102" y2="171.4893">
				<stop  offset="0" style="stop-color:#2F328F"/>
				<stop  offset="1" style="stop-color:#300B30"/>
			</linearGradient>
			<path class="st4" d="M562.1,111c0.3,0,0.5,0,0.7-0.1c-0.8,0-1.5,0.1-2.3,0.1H562.1z"/>
			<path class="st12" d="M548.7,111.1h-1.9c0.3,0.1,0.6,0.1,1,0.1C548,111.3,548.3,111.2,548.7,111.1z"/>
			<linearGradient id="SVGID_5_" gradientUnits="userSpaceOnUse" x1="547.6785" y1="10.9797" x2="547.6785" y2="171.4893">
				<stop  offset="0" style="stop-color:#2F328F"/>
				<stop  offset="1" style="stop-color:#300B30"/>
			</linearGradient>
			<path class="st10" d="M548.7,111.1h-1.9c0.3,0.1,0.6,0.1,1,0.1C548,111.3,548.3,111.2,548.7,111.1z"/>
			<path class="st12" d="M551.2,107.6c0,1.6,1,2.9,2.4,3.4h1.3c1.9,0,3.4-1.5,3.4-3.4s-1.5-3.4-3.4-3.4h-3.6V70.3
				c0-2-1.6-3.6-3.6-3.6s-3.6,1.6-3.6,3.6v3.6c1.9,1.7,4.4,2.7,7.2,2.7V107.6z"/>
			<linearGradient id="SVGID_6_" gradientUnits="userSpaceOnUse" x1="556.4791" y1="10.5464" x2="556.4791" y2="170.9919">
				<stop  offset="0" style="stop-color:#2F328F"/>
				<stop  offset="1" style="stop-color:#300B30"/>
			</linearGradient>
			<path class="st13" d="M570.4,26.8c-1.3,0-2.4,1.1-2.4,2.4v3.6v0.5v10.6h-6.3c-1.1-3.6-4-6.4-7.6-7.3v-1.5c0-0.1,0-0.1,0-0.2
				c3-1.2,5.1-4,5.1-7.4v-8.4c0-0.9-0.2-1.8-0.5-2.7h0.9c1.5,0,2.6-1.2,2.6-2.6c0-1.5-1.2-2.6-2.6-2.6h-5.7c-0.3,0-0.7,0.1-1,0.2
				c-0.5-0.1-1.1-0.2-1.7-0.2c-4.4,0-8,3.6-8,8v8.4c0,3.5,2.3,6.4,5.4,7.5c0,0,0,0.1,0,0.1v1.5c-4.8,1.2-8.4,5.5-8.4,10.7v18.5
				c0,3.3,1.5,6.3,3.8,8.3c1.9,1.7,4.4,2.7,7.2,2.7v31.1c0,1.6,1,2.9,2.4,3.4c0.1,0,0.1,0.1,0.2,0.1c0.6,0,1.3,0,2,0
				c0.1,0,0.2,0,0.3-0.1h4.5c0.7,0,1.5,0,2.3-0.1c1.5-0.3,2.7-1.7,2.7-3.3c0-1.9-1.5-3.4-3.4-3.4h-3.6V73.8c2.3-2,3.7-5,3.7-8.3
				V49.4h7.7c0.1,0,0.1,0,0.2,0c0.1,0,0.1,0,0.2,0c1.3,0,2.4-1.1,2.4-2.4V33.2V32v-2.9C572.7,27.8,571.7,26.8,570.4,26.8z"/>
		</g>
		<linearGradient id="SVGID_7_" gradientUnits="userSpaceOnUse" x1="337.6647" y1="10.4176" x2="337.6647" y2="170.9272">
			<stop  offset="0" style="stop-color:#2F328F"/>
			<stop  offset="1" style="stop-color:#300B30"/>
		</linearGradient>
		<path class="st14" d="M650,110.6H416.3c0,0,0,0,0.1,0c-0.7,0-1.3,0-2,0c0,0,0,0,0,0h-5.3c-0.3,0.1-0.6,0.1-1,0.1
			c-0.3,0-0.7-0.1-1-0.1H-4.9v60.4H650c16.7,0,30.2-13.5,30.2-30.2C680.2,124.1,666.7,110.6,650,110.6z"/>
	</g>
</g>
<g id="Layer_5">
</g>
<g id="Layer_6">
</g>
</svg>
