<?xml version="1.0" encoding="utf-8"?>
<!-- Generator: Adobe Illustrator 22.0.1, SVG Export Plug-In . SVG Version: 6.00 Build 0)  -->
<svg version="1.1" id="Layer_1" xmlns="http://www.w3.org/2000/svg" xmlns:xlink="http://www.w3.org/1999/xlink" x="0px" y="0px"
	 viewBox="0 0 750 192" style="enable-background:new 0 0 750 192;" xml:space="preserve">
<style type="text/css">
	.st0{opacity:0.2;fill:#FFFFFF;}
	.st1{fill:#FFFFFF;}
	.st2{fill:url(#SVGID_1_);}
	.st3{opacity:0.1;fill:#FFFFFF;enable-background:new    ;}
	.st4{opacity:0.2;fill:#FFFFFF;enable-background:new    ;}
	.st5{opacity:0.3;fill:#FFFFFF;enable-background:new    ;}
	.st6{opacity:0.2;fill:#242A4C;enable-background:new    ;}
	.st7{opacity:0.4;fill:#FFFFFF;enable-background:new    ;}
	.st8{fill:#34234B;}
	.st9{fill:url(#SVGID_2_);}
	.st10{fill:none;}
	.st11{fill:#2A1C3E;}
	.st12{fill:url(#SVGID_3_);}
	.st13{fill:url(#SVGID_4_);}
	.st14{fill:url(#SVGID_5_);}
	.st15{fill:url(#SVGID_6_);}
</style>
<g>
	<path class="st0" d="M270.1,29.8c0,3.1-2.5,5.6-5.5,5.6c-3.1,0-5.6-2.5-5.6-5.5c0-3.1,2.5-5.6,5.5-5.6
		C267.6,24.2,270,26.7,270.1,29.8z"/>
	<path class="st0" d="M268.5,29.8c0,2.2-1.8,4-4,4c-2.2,0-4-1.8-4-4c0-2.2,1.8-4,4-4C266.7,25.8,268.5,27.6,268.5,29.8z"/>
	<path class="st0" d="M267.4,29.8c0,1.6-1.3,2.9-2.9,2.9c-1.6,0-2.9-1.3-2.9-2.9c0-1.6,1.3-2.9,2.9-2.9
		C266.1,26.9,267.4,28.2,267.4,29.8z"/>
	<path class="st1" d="M266.2,29.8c0,1-0.8,1.8-1.8,1.8c-1,0-1.8-0.8-1.8-1.8c0-1,0.8-1.8,1.8-1.8C265.4,28,266.2,28.8,266.2,29.8z"
		/>
</g>
<g id="Layer_1_1_">
</g>
<g id="ceu">
</g>
<g id="mar">
	<g>
		
			<linearGradient id="SVGID_1_" gradientUnits="userSpaceOnUse" x1="298.5" y1="109.4323" x2="298.5" y2="-4.3677" gradientTransform="matrix(1 0 0 -1 0 189.7323)">
			<stop  offset="0" style="stop-color:#00B3BC"/>
			<stop  offset="0" style="stop-color:#00B3BC"/>
			<stop  offset="0.1183" style="stop-color:#05AAB8"/>
			<stop  offset="0.3093" style="stop-color:#1192AC"/>
			<stop  offset="0.5493" style="stop-color:#256C99"/>
			<stop  offset="0.8226" style="stop-color:#40377F"/>
		</linearGradient>
		<rect x="-666.5" y="80.3" class="st2" width="1930" height="113.8"/>
		<path class="st3" d="M289.3,93.1h-45.5h-17.6h-10.3c-1.9,0-3.4,1.5-3.4,3.4s1.5,3.4,3.4,3.4h10.3h17.6h45.5c1.9,0,3.4-1.5,3.4-3.4
			C292.7,94.7,291.2,93.1,289.3,93.1z"/>
		<path class="st3" d="M260.9,103.9h-45.5h-17.6h-10.3c-1.9,0-3.4,1.5-3.4,3.4s1.5,3.4,3.4,3.4h10.3h17.6h45.5
			c1.9,0,3.4-1.5,3.4-3.4C264.3,105.5,262.8,103.9,260.9,103.9z"/>
		<path class="st4" d="M283.1,112.9h-45.5H220h-10.3c-1.9,0-3.4,1.5-3.4,3.4s1.5,3.4,3.4,3.4H221h17.6h44.5c1.9,0,3.4-1.5,3.4-3.4
			C286.6,114.4,285,112.9,283.1,112.9z"/>
		<path class="st5" d="M262,135.6h-55.7h-21.5h-12.6c-2.3,0-4.2,1.9-4.2,4.2s1.9,4.2,4.2,4.2h12.6h21.5H262c2.3,0,4.2-1.9,4.2-4.2
			S264.3,135.6,262,135.6z"/>
		<path class="st3" d="M109.5,101H85.6h-9.2H71c-1,0-1.8,0.8-1.8,1.8s0.8,1.8,1.8,1.8h5.4h10.2h23.9c0,0,0.8-0.8,0.8-1.8
			S110.5,101,109.5,101z"/>
		<path class="st3" d="M56.1,119.5H22.8H9.9H2.4c-1.4,0-2.5,1.1-2.5,2.5s1.1,2.5,2.5,2.5h7.5h12.9h33.3c1.4,0,2.5-1.1,2.5-2.5
			S57.5,119.5,56.1,119.5z"/>
		<path class="st3" d="M230.7,124.3h-23.9h-9.2h-5.4c-1,0-1.8,0.8-1.8,1.8s0.8,1.8,1.8,1.8h5.4h10.2h23.9c0,0,0.8-0.8,0.8-1.8
			C232.5,125.1,231.7,124.3,230.7,124.3z"/>
		<path class="st6" d="M305.8,160.9h-23.9h-9.2h-5.4c-1,0-1.8,0.8-1.8,1.8s0.8,1.8,1.8,1.8h5.4h9.2h23.9c1,0,1.8-0.8,1.8-1.8
			C307.6,161.7,306.8,160.9,305.8,160.9z"/>
		<path class="st6" d="M138.4,110.3h-23.9h-9.2h-5.4c-1,0-1.8,0.8-1.8,1.8s0.8,1.8,1.8,1.8h5.4h9.2h23.9c1,0,1.8-0.8,1.8-1.8
			C140.3,111.1,139.4,110.3,138.4,110.3z"/>
		<path class="st6" d="M177,96.5h-23.9h-9.2h-5.4c-1,0-1.8,0.8-1.8,1.8s0.8,1.8,1.8,1.8h5.4h9.2H177c1,0,1.8-0.8,1.8-1.8
			S178,96.5,177,96.5z"/>
		<path class="st6" d="M68.3,91.4H44.4h-9.2h-5.4c-1,0-1.8,0.8-1.8,1.8s0.8,1.8,1.8,1.8h5.4h9.2h23.9c1,0,1.8-0.8,1.8-1.8
			C70.1,92.3,69.2,91.4,68.3,91.4z"/>
		<path class="st3" d="M431.7,105h-23.9h-9.2h-5.4c-1,0-1.8,0.8-1.8,1.8s0.8,1.8,1.8,1.8h5.4h9.2h23.9c1,0,1.8-0.8,1.8-1.8
			S432.7,105,431.7,105z"/>
		<path class="st3" d="M377.2,123.5h-33.3H331h-7.5c-1.4,0-2.5,1.1-2.5,2.5s1.1,2.5,2.5,2.5h7.5h12.9h33.3c1.4,0,2.5-1.1,2.5-2.5
			C379.8,124.6,378.6,123.5,377.2,123.5z"/>
		<path class="st3" d="M84.1,139.5H50.8H37.9h-7.5c-1.4,0-2.5,1.1-2.5,2.5s1.1,2.5,2.5,2.5h7.5h13.9h33.3c0.4,0,1.5-1.1,1.5-2.5
			C86.6,140.6,85.5,139.5,84.1,139.5z"/>
		<path class="st3" d="M520.3,142.5H487h-12.9h-7.5c-1.4,0-2.5,1.1-2.5,2.5s1.1,2.5,2.5,2.5h7.5H487h33.3c1.4,0,2.5-1.1,2.5-2.5
			S521.7,142.5,520.3,142.5z"/>
		<path class="st3" d="M463.3,128.5H430h-12.9h-7.5c-1.4,0-2.5,1.1-2.5,2.5s1.1,2.5,2.5,2.5h7.5H430h33.3c1.4,0,2.5-1.1,2.5-2.5
			S464.7,128.5,463.3,128.5z"/>
		<path class="st6" d="M459.6,114.3h-23.9h-9.2h-5.4c-1,0-1.8,0.8-1.8,1.8s0.8,1.8,1.8,1.8h5.4h9.2h23.9c1,0,1.8-0.8,1.8-1.8
			C461.4,115.1,460.6,114.3,459.6,114.3z"/>
		<path class="st6" d="M498.2,100.5h-23.9h-9.2h-5.4c-1,0-1.8,0.8-1.8,1.8s0.8,1.8,1.8,1.8h5.4h9.2h23.9c1,0,1.8-0.8,1.8-1.8
			S499.2,100.5,498.2,100.5z"/>
		<path class="st6" d="M389.4,95.4h-23.9h-9.2h-5.4c-1,0-1.8,0.8-1.8,1.8s0.8,1.8,1.8,1.8h5.4h9.2h23.9c1,0,1.8-0.8,1.8-1.8
			C391.2,96.3,390.4,95.4,389.4,95.4z"/>
		<path class="st6" d="M323.2,148.5h-23.9h-9.2h-5.4c-1,0-1.8,0.8-1.8,1.8s0.8,1.8,1.8,1.8h5.4h9.2h23.9c1,0,1.8-0.8,1.8-1.8
			C325,149.4,324.2,148.5,323.2,148.5z"/>
		<path class="st6" d="M155.1,153.5h-23.9H122h-5.4c-1,0-1.8,0.8-1.8,1.8s0.8,1.8,1.8,1.8h5.4h10.2h23.9c0,0,0.8-0.8,0.8-1.8
			C156.9,154.4,156.1,153.5,155.1,153.5z"/>
		<path class="st6" d="M110.1,131.5H86.2H77h-5.4c-1,0-1.8,0.8-1.8,1.8s0.8,1.8,1.8,1.8H77h10.2h23.9c0,0,0.8-0.8,0.8-1.8
			C111.9,132.4,111.1,131.5,110.1,131.5z"/>
		<path class="st6" d="M398.2,150.5h-23.9h-9.2h-5.4c-1,0-1.8,0.8-1.8,1.8s0.8,1.8,1.8,1.8h5.4h9.2h23.9c1,0,1.8-0.8,1.8-1.8
			C400,151.4,399.2,150.5,398.2,150.5z"/>
		<path class="st3" d="M306.6,83.9h-23.9h-9.2h-5.4c-1,0-1.8,0.8-1.8,1.8s0.8,1.8,1.8,1.8h5.4h9.2h23.9c1,0,1.8-0.8,1.8-1.8
			C308.4,84.7,307.6,83.9,306.6,83.9z"/>
		<path class="st3" d="M300.5,80.3h-23.9h-9.2H262c-1,0-1.8,0.8-1.8,1.8s0.8,1.8,1.8,1.8h5.4h9.2h23.9c1,0,1.8-0.8,1.8-1.8
			C302.3,81.1,301.5,80.3,300.5,80.3z"/>
		<polygon class="st1" points="1263.5,80.5 -666.5,80.5 -667.5,80 1262.5,80 		"/>
		<path class="st7" d="M310.8,87.5h-4.3h-4.6h-15.2h-19.5H252h-4.6h-4.3c-1.6,0-3,1.3-3,3c0,1.6,1.3,3,3,3h4.3h4.6h15.2h19.5h15.2
			h4.6h4.3c1.6,0,3-1.3,3-3C313.7,88.8,312.4,87.5,310.8,87.5z"/>
		<path class="st6" d="M765.4,93.6h-7.6v-0.2H639.5h-45.6h-26.7c-4.9,0-9,4-9,8.9s4,8.9,9,8.9h7.6v0.2H693h45.6h26.7
			c4.9,0,9-4,9-8.9S770.3,93.6,765.4,93.6z"/>
		<path class="st6" d="M707.7,111.8h-14.6h-24.9h-64.5v0.1h-4.3h-14.6c-2.7,0-4.9,2.2-4.9,4.9c0,2.7,2.2,4.9,4.9,4.9h14.6h24.9h64.5
			v-0.1h4.3h14.6c2.7,0,4.9-2.2,4.9-4.9C712.6,114,710.4,111.8,707.7,111.8z"/>
		<path class="st6" d="M754.1,121.7h-18.5h-4.2H704h-54.4h-27.4H618h-18.5c-3.4,0-6.2,2.8-6.2,6.2s2.8,6.2,6.2,6.2H618h4.2h27.4H704
			h27.4h4.2h18.5c3.4,0,6.2-2.8,6.2-6.2C760.3,124.5,757.5,121.7,754.1,121.7z"/>
		<path class="st6" d="M793.3,134.2h-18.5h-31.6h-32l0,0h-81.8h-31.6h-18.5c-3.4,0-6.2,2.8-6.2,6.2s2.8,6.2,6.2,6.2h18.5h31.6h32
			l0,0h81.8h31.6h18.5c3.4,0,6.2-2.8,6.2-6.2S796.7,134.2,793.3,134.2z"/>
		<path class="st6" d="M751.6,146.6h-18.5h-1.7h-29.9h-51.9h-29.9H618h-18.5c-3.4,0-6.2,2.8-6.2,6.2s2.8,6.2,6.2,6.2H618h1.7h29.9
			h51.9h29.9h1.7h18.5c3.4,0,6.2-2.8,6.2-6.2C757.8,149.3,755,146.6,751.6,146.6z"/>
		<path class="st6" d="M768.1,158.9h-18.5H718h-81.8l0,0h-15.1c-3.4,0-6.2,2.8-6.2,6.2s2.8,6.2,6.2,6.2h18.5h31.6H753l0,0h15.1
			c3.4,0,6.2-2.8,6.2-6.2S771.6,158.9,768.1,158.9z"/>
	</g>
</g>
<g id="terra">
	<g>
		<g>
			<path class="st1" d="M638.6,82l-23.4-2.3c-1.6,1.4-3.7,2.3-6,2.3H638.6z"/>
			<path class="st1" d="M835.9,15.6H669.6c2.2-0.9,403.9-3.1,403.9-5.6c0-3.4-2.7-6.1-6.1-6.1H541.2c-3.4,0-6.1,2.7-6.1,6.1
				c0,2.5,1.5,4.7,3.7,5.6h-15.5c-8.4,0-15.2,6.8-15.2,15.2S514.9,46,523.3,46h-37.7c-5,0-9,4-9,9c0,4.7,3.6,8.5,8.1,8.9h-42.5
				c-0.1,0-0.2-0.1-0.3-0.1c-0.1,0-0.2,0.1-0.3,0.1h-6v0.8l-0.7-0.7h-10.7c-5,0-9,4-9,9s4,9,9,9h29.3l-10.9-10.5h46.6v-4.2l126,12.5
				c1.8-1.6,3-4,3-6.7c0-5-4-9-9-9h61.4c5,0,9-4,9-9s-4-9-9-9h165.3c8.4,0,15.2-6.8,15.2-15.2C851.1,22.4,844.3,15.6,835.9,15.6z"/>
		</g>
		<g>
			<path class="st8" d="M442.3,60.6h-6.1c-0.8,0-1.4,0.6-1.4,1.4s0.6,1.4,1.4,1.4h6.1c0.8,0,1.4-0.6,1.4-1.4S443,60.6,442.3,60.6z"
				/>
			<path class="st8" d="M459.5,62.6h-0.6v-4.8c0-0.8-0.6-1.4-1.4-1.4s-1.4,0.6-1.4,1.4v6.1c0,0.8,0.6,1.4,1.4,1.4h2
				c0.7,0,1.3-0.6,1.3-1.3C460.9,63.2,460.3,62.6,459.5,62.6z"/>
			
				<linearGradient id="SVGID_2_" gradientUnits="userSpaceOnUse" x1="750.1832" y1="184.8323" x2="750.1832" y2="79.1856" gradientTransform="matrix(1 0 0 -1 0 189.7323)">
				<stop  offset="0" style="stop-color:#2F328F"/>
				<stop  offset="1" style="stop-color:#300B30"/>
			</linearGradient>
			<path class="st9" d="M1072.5,4.9h-531c-3.4,0-6.1,2.7-6.1,6.1c0,2.5,1.5,4.7,3.7,5.6h-15.5c-8.4,0-15.2,6.8-15.2,15.2
				S515.2,47,523.6,47h-37.7c-5,0-9,4-9,9s4,9,9,9H457c1.1-0.3,2-1.3,2-2.6c0-0.1,0-0.1,0-0.2V49.7c0.2-0.2,0.4-0.4,0.6-0.7h1.6l0,0
				c0.1,0,0.2-0.1,0.2-0.2c0-0.1-0.1-0.2-0.2-0.2l0,0h-1.5c0-0.1,0-0.2,0-0.2h1.5l0,0c0.1,0,0.2-0.1,0.2-0.2c0-0.1-0.1-0.2-0.2-0.2
				l0,0h-1.5c0-0.1,0-0.2,0-0.2h1.5l0,0c0.1,0,0.2-0.1,0.2-0.2c0-0.1-0.1-0.2-0.2-0.2l0,0h-1.6c-0.1-0.3-0.4-0.5-0.7-0.7
				c-0.5-3-3.1-5.2-6.2-5.2c-3.5,0-6.3,2.8-6.3,6.3v11.1h-3c-1.7,0-3.1,1.4-3.1,3.1c0,0.1,0,0.2,0,0.3h-5c-0.8,0-1.4,0.6-1.4,1.4
				c0,0.7,0.5,1.2,1.2,1.3h-10.7c-5,0-9,4-9,9s4,9,9,9h29.3c-5,0-9,4-9,9s4,9,9,9h30.5v0.8c-2.2,0.2-4,2-4,4.3
				c0,2.4,1.9,4.3,4.3,4.3h42h47.3h510.5C1087.9,110.6,1075.9,4.9,1072.5,4.9z M442.1,64.9c0.2,0.1,0.3,0.1,0.5,0.2h-1
				C441.8,65.1,442,65,442.1,64.9z"/>
		</g>
	</g>
	<g>
		<path class="st1" d="M344.5,110.2H261c0.6-0.6,1.1-1.5,1.1-2.5c0-1.9-1.5-3.4-3.4-3.4H255V73.9c2.3-2,3.7-5,3.7-8.3V49.5h7.7
			c0.1,0,0.1,0,0.2,0s0.1,0,0.2,0c1.3,0,2.4-1.1,2.4-2.4V33.3v-1.2v-2.9c0-1.3-1.1-2.4-2.4-2.4c-0.1,0-0.2,0-0.3,0
			c-0.5-0.8-1.5-1.4-2.6-1.4h-4.3c-1.7,0-3,1.4-3,3c0,0.4,0.1,0.7,0.2,1.1l-4.3,7.6c-0.6-0.3-1.2-0.5-1.9-0.7V35c0-0.1,0-0.1,0-0.2
			c3-1.2,5.1-4,5.1-7.4V19c0-0.9-0.2-1.8-0.5-2.7h0.9c1.5,0,2.6-1.2,2.6-2.6s-1.2-2.6-2.6-2.6h-5.7c-0.3,0-0.7,0.1-1,0.2
			c-0.5-0.1-1.1-0.2-1.7-0.2c-4.4,0-8,3.6-8,8v8.4c0,3.5,2.3,6.4,5.4,7.5v0.1v1.5c-4.8,1.2-8.4,5.5-8.4,10.7v18.5
			c0,3.3,1.5,6.3,3.8,8.3v33.7c0,0.9,0.4,1.8,0.9,2.4H110.8c0,0,0,0,0.1,0c-0.7,0-1.3,0-2,0l0,0h-5.3c-0.3,0.1-0.6,0.1-1,0.1
			c-0.3,0-0.7-0.1,0-0.1h-412.1l-1,60.4h654.9c16.7,0,30.2-13.5,30.2-30.2C374.7,123.7,361.2,110.2,344.5,110.2z M261.1,31.6h2.9
			c0.2,0,0.3,0,0.5,0v1.3v0.5V44h-6.3c-0.4-1.4-1.1-2.7-2-3.8L261.1,31.6z"/>
		<g>
			<path class="st10" d="M245.2,112.1c1.2,0,2.6,0.1,4.1,0.1c-0.1,0-0.1-0.1-0.2-0.1H245.2z"/>
			<path class="st10" d="M251.3,112.2c1.5,0,3.1,0,4.7-0.1h-4.5C251.5,112.2,251.4,112.2,251.3,112.2z"/>
			<path class="st10" d="M244.4,112.1c-0.1,0-0.2,0.1-0.3,0.1h5.3l0,0c-1.5,0-2.9,0-4.1-0.1H244.4z"/>
			<path class="st11" d="M244.4,112.1h0.8c-1.5,0-2.8-0.1-3.7-0.2c0.2,0.1,0.4,0.2,0.7,0.3h1.9C244.2,112.2,244.3,112.2,244.4,112.1
				z"/>
			<g>
				<path class="st11" d="M263,26.5h-4.3c-1.7,0-3,1.4-3,3c0,0.4,0.1,0.7,0.2,1.1l-8.5,14.9c-0.6,1.1-0.2,2.5,0.9,3.2
					c1.1,0.6,2.5,0.2,3.2-0.9l8.7-15.2h2.9c1.7,0,3-1.4,3-3S264.7,26.5,263,26.5z"/>
				<path class="st11" d="M249.1,112.1c-1.4-0.5-2.4-1.8-2.4-3.4v-31c-2.7,0-5.2-1-7.2-2.7v33.7c0,1.4,0.8,2.6,2,3.2
					c0.9,0.1,2.1,0.1,3.7,0.2C245.2,112.1,249.1,112.1,249.1,112.1z"/>
			</g>
			
				<linearGradient id="SVGID_3_" gradientUnits="userSpaceOnUse" x1="257.15" y1="177.6323" x2="257.15" y2="17.1228" gradientTransform="matrix(1 0 0 -1 0 189.7323)">
				<stop  offset="0" style="stop-color:#2F328F"/>
				<stop  offset="1" style="stop-color:#300B30"/>
			</linearGradient>
			<path class="st12" d="M257.6,112.1c0.3,0,0.5,0,0.7-0.1c-0.8,0-1.5,0.1-2.3,0.1H257.6z"/>
			<path class="st11" d="M244.2,112.2h-1.9c0.3,0.1,0.6,0.1,1,0.1C243.5,112.4,243.8,112.3,244.2,112.2z"/>
			
				<linearGradient id="SVGID_4_" gradientUnits="userSpaceOnUse" x1="243.25" y1="177.6323" x2="243.25" y2="17.1228" gradientTransform="matrix(1 0 0 -1 0 189.7323)">
				<stop  offset="0" style="stop-color:#2F328F"/>
				<stop  offset="1" style="stop-color:#300B30"/>
			</linearGradient>
			<path class="st13" d="M244.2,112.2h-1.9c0.3,0.1,0.6,0.1,1,0.1C243.5,112.4,243.8,112.3,244.2,112.2z"/>
			<path class="st11" d="M246.7,108.8c0,1.6,1,2.9,2.4,3.4h1.3c1.9,0,3.4-1.5,3.4-3.4s-1.5-3.4-3.4-3.4h-3.6v-34
				c0-2-1.6-3.6-3.6-3.6s-3.6,1.6-3.6,3.6V75c1.9,1.7,4.4,2.7,7.2,2.7L246.7,108.8L246.7,108.8z"/>
			
				<linearGradient id="SVGID_5_" gradientUnits="userSpaceOnUse" x1="251.95" y1="178.0656" x2="251.95" y2="17.3405" gradientTransform="matrix(1 0 0 -1 0 189.7323)">
				<stop  offset="0" style="stop-color:#2F328F"/>
				<stop  offset="1" style="stop-color:#300B30"/>
			</linearGradient>
			<path class="st14" d="M265.9,27.9c-1.3,0-2.4,1.1-2.4,2.4v3.6v0.5V45h-6.3c-1.1-3.6-4-6.4-7.6-7.3V36c0-0.1,0-0.1,0-0.2
				c3-1.2,5.1-4,5.1-7.4V20c0-0.9-0.2-1.8-0.5-2.7h0.9c1.5,0,2.6-1.2,2.6-2.6c0-1.5-1.2-2.6-2.6-2.6h-5.7c-0.3,0-0.7,0.1-1,0.2
				c-0.5-0.1-1.1-0.2-1.7-0.2c-4.4,0-8,3.6-8,8v8.4c0,3.5,2.3,6.4,5.4,7.5v0.1v1.5c-4.8,1.2-8.4,5.5-8.4,10.7v18.5
				c0,3.3,1.5,6.3,3.8,8.3c1.9,1.7,4.4,2.7,7.2,2.7v31.1c0,1.6,1,2.9,2.4,3.4c0.1,0,0.1,0.1,0.2,0.1c0.6,0,1.3,0,2,0
				c0.1,0,0.2,0,0.3-0.1h4.5c0.7,0,1.5,0,2.3-0.1c1.5-0.3,2.7-1.7,2.7-3.3c0-1.9-1.5-3.4-3.4-3.4H254V74.9c2.3-2,3.7-5,3.7-8.3V50.5
				h7.7c0.1,0,0.1,0,0.2,0s0.1,0,0.2,0c1.3,0,2.4-1.1,2.4-2.4V34.3v-1.2v-2.9C268.2,28.9,267.2,27.9,265.9,27.9z"/>
		</g>
		
			<linearGradient id="SVGID_6_" gradientUnits="userSpaceOnUse" x1="33.0503" y1="178.1944" x2="33.0503" y2="17.6848" gradientTransform="matrix(1 0 0 -1 0 189.7323)">
			<stop  offset="0" style="stop-color:#2F328F"/>
			<stop  offset="1" style="stop-color:#300B30"/>
		</linearGradient>
		<path class="st15" d="M345.5,111.7H111.8c0,0,0,0,0.1,0c-0.7,0-1.3,0-2,0l0,0h-5.3c-0.3,0.1-0.6,0.1-1,0.1c-0.3,0-0.7-0.1-1-0.1
			h-412.1V172h654.9c16.7,0,30.2-13.5,30.2-30.2C375.7,125.2,362.2,111.7,345.5,111.7z"/>
	</g>
</g>
<g id="Layer_5">
</g>
<g id="Layer_6">
</g>
</svg>
