<?xml version="1.0" encoding="utf-8"?>
<!-- Generator: Adobe Illustrator 22.0.1, SVG Export Plug-In . SVG Version: 6.00 Build 0)  -->
<svg version="1.1" id="Layer_1" xmlns="http://www.w3.org/2000/svg" xmlns:xlink="http://www.w3.org/1999/xlink" x="0px" y="0px"
	 viewBox="0 0 1024 192" style="enable-background:new 0 0 1024 192;" xml:space="preserve">
<style type="text/css">
	.st0{opacity:0.2;fill:#FFFFFF;}
	.st1{fill:#FFFFFF;}
	.st2{fill:url(#SVGID_1_);}
	.st3{opacity:0.1;fill:#FFFFFF;enable-background:new    ;}
	.st4{opacity:0.2;fill:#FFFFFF;enable-background:new    ;}
	.st5{opacity:0.3;fill:#FFFFFF;enable-background:new    ;}
	.st6{opacity:0.2;fill:#242A4C;enable-background:new    ;}
	.st7{opacity:0.4;fill:#FFFFFF;enable-background:new    ;}
	.st8{fill:#34234B;}
	.st9{fill:url(#SVGID_2_);}
	.st10{fill:none;}
	.st11{fill:#2A1C3E;}
	.st12{fill:url(#SVGID_3_);}
	.st13{fill:url(#SVGID_4_);}
	.st14{fill:url(#SVGID_5_);}
	.st15{fill:url(#SVGID_6_);}
</style>
<g>
	<path class="st0" d="M291.1,29.8c0,3.1-2.5,5.6-5.5,5.6c-3.1,0-5.6-2.5-5.6-5.5c0-3.1,2.5-5.6,5.5-5.6
		C288.6,24.2,291,26.7,291.1,29.8z"/>
	<path class="st0" d="M289.5,29.8c0,2.2-1.8,4-4,4c-2.2,0-4-1.8-4-4c0-2.2,1.8-4,4-4C287.7,25.8,289.5,27.6,289.5,29.8z"/>
	<path class="st0" d="M288.4,29.8c0,1.6-1.3,2.9-2.9,2.9c-1.6,0-2.9-1.3-2.9-2.9c0-1.6,1.3-2.9,2.9-2.9
		C287.1,26.9,288.4,28.2,288.4,29.8z"/>
	<path class="st1" d="M287.2,29.8c0,1-0.8,1.8-1.8,1.8c-1,0-1.8-0.8-1.8-1.8c0-1,0.8-1.8,1.8-1.8C286.4,28,287.2,28.8,287.2,29.8z"
		/>
</g>
<g id="Layer_1_1_">
</g>
<g id="ceu">
</g>
<g id="mar">
	<g>
		
			<linearGradient id="SVGID_1_" gradientUnits="userSpaceOnUse" x1="435.5" y1="109.4323" x2="435.5" y2="-4.3677" gradientTransform="matrix(1 0 0 -1 0 189.7323)">
			<stop  offset="0" style="stop-color:#00B3BC"/>
			<stop  offset="0.564" style="stop-color:#2E5B90"/>
			<stop  offset="0.8226" style="stop-color:#40377F"/>
		</linearGradient>
		<rect x="-529.5" y="80.3" class="st2" width="1930" height="113.8"/>
		<path class="st3" d="M426.3,93.1h-45.5h-17.6h-10.3c-1.9,0-3.4,1.5-3.4,3.4s1.5,3.4,3.4,3.4h10.3h17.6h45.5c1.9,0,3.4-1.5,3.4-3.4
			C429.7,94.7,428.2,93.1,426.3,93.1z"/>
		<path class="st3" d="M397.9,103.9h-45.5h-17.6h-10.3c-1.9,0-3.4,1.5-3.4,3.4s1.5,3.4,3.4,3.4h10.3h17.6h45.5
			c1.9,0,3.4-1.5,3.4-3.4C401.3,105.5,399.8,103.9,397.9,103.9z"/>
		<path class="st4" d="M420.1,112.9h-45.5H357h-10.3c-1.9,0-3.4,1.5-3.4,3.4s1.5,3.4,3.4,3.4H358h17.6h44.5c1.9,0,3.4-1.5,3.4-3.4
			C423.6,114.4,422,112.9,420.1,112.9z"/>
		<path class="st5" d="M399,135.6h-55.7h-21.5h-12.6c-2.3,0-4.2,1.9-4.2,4.2s1.9,4.2,4.2,4.2h12.6h21.5H399c2.3,0,4.2-1.9,4.2-4.2
			S401.3,135.6,399,135.6z"/>
		<path class="st3" d="M246.5,101h-23.9h-9.2H208c-1,0-1.8,0.8-1.8,1.8s0.8,1.8,1.8,1.8h5.4h10.2h23.9c0,0,0.8-0.8,0.8-1.8
			C248.3,101.8,247.5,101,246.5,101z"/>
		<path class="st3" d="M193.1,119.5h-33.3h-12.9h-7.5c-1.4,0-2.5,1.1-2.5,2.5s1.1,2.5,2.5,2.5h7.5h12.9h33.3c1.4,0,2.5-1.1,2.5-2.5
			S194.5,119.5,193.1,119.5z"/>
		<path class="st3" d="M367.7,124.3h-23.9h-9.2h-5.4c-1,0-1.8,0.8-1.8,1.8s0.8,1.8,1.8,1.8h5.4h10.2h23.9c0,0,0.8-0.8,0.8-1.8
			C369.5,125.1,368.7,124.3,367.7,124.3z"/>
		<path class="st6" d="M442.8,160.9h-23.9h-9.2h-5.4c-1,0-1.8,0.8-1.8,1.8s0.8,1.8,1.8,1.8h5.4h9.2h23.9c1,0,1.8-0.8,1.8-1.8
			C444.6,161.7,443.8,160.9,442.8,160.9z"/>
		<path class="st6" d="M275.4,110.3h-23.9h-9.2h-5.4c-1,0-1.8,0.8-1.8,1.8s0.8,1.8,1.8,1.8h5.4h9.2h23.9c1,0,1.8-0.8,1.8-1.8
			C277.3,111.1,276.4,110.3,275.4,110.3z"/>
		<path class="st6" d="M314,96.5h-23.9h-9.2h-5.4c-1,0-1.8,0.8-1.8,1.8s0.8,1.8,1.8,1.8h5.4h9.2H314c1,0,1.8-0.8,1.8-1.8
			S315,96.5,314,96.5z"/>
		<path class="st6" d="M205.3,91.4h-23.9h-9.2h-5.4c-1,0-1.8,0.8-1.8,1.8s0.8,1.8,1.8,1.8h5.4h9.2h23.9c1,0,1.8-0.8,1.8-1.8
			C207.1,92.3,206.2,91.4,205.3,91.4z"/>
		<path class="st3" d="M568.7,105h-23.9h-9.2h-5.4c-1,0-1.8,0.8-1.8,1.8s0.8,1.8,1.8,1.8h5.4h9.2h23.9c1,0,1.8-0.8,1.8-1.8
			S569.7,105,568.7,105z"/>
		<path class="st3" d="M514.2,123.5h-33.3H468h-7.5c-1.4,0-2.5,1.1-2.5,2.5s1.1,2.5,2.5,2.5h7.5h12.9h33.3c1.4,0,2.5-1.1,2.5-2.5
			C516.8,124.6,515.6,123.5,514.2,123.5z"/>
		<path class="st3" d="M221.1,139.5h-33.3h-12.9h-7.5c-1.4,0-2.5,1.1-2.5,2.5s1.1,2.5,2.5,2.5h7.5h13.9h33.3c0.4,0,1.5-1.1,1.5-2.5
			S222.5,139.5,221.1,139.5z"/>
		<path class="st3" d="M657.3,142.5H624h-12.9h-7.5c-1.4,0-2.5,1.1-2.5,2.5s1.1,2.5,2.5,2.5h7.5H624h33.3c1.4,0,2.5-1.1,2.5-2.5
			S658.7,142.5,657.3,142.5z"/>
		<path class="st3" d="M600.3,128.5H567h-12.9h-7.5c-1.4,0-2.5,1.1-2.5,2.5s1.1,2.5,2.5,2.5h7.5H567h33.3c1.4,0,2.5-1.1,2.5-2.5
			S601.7,128.5,600.3,128.5z"/>
		<path class="st6" d="M596.6,114.3h-23.9h-9.2h-5.4c-1,0-1.8,0.8-1.8,1.8s0.8,1.8,1.8,1.8h5.4h9.2h23.9c1,0,1.8-0.8,1.8-1.8
			C598.4,115.1,597.6,114.3,596.6,114.3z"/>
		<path class="st6" d="M635.2,100.5h-23.9h-9.2h-5.4c-1,0-1.8,0.8-1.8,1.8s0.8,1.8,1.8,1.8h5.4h9.2h23.9c1,0,1.8-0.8,1.8-1.8
			S636.2,100.5,635.2,100.5z"/>
		<path class="st6" d="M526.4,95.4h-23.9h-9.2h-5.4c-1,0-1.8,0.8-1.8,1.8s0.8,1.8,1.8,1.8h5.4h9.2h23.9c1,0,1.8-0.8,1.8-1.8
			C528.2,96.3,527.4,95.4,526.4,95.4z"/>
		<path class="st6" d="M460.2,148.5h-23.9h-9.2h-5.4c-1,0-1.8,0.8-1.8,1.8s0.8,1.8,1.8,1.8h5.4h9.2h23.9c1,0,1.8-0.8,1.8-1.8
			C462,149.4,461.2,148.5,460.2,148.5z"/>
		<path class="st6" d="M292.1,153.5h-23.9H259h-5.4c-1,0-1.8,0.8-1.8,1.8s0.8,1.8,1.8,1.8h5.4h10.2h23.9c0,0,0.8-0.8,0.8-1.8
			C293.9,154.4,293.1,153.5,292.1,153.5z"/>
		<path class="st6" d="M247.1,131.5h-23.9H214h-5.4c-1,0-1.8,0.8-1.8,1.8s0.8,1.8,1.8,1.8h5.4h10.2h23.9c0,0,0.8-0.8,0.8-1.8
			C248.9,132.4,248.1,131.5,247.1,131.5z"/>
		<path class="st6" d="M535.2,150.5h-23.9h-9.2h-5.4c-1,0-1.8,0.8-1.8,1.8s0.8,1.8,1.8,1.8h5.4h9.2h23.9c1,0,1.8-0.8,1.8-1.8
			C537,151.4,536.2,150.5,535.2,150.5z"/>
		<path class="st3" d="M443.6,83.9h-23.9h-9.2h-5.4c-1,0-1.8,0.8-1.8,1.8s0.8,1.8,1.8,1.8h5.4h9.2h23.9c1,0,1.8-0.8,1.8-1.8
			C445.4,84.7,444.6,83.9,443.6,83.9z"/>
		<path class="st3" d="M437.5,80.3h-23.9h-9.2H399c-1,0-1.8,0.8-1.8,1.8s0.8,1.8,1.8,1.8h5.4h9.2h23.9c1,0,1.8-0.8,1.8-1.8
			C439.3,81.1,438.5,80.3,437.5,80.3z"/>
		<polygon class="st1" points="1400.5,80.5 -529.5,80.5 -530.5,80 1399.5,80 		"/>
		<path class="st7" d="M447.8,87.5h-4.3h-4.6h-15.2h-19.5H389h-4.6h-4.3c-1.6,0-3,1.3-3,3c0,1.6,1.3,3,3,3h4.3h4.6h15.2h19.5h15.2
			h4.6h4.3c1.6,0,3-1.3,3-3C450.7,88.8,449.4,87.5,447.8,87.5z"/>
		<path class="st6" d="M902.4,93.6h-7.6v-0.2H776.5h-45.6h-26.7c-4.9,0-9,4-9,8.9s4,8.9,9,8.9h7.6v0.2H830h45.6h26.7
			c4.9,0,9-4,9-8.9S907.3,93.6,902.4,93.6z"/>
		<path class="st6" d="M844.7,111.8h-14.6h-24.9h-64.5v0.1h-4.3h-14.6c-2.7,0-4.9,2.2-4.9,4.9c0,2.7,2.2,4.9,4.9,4.9h14.6h24.9h64.5
			v-0.1h4.3h14.6c2.7,0,4.9-2.2,4.9-4.9C849.6,114,847.4,111.8,844.7,111.8z"/>
		<path class="st6" d="M891.1,121.7h-18.5h-4.2H841h-54.4h-27.4H755h-18.5c-3.4,0-6.2,2.8-6.2,6.2s2.8,6.2,6.2,6.2H755h4.2h27.4H841
			h27.4h4.2h18.5c3.4,0,6.2-2.8,6.2-6.2C897.3,124.5,894.5,121.7,891.1,121.7z"/>
		<path class="st6" d="M930.3,134.2h-18.5h-31.6h-32l0,0h-81.8h-31.6h-18.5c-3.4,0-6.2,2.8-6.2,6.2s2.8,6.2,6.2,6.2h18.5h31.6h32
			l0,0h81.8h31.6h18.5c3.4,0,6.2-2.8,6.2-6.2S933.7,134.2,930.3,134.2z"/>
		<path class="st6" d="M888.6,146.6h-18.5h-1.7h-29.9h-51.9h-29.9H755h-18.5c-3.4,0-6.2,2.8-6.2,6.2s2.8,6.2,6.2,6.2H755h1.7h29.9
			h51.9h29.9h1.7h18.5c3.4,0,6.2-2.8,6.2-6.2C894.8,149.3,892,146.6,888.6,146.6z"/>
		<path class="st6" d="M905.1,158.9h-18.5H855h-81.8l0,0h-15.1c-3.4,0-6.2,2.8-6.2,6.2s2.8,6.2,6.2,6.2h18.5h31.6H890l0,0h15.1
			c3.4,0,6.2-2.8,6.2-6.2S908.6,158.9,905.1,158.9z"/>
	</g>
</g>
<g id="terra">
	<g>
		<g>
			<path class="st1" d="M853.6,82l-23.4-2.3c-1.6,1.4-3.7,2.3-6,2.3H853.6z"/>
			<path class="st1" d="M1050.9,15.6H884.6c2.2-0.9,403.9-3.1,403.9-5.6c0-3.4-2.7-6.1-6.1-6.1H756.2c-3.4,0-6.1,2.7-6.1,6.1
				c0,2.5,1.5,4.7,3.7,5.6h-15.5c-8.4,0-15.2,6.8-15.2,15.2S729.9,46,738.3,46h-37.7c-5,0-9,4-9,9c0,4.7,3.6,8.5,8.1,8.9h-42.5
				c-0.1,0-0.2-0.1-0.3-0.1s-0.2,0.1-0.3,0.1h-6v0.8l-0.7-0.7h-10.7c-5,0-9,4-9,9s4,9,9,9h29.3l-10.9-10.5h46.6v-4.2l126,12.5
				c1.8-1.6,3-4,3-6.7c0-5-4-9-9-9h61.4c5,0,9-4,9-9s-4-9-9-9h165.3c8.4,0,15.2-6.8,15.2-15.2C1066.1,22.4,1059.3,15.6,1050.9,15.6z
				"/>
		</g>
		<g>
			<path class="st8" d="M657.3,60.6h-6.1c-0.8,0-1.4,0.6-1.4,1.4s0.6,1.4,1.4,1.4h6.1c0.8,0,1.4-0.6,1.4-1.4S658,60.6,657.3,60.6z"
				/>
			<path class="st8" d="M674.5,62.6h-0.6v-4.8c0-0.8-0.6-1.4-1.4-1.4c-0.8,0-1.4,0.6-1.4,1.4v6.1c0,0.8,0.6,1.4,1.4,1.4h2
				c0.7,0,1.3-0.6,1.3-1.3C675.9,63.2,675.3,62.6,674.5,62.6z"/>
			
				<linearGradient id="SVGID_2_" gradientUnits="userSpaceOnUse" x1="965.1832" y1="184.8323" x2="965.1832" y2="79.1856" gradientTransform="matrix(1 0 0 -1 0 189.7323)">
				<stop  offset="0" style="stop-color:#2F328F"/>
				<stop  offset="1" style="stop-color:#300B30"/>
			</linearGradient>
			<path class="st9" d="M1287.5,4.9h-531c-3.4,0-6.1,2.7-6.1,6.1c0,2.5,1.5,4.7,3.7,5.6h-15.5c-8.4,0-15.2,6.8-15.2,15.2
				S730.2,47,738.6,47h-37.7c-5,0-9,4-9,9s4,9,9,9H672c1.1-0.3,2-1.3,2-2.6c0-0.1,0-0.1,0-0.2V49.7c0.2-0.2,0.4-0.4,0.6-0.7h1.6l0,0
				c0.1,0,0.2-0.1,0.2-0.2c0-0.1-0.1-0.2-0.2-0.2l0,0h-1.5c0-0.1,0-0.2,0-0.2h1.5l0,0c0.1,0,0.2-0.1,0.2-0.2c0-0.1-0.1-0.2-0.2-0.2
				l0,0h-1.5c0-0.1,0-0.2,0-0.2h1.5l0,0c0.1,0,0.2-0.1,0.2-0.2c0-0.1-0.1-0.2-0.2-0.2l0,0h-1.6c-0.1-0.3-0.4-0.5-0.7-0.7
				c-0.5-3-3.1-5.2-6.2-5.2c-3.5,0-6.3,2.8-6.3,6.3v11.1h-3c-1.7,0-3.1,1.4-3.1,3.1c0,0.1,0,0.2,0,0.3h-5c-0.8,0-1.4,0.6-1.4,1.4
				c0,0.7,0.5,1.2,1.2,1.3h-10.7c-5,0-9,4-9,9s4,9,9,9h29.3c-5,0-9,4-9,9s4,9,9,9h30.5v0.8c-2.2,0.2-4,2-4,4.3
				c0,2.4,1.9,4.3,4.3,4.3h42h47.3h510.5C1302.9,110.6,1290.9,4.9,1287.5,4.9z M657.1,64.9c0.2,0.1,0.3,0.1,0.5,0.2h-1
				C656.8,65.1,657,65,657.1,64.9z"/>
		</g>
	</g>
	<g>
		<path class="st1" d="M365.5,110.2H282c0.6-0.6,1.1-1.5,1.1-2.5c0-1.9-1.5-3.4-3.4-3.4H276V73.9c2.3-2,3.7-5,3.7-8.3V49.5h7.7
			c0.1,0,0.1,0,0.2,0s0.1,0,0.2,0c1.3,0,2.4-1.1,2.4-2.4V33.3v-1.2v-2.9c0-1.3-1.1-2.4-2.4-2.4c-0.1,0-0.2,0-0.3,0
			c-0.5-0.8-1.5-1.4-2.6-1.4h-4.3c-1.7,0-3,1.4-3,3c0,0.4,0.1,0.7,0.2,1.1l-4.3,7.6c-0.6-0.3-1.2-0.5-1.9-0.7V35c0-0.1,0-0.1,0-0.2
			c3-1.2,5.1-4,5.1-7.4V19c0-0.9-0.2-1.8-0.5-2.7h0.9c1.5,0,2.6-1.2,2.6-2.6s-1.2-2.6-2.6-2.6h-5.7c-0.3,0-0.7,0.1-1,0.2
			c-0.5-0.1-1.1-0.2-1.7-0.2c-4.4,0-8,3.6-8,8v8.4c0,3.5,2.3,6.4,5.4,7.5v0.1v1.5c-4.8,1.2-8.4,5.5-8.4,10.7v18.5
			c0,3.3,1.5,6.3,3.8,8.3v33.7c0,0.9,0.4,1.8,0.9,2.4H131.8c0,0,0,0,0.1,0c-0.7,0-1.3,0-2,0l0,0h-5.3c-0.3,0.1-0.6,0.1-1,0.1
			c-0.3,0-0.7-0.1,0-0.1h-412.1l-1,60.4h654.9c16.7,0,30.2-13.5,30.2-30.2C395.7,123.7,382.2,110.2,365.5,110.2z M282.1,31.6h2.9
			c0.2,0,0.3,0,0.5,0v1.3v0.5V44h-6.3c-0.4-1.4-1.1-2.7-2-3.8L282.1,31.6z"/>
		<g>
			<path class="st10" d="M266.2,112.1c1.2,0,2.6,0.1,4.1,0.1c-0.1,0-0.1-0.1-0.2-0.1H266.2z"/>
			<path class="st10" d="M272.3,112.2c1.5,0,3.1,0,4.7-0.1h-4.5C272.5,112.2,272.4,112.2,272.3,112.2z"/>
			<path class="st10" d="M265.4,112.1c-0.1,0-0.2,0.1-0.3,0.1h5.3l0,0c-1.5,0-2.9,0-4.1-0.1H265.4z"/>
			<path class="st11" d="M265.4,112.1h0.8c-1.5,0-2.8-0.1-3.7-0.2c0.2,0.1,0.4,0.2,0.7,0.3h1.9C265.2,112.2,265.3,112.2,265.4,112.1
				z"/>
			<g>
				<path class="st11" d="M284,26.5h-4.3c-1.7,0-3,1.4-3,3c0,0.4,0.1,0.7,0.2,1.1l-8.5,14.9c-0.6,1.1-0.2,2.5,0.9,3.2
					c1.1,0.6,2.5,0.2,3.2-0.9l8.7-15.2h2.9c1.7,0,3-1.4,3-3S285.7,26.5,284,26.5z"/>
				<path class="st11" d="M270.1,112.1c-1.4-0.5-2.4-1.8-2.4-3.4v-31c-2.7,0-5.2-1-7.2-2.7v33.7c0,1.4,0.8,2.6,2,3.2
					c0.9,0.1,2.1,0.1,3.7,0.2C266.2,112.1,270.1,112.1,270.1,112.1z"/>
			</g>
			
				<linearGradient id="SVGID_3_" gradientUnits="userSpaceOnUse" x1="278.15" y1="177.6323" x2="278.15" y2="17.1228" gradientTransform="matrix(1 0 0 -1 0 189.7323)">
				<stop  offset="0" style="stop-color:#2F328F"/>
				<stop  offset="1" style="stop-color:#300B30"/>
			</linearGradient>
			<path class="st12" d="M278.6,112.1c0.3,0,0.5,0,0.7-0.1c-0.8,0-1.5,0.1-2.3,0.1H278.6z"/>
			<path class="st11" d="M265.2,112.2h-1.9c0.3,0.1,0.6,0.1,1,0.1C264.5,112.4,264.8,112.3,265.2,112.2z"/>
			
				<linearGradient id="SVGID_4_" gradientUnits="userSpaceOnUse" x1="264.25" y1="177.6323" x2="264.25" y2="17.1228" gradientTransform="matrix(1 0 0 -1 0 189.7323)">
				<stop  offset="0" style="stop-color:#2F328F"/>
				<stop  offset="1" style="stop-color:#300B30"/>
			</linearGradient>
			<path class="st13" d="M265.2,112.2h-1.9c0.3,0.1,0.6,0.1,1,0.1C264.5,112.4,264.8,112.3,265.2,112.2z"/>
			<path class="st11" d="M267.7,108.8c0,1.6,1,2.9,2.4,3.4h1.3c1.9,0,3.4-1.5,3.4-3.4s-1.5-3.4-3.4-3.4h-3.6v-34
				c0-2-1.6-3.6-3.6-3.6s-3.6,1.6-3.6,3.6V75c1.9,1.7,4.4,2.7,7.2,2.7L267.7,108.8L267.7,108.8z"/>
			
				<linearGradient id="SVGID_5_" gradientUnits="userSpaceOnUse" x1="272.95" y1="177.6323" x2="272.95" y2="17.2709" gradientTransform="matrix(1 0 0 -1 0 189.7323)">
				<stop  offset="0" style="stop-color:#2F328F"/>
				<stop  offset="1" style="stop-color:#300B30"/>
			</linearGradient>
			<path class="st14" d="M286.9,27.9c-1.3,0-2.4,1.1-2.4,2.4v3.6v0.5V45h-6.3c-1.1-3.6-4-6.4-7.6-7.3V36c0-0.1,0-0.1,0-0.2
				c3-1.2,5.1-4,5.1-7.4V20c0-0.9-0.2-1.8-0.5-2.7h0.9c1.5,0,2.6-1.2,2.6-2.6c0-1.5-1.2-2.6-2.6-2.6h-5.7c-0.3,0-0.7,0.1-1,0.2
				c-0.5-0.1-1.1-0.2-1.7-0.2c-4.4,0-8,3.6-8,8v8.4c0,3.5,2.3,6.4,5.4,7.5v0.1v1.5c-4.8,1.2-8.4,5.5-8.4,10.7v18.5
				c0,3.3,1.5,6.3,3.8,8.3c1.9,1.7,4.4,2.7,7.2,2.7v31.1c0,1.6,1,2.9,2.4,3.4c0.1,0,0.1,0.1,0.2,0.1c0.6,0,1.3,0,2,0
				c0.1,0,0.2,0,0.3-0.1h4.5c0.7,0,1.5,0,2.3-0.1c1.5-0.3,2.7-1.7,2.7-3.3c0-1.9-1.5-3.4-3.4-3.4H275V74.9c2.3-2,3.7-5,3.7-8.3V50.5
				h7.7c0.1,0,0.1,0,0.2,0s0.1,0,0.2,0c1.3,0,2.4-1.1,2.4-2.4V34.3v-1.2v-2.9C289.2,28.9,288.2,27.9,286.9,27.9z"/>
		</g>
		
			<linearGradient id="SVGID_6_" gradientUnits="userSpaceOnUse" x1="54.0503" y1="178.1944" x2="54.0503" y2="17.6848" gradientTransform="matrix(1 0 0 -1 0 189.7323)">
			<stop  offset="0" style="stop-color:#2F328F"/>
			<stop  offset="1" style="stop-color:#300B30"/>
		</linearGradient>
		<path class="st15" d="M366.5,111.7H132.8c0,0,0,0,0.1,0c-0.7,0-1.3,0-2,0l0,0h-5.3c-0.3,0.1-0.6,0.1-1,0.1c-0.3,0-0.7-0.1-1-0.1
			h-412.1V172h654.9c16.7,0,30.2-13.5,30.2-30.2C396.7,125.2,383.2,111.7,366.5,111.7z"/>
	</g>
</g>
<g id="Layer_5">
</g>
<g id="Layer_6">
</g>
</svg>
