<?xml version="1.0" encoding="utf-8"?>
<!-- Generator: Adobe Illustrator 22.0.1, SVG Export Plug-In . SVG Version: 6.00 Build 0)  -->
<svg version="1.1" xmlns="http://www.w3.org/2000/svg" xmlns:xlink="http://www.w3.org/1999/xlink" x="0px" y="0px"
	 viewBox="0 0 1920 1200" style="enable-background:new 0 0 1920 1200;" xml:space="preserve">
<style type="text/css">
	.st0{clip-path:url(#SVGID_2_);}
	.st1{fill:url(#SVGID_3_);}
	.st2{opacity:0.1;fill:#FFFFFF;}
	.st3{fill:#FFFFFF;}
	.st4{fill:url(#SVGID_4_);}
	.st5{opacity:0.2;fill:#FFFFFF;}
	.st6{opacity:0.3;fill:#FFFFFF;}
	.st7{opacity:0.2;fill:#242A4C;}
	.st8{opacity:0.4;fill:#FFFFFF;}
	.st9{fill:#34234B;}
	.st10{fill:url(#SVGID_5_);}
	.st11{fill:none;}
	.st12{fill:#2A1C3E;}
	.st13{fill:url(#SVGID_6_);}
	.st14{fill:url(#SVGID_7_);}
	.st15{fill:url(#SVGID_8_);}
	.st16{fill:url(#SVGID_9_);}
	.st17{fill:url(#SVGID_10_);}
	.st18{fill:#EB1B7F;}
	.st19{fill:url(#SVGID_11_);}
	.st20{fill:url(#SVGID_12_);}
	.st21{fill:url(#SVGID_13_);}
	.st22{fill:url(#SVGID_14_);}
	.st23{fill:#2D5A96;}
	.st24{clip-path:url(#SVGID_16_);fill:url(#SVGID_17_);}
	.st25{opacity:0.1;clip-path:url(#SVGID_16_);fill:#FFFFFF;}
	.st26{clip-path:url(#SVGID_16_);fill:#FFFFFF;}
	.st27{clip-path:url(#SVGID_16_);fill:url(#SVGID_18_);}
	.st28{opacity:0.2;clip-path:url(#SVGID_16_);fill:#FFFFFF;}
	.st29{opacity:0.3;clip-path:url(#SVGID_16_);fill:#FFFFFF;}
	.st30{opacity:0.2;clip-path:url(#SVGID_16_);fill:#242A4C;}
	.st31{opacity:0.4;clip-path:url(#SVGID_16_);fill:#FFFFFF;}
	.st32{clip-path:url(#SVGID_16_);}
	.st33{fill:url(#SVGID_19_);}
	.st34{fill:url(#SVGID_20_);}
	.st35{fill:url(#SVGID_21_);}
	.st36{fill:url(#SVGID_22_);}
	.st37{fill:url(#SVGID_23_);}
	.st38{fill:url(#SVGID_24_);}
	.st39{fill:url(#SVGID_25_);}
	.st40{fill:#20749D;}
	.st41{fill:url(#SVGID_26_);}
	.st42{fill:url(#SVGID_27_);}
	.st43{fill:url(#SVGID_28_);}
	.st44{fill:url(#SVGID_29_);}
	.st45{fill:url(#SVGID_30_);}
	.st46{fill:url(#SVGID_31_);}
	.st47{fill:url(#SVGID_32_);}
	.st48{fill:url(#SVGID_33_);}
	.st49{fill:url(#SVGID_34_);}
	.st50{fill:url(#SVGID_35_);}
	.st51{fill:url(#SVGID_36_);}
	.st52{fill:url(#SVGID_37_);}
	.st53{fill:url(#SVGID_38_);}
	.st54{fill:url(#SVGID_39_);}
	.st55{fill:url(#SVGID_40_);}
	.st56{fill:url(#SVGID_41_);}
	.st57{fill:url(#SVGID_42_);}
	.st58{fill:url(#SVGID_43_);}
	.st59{fill:url(#SVGID_44_);}
	.st60{fill:url(#SVGID_45_);}
	.st61{fill:url(#SVGID_46_);}
	.st62{fill:url(#SVGID_47_);}
	.st63{fill:url(#SVGID_48_);}
	.st64{fill:url(#SVGID_49_);}
	.st65{fill:url(#SVGID_50_);}
	.st66{fill:url(#SVGID_51_);}
	.st67{fill:url(#SVGID_52_);}
	.st68{fill:url(#SVGID_53_);}
	.st69{fill:url(#SVGID_54_);}
	.st70{fill:url(#SVGID_55_);}
	.st71{fill:url(#SVGID_56_);}
	.st72{fill:url(#SVGID_57_);}
	.st73{fill:url(#SVGID_58_);}
	.st74{fill:url(#SVGID_59_);}
	.st75{fill:url(#SVGID_60_);}
	.st76{fill:url(#SVGID_61_);}
	.st77{fill:url(#SVGID_62_);}
	.st78{fill:url(#SVGID_63_);}
	.st79{fill:url(#SVGID_64_);}
</style>
<g id="Layer_1">
</g>
<g id="ceu">
	<g>
		<linearGradient id="SVGID_2_" gradientUnits="userSpaceOnUse" x1="962.3473" y1="-1.9632" x2="962.3473" y2="1208.0367">
			<stop  offset="0" style="stop-color:#53A2C6"/>
			<stop  offset="0" style="stop-color:#53A2C6"/>
			<stop  offset="0.1242" style="stop-color:#5CA7CA"/>
			<stop  offset="0.3248" style="stop-color:#74B6D5"/>
			<stop  offset="0.5752" style="stop-color:#9ACEE6"/>
			<stop  offset="0.8226" style="stop-color:#C7EAFB"/>
		</linearGradient>
		<rect x="-2.1" y="-2" style="fill:url(#SVGID_2_);" width="1928.8" height="1210"/>
		<path class="st2" d="M298,820.7H171.5h-48.8H94.2c-5.3,0-9.6,4.3-9.6,9.6c0,5.3,4.3,9.6,9.6,9.6h28.6h48.8H298
			c5.3,0,9.6-4.3,9.6-9.6C307.6,825,303.3,820.7,298,820.7z"/>
		<path class="st2" d="M357.9,896.7H157.1H79.6H34.3c-8.4,0-15.2,6.8-15.2,15.2c0,8.4,6.8,15.2,15.2,15.2h45.3h77.5h200.8
			c8.4,0,15.2-6.8,15.2-15.2C373.1,903.5,366.3,896.7,357.9,896.7z"/>
		<path class="st2" d="M253.1,958.5H52.4h-77.5h-45.3c-8.4,0-15.2,6.8-15.2,15.2c0,8.4,6.8,15.2,15.2,15.2h45.3h77.5h200.8
			c8.4,0,15.2-6.8,15.2-15.2C268.3,965.3,261.5,958.5,253.1,958.5z"/>
		<path class="st2" d="M536.4,1040.6H405.3h-50.6h-29.6c-5.5,0-9.9,4.4-9.9,9.9c0,5.5,4.4,9.9,9.9,9.9h29.6h50.6h131.1
			c5.5,0,9.9-4.4,9.9-9.9C546.3,1045.1,541.9,1040.6,536.4,1040.6z"/>
		<path class="st2" d="M654.5,821.7H540.9h-43.9h-25.7c-4.7,0-8.6,3.9-8.6,8.6c0,4.8,3.8,8.6,8.6,8.6h25.7h43.9h113.6
			c4.8,0,8.6-3.8,8.6-8.6C663.1,825.5,659.3,821.7,654.5,821.7z"/>
		<path class="st2" d="M1368.9,779.4h-131.1h-50.6h-29.6c-5.5,0-9.9,4.4-9.9,9.9c0,5.5,4.4,9.9,9.9,9.9h29.6h50.6h131.1
			c5.5,0,9.9-4.4,9.9-9.9C1378.8,783.9,1374.3,779.4,1368.9,779.4z"/>
		<path class="st2" d="M1407.9,927.1h-131.1h-50.6h-29.6c-5.5,0-9.9,4.4-9.9,9.9c0,5.5,4.4,9.9,9.9,9.9h29.6h50.6h131.1
			c5.5,0,9.9-4.4,9.9-9.9C1417.8,931.6,1413.4,927.1,1407.9,927.1z"/>
		<path class="st3" d="M67.7,1073.7c0,1.3-1.1,2.4-2.4,2.4c-1.3,0-2.4-1.1-2.4-2.4c0-1.3,1.1-2.4,2.4-2.4
			C66.6,1071.4,67.7,1072.4,67.7,1073.7z"/>
		<path class="st3" d="M28.6,809.2c0,1.1-0.9,1.9-1.9,1.9c-1.1,0-1.9-0.9-1.9-1.9c0-1.1,0.9-1.9,1.9-1.9
			C27.7,807.3,28.6,808.2,28.6,809.2z"/>
		<path class="st3" d="M142,859.6c0,1.7-1.3,3-3,3c-1.7,0-3-1.3-3-3c0-1.7,1.4-3,3-3C140.7,856.6,142,857.9,142,859.6z"/>
		<path class="st3" d="M240.8,877.5c0,1.3-1,2.3-2.3,2.3c-1.3,0-2.3-1-2.3-2.3c0-1.3,1-2.3,2.3-2.3
			C239.8,875.2,240.8,876.2,240.8,877.5z"/>
		<path class="st3" d="M202.1,792.3c0,1.6-1.3,3-3,3c-1.6,0-3-1.3-3-3c0-1.6,1.3-3,3-3C200.7,789.4,202.1,790.7,202.1,792.3z"/>
		<path class="st3" d="M467.1,1098.4c0,0.9-0.8,1.7-1.7,1.7c-0.9,0-1.7-0.8-1.7-1.7c0-0.9,0.8-1.7,1.7-1.7
			C466.3,1096.7,467.1,1097.4,467.1,1098.4z"/>
		<path class="st3" d="M84.6,884.6c0,0.9-0.8,1.7-1.7,1.7c-0.9,0-1.7-0.7-1.7-1.7c0-0.9,0.8-1.7,1.7-1.7
			C83.9,882.9,84.6,883.6,84.6,884.6z"/>
		<path class="st3" d="M411.4,765c0,0.9-0.8,1.7-1.7,1.7c-0.9,0-1.7-0.8-1.7-1.7c0-0.9,0.8-1.7,1.7-1.7
			C410.6,763.3,411.4,764,411.4,765z"/>
		<path class="st3" d="M384.6,882.9c0,0.9-0.8,1.7-1.7,1.7c-0.9,0-1.7-0.8-1.7-1.7c0-0.9,0.8-1.7,1.7-1.7
			C383.9,881.2,384.6,882,384.6,882.9z"/>
		<path class="st3" d="M316.9,947.3c0,0.9-0.8,1.7-1.7,1.7c-0.9,0-1.7-0.8-1.7-1.7c0-0.9,0.8-1.7,1.7-1.7
			C316.1,945.6,316.9,946.4,316.9,947.3z"/>
		<path class="st3" d="M116.1,938.2c0,0.9-0.8,1.7-1.7,1.7c-0.9,0-1.7-0.7-1.7-1.7c0-0.9,0.8-1.7,1.7-1.7
			C115.3,936.5,116.1,937.3,116.1,938.2z"/>
		<path class="st3" d="M358.1,805.7c0,0.9-0.8,1.7-1.7,1.7c-0.9,0-1.7-0.8-1.7-1.7c0-0.9,0.8-1.7,1.7-1.7
			C357.4,804,358.1,804.7,358.1,805.7z"/>
		<path class="st3" d="M452.9,811.1c0,0.9-0.8,1.7-1.7,1.7c-0.9,0-1.7-0.8-1.7-1.7c0-0.9,0.8-1.7,1.7-1.7
			C452.2,809.5,452.9,810.2,452.9,811.1z"/>
		<path class="st3" d="M548,773.4c0,0.9-0.8,1.7-1.7,1.7c-0.9,0-1.7-0.8-1.7-1.7c0-0.9,0.8-1.7,1.7-1.7
			C547.2,771.7,548,772.4,548,773.4z"/>
		<path class="st3" d="M640,873.5c0,0.9-0.8,1.7-1.7,1.7c-0.9,0-1.7-0.7-1.7-1.7c0-0.9,0.8-1.7,1.7-1.7
			C639.3,871.9,640,872.6,640,873.5z"/>
		<path class="st3" d="M650.4,779.8c0,0.9-0.8,1.7-1.7,1.7c-0.9,0-1.7-0.8-1.7-1.7c0-0.9,0.8-1.7,1.7-1.7
			C649.6,778.2,650.4,778.9,650.4,779.8z"/>
		<path class="st3" d="M566.3,873.5c0,0.9-0.8,1.7-1.7,1.7c-0.9,0-1.7-0.7-1.7-1.7c0-0.9,0.8-1.7,1.7-1.7
			C565.6,871.9,566.3,872.6,566.3,873.5z"/>
		<path class="st3" d="M754.8,779.8c0,0.9-0.8,1.7-1.7,1.7c-0.9,0-1.7-0.8-1.7-1.7c0-0.9,0.8-1.7,1.7-1.7
			C754.1,778.2,754.8,778.9,754.8,779.8z"/>
		<path class="st3" d="M637.4,936.5c0,0.9-0.8,1.7-1.7,1.7c-0.9,0-1.7-0.7-1.7-1.7c0-0.9,0.8-1.7,1.7-1.7
			C636.7,934.9,637.4,935.6,637.4,936.5z"/>
		<path class="st3" d="M451.2,930.1c0,0.9-0.8,1.7-1.7,1.7c-0.9,0-1.7-0.8-1.7-1.7c0-0.9,0.8-1.7,1.7-1.7
			C450.5,928.4,451.2,929.1,451.2,930.1z"/>
		<path class="st3" d="M1117.8,789.4c0,0.9-0.8,1.7-1.7,1.7c-0.9,0-1.7-0.8-1.7-1.7c0-0.9,0.8-1.7,1.7-1.7
			C1117,787.7,1117.8,788.4,1117.8,789.4z"/>
		<path class="st3" d="M551.4,977.6c0,0.9-0.8,1.7-1.7,1.7c-0.9,0-1.7-0.8-1.7-1.7c0-0.9,0.8-1.7,1.7-1.7
			C550.6,975.9,551.4,976.7,551.4,977.6z"/>
		<path class="st3" d="M1199.6,875.2c0,0.9-0.8,1.7-1.7,1.7c-0.9,0-1.7-0.7-1.7-1.7c0-0.9,0.8-1.7,1.7-1.7
			C1198.9,873.5,1199.6,874.3,1199.6,875.2z"/>
		<path class="st3" d="M1188.4,841.5c0,0.9-0.8,1.7-1.7,1.7c-0.9,0-1.7-0.8-1.7-1.7c0-0.9,0.8-1.7,1.7-1.7
			C1187.6,839.8,1188.4,840.6,1188.4,841.5z"/>
		<path class="st3" d="M1127.2,830.3c0,0.9-0.8,1.7-1.7,1.7c-0.9,0-1.7-0.8-1.7-1.7c0-0.9,0.8-1.7,1.7-1.7
			C1126.5,828.6,1127.2,829.3,1127.2,830.3z"/>
		<path class="st3" d="M1034.3,771.7c0,0.9-0.8,1.7-1.7,1.7c-0.9,0-1.7-0.8-1.7-1.7c0-0.9,0.8-1.7,1.7-1.7
			C1033.6,770,1034.3,770.8,1034.3,771.7z"/>
		<path class="st3" d="M664.8,1017.7c0,0.9-0.8,1.7-1.7,1.7c-0.9,0-1.7-0.7-1.7-1.7c0-0.9,0.8-1.7,1.7-1.7
			C664,1016.1,664.8,1016.8,664.8,1017.7z"/>
		<path class="st3" d="M1208.7,1040.6c0,0.9-0.8,1.7-1.7,1.7c-0.9,0-1.7-0.8-1.7-1.7c0-0.9,0.8-1.7,1.7-1.7
			C1207.9,1039,1208.7,1039.7,1208.7,1040.6z"/>
		<path class="st3" d="M1.9,1027.7c0,0.9-0.8,1.7-1.7,1.7c-0.9,0-1.7-0.8-1.7-1.7c0-0.9,0.8-1.7,1.7-1.7
			C1.1,1026,1.9,1026.8,1.9,1027.7z"/>
		<path class="st3" d="M401.5,988.9c0,0.9-0.8,1.7-1.7,1.7c-0.9,0-1.7-0.8-1.7-1.7c0-0.9,0.8-1.7,1.7-1.7
			C400.8,987.3,401.5,988,401.5,988.9z"/>
		<path class="st3" d="M1136,170.6c-1.3,0.2-2.1,1.5-1.8,2.7c0.2,1.3,1.5,2.1,2.7,1.8l125.4-29.6L1136,170.6z"/>
		<path class="st3" d="M374.2,885c1.2,0.4,1.9,1.7,1.5,2.9c-0.4,1.2-1.7,1.9-2.9,1.5L251.2,847L374.2,885z"/>
		<path class="st2" d="M271,431.5H144.5H95.7H67.1c-5.3,0-9.6,4.3-9.6,9.6c0,5.3,4.3,9.6,9.6,9.6h28.6h48.8H271
			c5.3,0,9.6-4.3,9.6-9.6C280.5,435.8,276.2,431.5,271,431.5z"/>
		<path class="st2" d="M330.8,507.5H130.1H52.6H7.3c-8.4,0-15.2,6.8-15.2,15.2c0,8.4,6.8,15.2,15.2,15.2h45.3h77.5h200.8
			c8.4,0,15.2-6.8,15.2-15.2C346,514.3,339.2,507.5,330.8,507.5z"/>
		<path class="st2" d="M226.1,569.3H25.3h-77.5h-45.3c-8.4,0-15.2,6.8-15.2,15.2c0,8.4,6.8,15.2,15.2,15.2h45.3h77.5h200.8
			c8.4,0,15.2-6.8,15.2-15.2C241.3,576.1,234.5,569.3,226.1,569.3z"/>
		<path class="st2" d="M509.4,651.4H378.3h-50.6h-29.6c-5.5,0-9.9,4.4-9.9,9.9c0,5.5,4.4,9.9,9.9,9.9h29.6h50.6h131.1
			c5.5,0,9.9-4.4,9.9-9.9C519.3,655.9,514.8,651.4,509.4,651.4z"/>
		<path class="st2" d="M627.5,432.4H513.9H470h-25.7c-4.7,0-8.6,3.9-8.6,8.6c0,4.8,3.8,8.6,8.6,8.6H470h43.9h113.6
			c4.8,0,8.6-3.8,8.6-8.6C636.1,436.3,632.2,432.4,627.5,432.4z"/>
		<path class="st3" d="M40.6,684.5c0,1.3-1.1,2.4-2.4,2.4c-1.3,0-2.4-1.1-2.4-2.4c0-1.3,1.1-2.4,2.4-2.4
			C39.6,682.2,40.6,683.2,40.6,684.5z"/>
		<path class="st3" d="M1.6,420c0,1.1-0.9,1.9-1.9,1.9c-1.1,0-1.9-0.9-1.9-1.9c0-1.1,0.9-1.9,1.9-1.9C0.7,418.1,1.6,419,1.6,420z"/>
		<path class="st3" d="M115,470.4c0,1.7-1.3,3-3,3c-1.7,0-3-1.3-3-3c0-1.7,1.4-3,3-3C113.6,467.3,115,468.7,115,470.4z"/>
		<path class="st3" d="M213.7,488.3c0,1.3-1,2.3-2.3,2.3c-1.3,0-2.3-1-2.3-2.3c0-1.3,1-2.3,2.3-2.3C212.7,486,213.7,487,213.7,488.3
			z"/>
		<path class="st3" d="M175,403.1c0,1.6-1.3,3-3,3c-1.6,0-3-1.3-3-3c0-1.6,1.3-3,3-3C173.7,400.1,175,401.5,175,403.1z"/>
		<path class="st3" d="M440,709.1c0,0.9-0.8,1.7-1.7,1.7c-0.9,0-1.7-0.8-1.7-1.7c0-0.9,0.8-1.7,1.7-1.7
			C439.3,707.5,440,708.2,440,709.1z"/>
		<path class="st3" d="M57.6,495.3c0,0.9-0.8,1.7-1.7,1.7c-0.9,0-1.7-0.7-1.7-1.7c0-0.9,0.8-1.7,1.7-1.7
			C56.8,493.7,57.6,494.4,57.6,495.3z"/>
		<path class="st3" d="M384.3,375.7c0,0.9-0.8,1.7-1.7,1.7c-0.9,0-1.7-0.7-1.7-1.7c0-0.9,0.8-1.7,1.7-1.7
			C383.6,374.1,384.3,374.8,384.3,375.7z"/>
		<path class="st3" d="M357.6,493.7c0,0.9-0.8,1.7-1.7,1.7c-0.9,0-1.7-0.7-1.7-1.7c0-0.9,0.8-1.7,1.7-1.7
			C356.9,492,357.6,492.7,357.6,493.7z"/>
		<path class="st3" d="M289.8,558.1c0,0.9-0.8,1.7-1.7,1.7c-0.9,0-1.7-0.7-1.7-1.7c0-0.9,0.8-1.7,1.7-1.7
			C289.1,556.4,289.8,557.1,289.8,558.1z"/>
		<path class="st3" d="M89,549c0,0.9-0.8,1.7-1.7,1.7c-0.9,0-1.7-0.8-1.7-1.7c0-0.9,0.8-1.7,1.7-1.7C88.3,547.3,89,548.1,89,549z"/>
		<path class="st3" d="M331.1,416.4c0,0.9-0.8,1.7-1.7,1.7c-0.9,0-1.7-0.7-1.7-1.7c0-0.9,0.8-1.7,1.7-1.7
			C330.3,414.8,331.1,415.5,331.1,416.4z"/>
		<path class="st3" d="M425.9,421.9c0,0.9-0.8,1.7-1.7,1.7c-0.9,0-1.7-0.7-1.7-1.7c0-0.9,0.8-1.7,1.7-1.7
			C425.1,420.3,425.9,421,425.9,421.9z"/>
		<path class="st3" d="M521,384.1c0,0.9-0.8,1.7-1.7,1.7c-0.9,0-1.7-0.7-1.7-1.7c0-0.9,0.8-1.7,1.7-1.7
			C520.2,382.5,521,383.2,521,384.1z"/>
		<path class="st3" d="M613,484.3c0,0.9-0.8,1.7-1.7,1.7c-0.9,0-1.7-0.7-1.7-1.7c0-0.9,0.8-1.7,1.7-1.7
			C612.2,482.7,613,483.4,613,484.3z"/>
		<path class="st3" d="M623.3,390.6c0,0.9-0.8,1.7-1.7,1.7c-0.9,0-1.7-0.7-1.7-1.7c0-0.9,0.8-1.7,1.7-1.7
			C622.6,388.9,623.3,389.7,623.3,390.6z"/>
		<path class="st3" d="M539.3,484.3c0,0.9-0.8,1.7-1.7,1.7c-0.9,0-1.7-0.7-1.7-1.7c0-0.9,0.8-1.7,1.7-1.7
			C538.5,482.7,539.3,483.4,539.3,484.3z"/>
		<path class="st3" d="M727.8,390.6c0,0.9-0.8,1.7-1.7,1.7c-0.9,0-1.7-0.7-1.7-1.7c0-0.9,0.8-1.7,1.7-1.7
			C727,388.9,727.8,389.7,727.8,390.6z"/>
		<path class="st3" d="M610.4,547.3c0,0.9-0.8,1.7-1.7,1.7c-0.9,0-1.7-0.8-1.7-1.7c0-0.9,0.8-1.7,1.7-1.7
			C609.6,545.7,610.4,546.4,610.4,547.3z"/>
		<path class="st3" d="M424.2,540.8c0,0.9-0.8,1.7-1.7,1.7c-0.9,0-1.7-0.7-1.7-1.7c0-0.9,0.8-1.7,1.7-1.7
			C423.4,539.2,424.2,539.9,424.2,540.8z"/>
		<path class="st3" d="M524.3,588.4c0,0.9-0.8,1.7-1.7,1.7c-0.9,0-1.7-0.7-1.7-1.7c0-0.9,0.8-1.7,1.7-1.7
			C523.6,586.7,524.3,587.4,524.3,588.4z"/>
		<path class="st3" d="M637.8,628.5c0,0.9-0.8,1.7-1.7,1.7c-0.9,0-1.7-0.7-1.7-1.7c0-0.9,0.8-1.7,1.7-1.7
			C637,626.9,637.8,627.6,637.8,628.5z"/>
		<path class="st3" d="M374.5,599.7c0,0.9-0.8,1.7-1.7,1.7c-0.9,0-1.7-0.7-1.7-1.7c0-0.9,0.8-1.7,1.7-1.7
			C373.7,598,374.5,598.8,374.5,599.7z"/>
		<path class="st2" d="M1019.4,513.1H893h-48.8h-28.6c-5.3,0-9.6,4.3-9.6,9.6c0,5.3,4.3,9.6,9.6,9.6h28.6H893h126.4
			c5.3,0,9.6-4.3,9.6-9.6C1029,517.3,1024.7,513.1,1019.4,513.1z"/>
		<path class="st2" d="M1079.3,589.1H878.5H801h-45.3c-8.4,0-15.2,6.8-15.2,15.2c0,8.4,6.8,15.2,15.2,15.2H801h77.5h200.8
			c8.4,0,15.2-6.8,15.2-15.2C1094.5,595.9,1087.7,589.1,1079.3,589.1z"/>
		<path class="st2" d="M974.6,650.9H773.8h-77.5H651c-8.4,0-15.2,6.8-15.2,15.2c0,8.4,6.8,15.2,15.2,15.2h45.3h77.5h200.8
			c8.4,0,15.2-6.8,15.2-15.2C989.7,657.7,982.9,650.9,974.6,650.9z"/>
		<path class="st2" d="M1085.6,879.9H884.8h-77.5H762c-8.4,0-15.2,6.8-15.2,15.2c0,8.4,6.8,15.2,15.2,15.2h45.3h77.5h200.8
			c8.4,0,15.2-6.8,15.2-15.2C1100.7,886.7,1093.9,879.9,1085.6,879.9z"/>
		<path class="st2" d="M1375.9,514h-113.6h-43.9h-25.7c-4.7,0-8.6,3.9-8.6,8.6c0,4.8,3.8,8.6,8.6,8.6h25.7h43.9h113.6
			c4.8,0,8.6-3.8,8.6-8.6C1384.5,517.9,1380.7,514,1375.9,514z"/>
		<path class="st3" d="M713.3,620.5c0,1-0.8,1.9-1.9,1.9c-1,0-1.9-0.8-1.9-1.9c0-1,0.8-1.9,1.9-1.9
			C712.5,618.6,713.3,619.5,713.3,620.5z"/>
		<path class="st3" d="M750,501.6c0,1.1-0.9,1.9-1.9,1.9c-1.1,0-1.9-0.9-1.9-1.9c0-1.1,0.9-1.9,1.9-1.9
			C749.1,499.7,750,500.6,750,501.6z"/>
		<path class="st3" d="M863.4,551.9c0,1.7-1.3,3-3,3c-1.7,0-3-1.3-3-3c0-1.7,1.4-3,3-3C862.1,548.9,863.4,550.3,863.4,551.9z"/>
		<path class="st3" d="M962.2,569.9c0,1.3-1,2.3-2.3,2.3c-1.3,0-2.3-1-2.3-2.3c0-1.3,1-2.3,2.3-2.3
			C961.2,567.6,962.2,568.6,962.2,569.9z"/>
		<path class="st3" d="M923.5,484.7c0,1.6-1.3,3-3,3c-1.6,0-3-1.3-3-3c0-1.6,1.3-3,3-3C922.1,481.7,923.5,483.1,923.5,484.7z"/>
		<path class="st3" d="M806,576.9c0,0.9-0.8,1.7-1.7,1.7c-0.9,0-1.7-0.7-1.7-1.7c0-0.9,0.8-1.7,1.7-1.7
			C805.3,575.3,806,576,806,576.9z"/>
		<path class="st3" d="M1132.8,457.3c0,0.9-0.8,1.7-1.7,1.7c-0.9,0-1.7-0.7-1.7-1.7c0-0.9,0.8-1.7,1.7-1.7
			C1132,455.7,1132.8,456.4,1132.8,457.3z"/>
		<path class="st3" d="M1106.1,575.2c0,0.9-0.8,1.7-1.7,1.7c-0.9,0-1.7-0.7-1.7-1.7c0-0.9,0.8-1.7,1.7-1.7
			C1105.3,573.6,1106.1,574.3,1106.1,575.2z"/>
		<path class="st3" d="M1038.3,639.6c0,0.9-0.8,1.7-1.7,1.7c-0.9,0-1.7-0.7-1.7-1.7c0-0.9,0.8-1.7,1.7-1.7
			C1037.5,638,1038.3,638.7,1038.3,639.6z"/>
		<path class="st3" d="M837.5,630.6c0,0.9-0.8,1.7-1.7,1.7c-0.9,0-1.7-0.7-1.7-1.7c0-0.9,0.8-1.7,1.7-1.7
			C836.7,628.9,837.5,629.7,837.5,630.6z"/>
		<path class="st3" d="M698.4,459c0,0.9-0.8,1.7-1.7,1.7c-0.9,0-1.7-0.7-1.7-1.7c0-0.9,0.8-1.7,1.7-1.7
			C697.6,457.3,698.4,458.1,698.4,459z"/>
		<path class="st3" d="M1079.5,498c0,0.9-0.8,1.7-1.7,1.7c-0.9,0-1.7-0.7-1.7-1.7c0-0.9,0.8-1.7,1.7-1.7
			C1078.8,496.4,1079.5,497.1,1079.5,498z"/>
		<path class="st3" d="M1174.3,503.5c0,0.9-0.8,1.7-1.7,1.7c-0.9,0-1.7-0.7-1.7-1.7c0-0.9,0.8-1.7,1.7-1.7
			C1173.6,501.8,1174.3,502.6,1174.3,503.5z"/>
		<path class="st3" d="M1269.4,465.7c0,0.9-0.8,1.7-1.7,1.7c-0.9,0-1.7-0.7-1.7-1.7c0-0.9,0.8-1.7,1.7-1.7
			C1268.7,464,1269.4,464.8,1269.4,465.7z"/>
		<path class="st3" d="M1287.7,565.9c0,0.9-0.8,1.7-1.7,1.7c-0.9,0-1.7-0.8-1.7-1.7c0-0.9,0.8-1.7,1.7-1.7
			C1287,564.2,1287.7,565,1287.7,565.9z"/>
		<path class="st3" d="M1172.6,622.4c0,0.9-0.8,1.7-1.7,1.7c-0.9,0-1.7-0.7-1.7-1.7c0-0.9,0.8-1.7,1.7-1.7
			C1171.9,620.7,1172.6,621.5,1172.6,622.4z"/>
		<path class="st3" d="M1272.8,669.9c0,0.9-0.8,1.7-1.7,1.7c-0.9,0-1.7-0.7-1.7-1.7c0-0.9,0.8-1.7,1.7-1.7
			C1272,668.3,1272.8,669,1272.8,669.9z"/>
		<path class="st3" d="M1122.9,681.3c0,0.9-0.8,1.7-1.7,1.7c-0.9,0-1.7-0.7-1.7-1.7c0-0.9,0.8-1.7,1.7-1.7
			C1122.2,679.6,1122.9,680.4,1122.9,681.3z"/>
		<path class="st2" d="M999,148.6H872.6h-48.8h-28.6c-5.3,0-9.6,4.3-9.6,9.6c0,5.3,4.3,9.6,9.6,9.6h28.6h48.8H999
			c5.3,0,9.6-4.3,9.6-9.6C1008.6,152.9,1004.3,148.6,999,148.6z"/>
		<path class="st2" d="M1058.9,224.7H858.1h-77.5h-45.3c-8.4,0-15.2,6.8-15.2,15.2c0,8.4,6.8,15.2,15.2,15.2h45.3h77.5h200.8
			c8.4,0,15.2-6.8,15.2-15.2C1074.1,231.5,1067.3,224.7,1058.9,224.7z"/>
		<path class="st2" d="M1008.3,332.7H807.6h-77.5h-45.3c-8.4,0-15.2,6.8-15.2,15.2c0,8.4,6.8,15.2,15.2,15.2h45.3h77.5h200.8
			c8.4,0,15.2-6.8,15.2-15.2C1023.5,339.5,1016.7,332.7,1008.3,332.7z"/>
		<path class="st2" d="M1355.5,149.6h-113.6h-43.9h-25.7c-4.7,0-8.6,3.9-8.6,8.6c0,4.8,3.8,8.6,8.6,8.6h25.7h43.9h113.6
			c4.8,0,8.6-3.8,8.6-8.6C1364.1,153.4,1360.3,149.6,1355.5,149.6z"/>
		<path class="st3" d="M692.9,256.1c0,1-0.8,1.9-1.9,1.9c-1,0-1.9-0.8-1.9-1.9c0-1,0.8-1.9,1.9-1.9
			C692.1,254.2,692.9,255,692.9,256.1z"/>
		<path class="st3" d="M729.6,137.2c0,1.1-0.9,1.9-1.9,1.9c-1.1,0-1.9-0.9-1.9-1.9c0-1.1,0.9-1.9,1.9-1.9
			C728.8,135.3,729.6,136.1,729.6,137.2z"/>
		<path class="st3" d="M843,187.5c0,1.7-1.3,3-3,3c-1.7,0-3-1.3-3-3c0-1.7,1.4-3,3-3C841.7,184.5,843,185.8,843,187.5z"/>
		<path class="st3" d="M941.8,205.4c0,1.3-1,2.3-2.3,2.3c-1.3,0-2.3-1-2.3-2.3c0-1.3,1-2.3,2.3-2.3
			C940.8,203.1,941.8,204.2,941.8,205.4z"/>
		<path class="st3" d="M903.1,120.3c0,1.6-1.3,3-3,3c-1.6,0-3-1.3-3-3c0-1.6,1.3-3,3-3C901.7,117.3,903.1,118.6,903.1,120.3z"/>
		<path class="st3" d="M785.6,212.5c0,0.9-0.8,1.7-1.7,1.7c-0.9,0-1.7-0.7-1.7-1.7c0-0.9,0.8-1.7,1.7-1.7
			C784.9,210.8,785.6,211.6,785.6,212.5z"/>
		<path class="st3" d="M1112.4,92.9c0,0.9-0.8,1.7-1.7,1.7c-0.9,0-1.7-0.7-1.7-1.7c0-0.9,0.8-1.7,1.7-1.7
			C1111.6,91.2,1112.4,92,1112.4,92.9z"/>
		<path class="st3" d="M1085.7,210.8c0,0.9-0.8,1.7-1.7,1.7c-0.9,0-1.7-0.7-1.7-1.7c0-0.9,0.8-1.7,1.7-1.7
			C1084.9,209.1,1085.7,209.9,1085.7,210.8z"/>
		<path class="st3" d="M1017.9,275.2c0,0.9-0.8,1.7-1.7,1.7c-0.9,0-1.7-0.7-1.7-1.7c0-0.9,0.8-1.7,1.7-1.7
			C1017.1,273.5,1017.9,274.3,1017.9,275.2z"/>
		<path class="st3" d="M817.1,266.1c0,0.9-0.8,1.7-1.7,1.7c-0.9,0-1.7-0.7-1.7-1.7c0-0.9,0.8-1.7,1.7-1.7
			C816.3,264.5,817.1,265.2,817.1,266.1z"/>
		<path class="st3" d="M678,94.6c0,0.9-0.8,1.7-1.7,1.7c-0.9,0-1.7-0.7-1.7-1.7c0-0.9,0.8-1.7,1.7-1.7C677.2,92.9,678,93.6,678,94.6
			z"/>
		<path class="st3" d="M1059.1,133.6c0,0.9-0.8,1.7-1.7,1.7c-0.9,0-1.7-0.7-1.7-1.7c0-0.9,0.8-1.7,1.7-1.7
			C1058.4,131.9,1059.1,132.7,1059.1,133.6z"/>
		<path class="st3" d="M1153.9,139.1c0,0.9-0.8,1.7-1.7,1.7c-0.9,0-1.7-0.7-1.7-1.7c0-0.9,0.8-1.7,1.7-1.7
			C1153.2,137.4,1153.9,138.1,1153.9,139.1z"/>
		<path class="st3" d="M1249,101.3c0,0.9-0.8,1.7-1.7,1.7c-0.9,0-1.7-0.7-1.7-1.7c0-0.9,0.8-1.7,1.7-1.7
			C1248.3,99.6,1249,100.4,1249,101.3z"/>
		<path class="st3" d="M1267.3,201.5c0,0.9-0.8,1.7-1.7,1.7c-0.9,0-1.7-0.7-1.7-1.7c0-0.9,0.8-1.7,1.7-1.7
			C1266.6,199.8,1267.3,200.5,1267.3,201.5z"/>
		<path class="st3" d="M1152.2,258c0,0.9-0.8,1.7-1.7,1.7c-0.9,0-1.7-0.7-1.7-1.7c0-0.9,0.8-1.7,1.7-1.7
			C1151.5,256.3,1152.2,257,1152.2,258z"/>
		<path class="st3" d="M1252.4,305.5c0,0.9-0.8,1.7-1.7,1.7c-0.9,0-1.7-0.7-1.7-1.7c0-0.9,0.8-1.7,1.7-1.7
			C1251.6,303.8,1252.4,304.6,1252.4,305.5z"/>
		<path class="st3" d="M1102.5,316.8c0,0.9-0.8,1.7-1.7,1.7c-0.9,0-1.7-0.7-1.7-1.7c0-0.9,0.8-1.7,1.7-1.7
			C1101.8,315.2,1102.5,315.9,1102.5,316.8z"/>
		<path class="st2" d="M326.1,93.3H199.7h-48.8h-28.6c-5.3,0-9.6,4.3-9.6,9.6c0,5.3,4.3,9.6,9.6,9.6h28.6h48.8h126.4
			c5.3,0,9.6-4.3,9.6-9.6C335.7,97.6,331.4,93.3,326.1,93.3z"/>
		<path class="st2" d="M386,169.4H185.2h-77.5H62.4c-8.4,0-15.2,6.8-15.2,15.2c0,8.4,6.8,15.2,15.2,15.2h45.3h77.5H386
			c8.4,0,15.2-6.8,15.2-15.2C401.2,176.2,394.4,169.4,386,169.4z"/>
		<path class="st2" d="M281.3,231.2H80.5H3h-45.3c-8.4,0-15.2,6.8-15.2,15.2c0,8.4,6.8,15.2,15.2,15.2H3h77.5h200.8
			c8.4,0,15.2-6.8,15.2-15.2C296.5,238,289.7,231.2,281.3,231.2z"/>
		<path class="st2" d="M682.6,94.3H569h-43.9h-25.7c-4.7,0-8.6,3.9-8.6,8.6c0,4.8,3.8,8.6,8.6,8.6h25.7H569h113.6
			c4.8,0,8.6-3.8,8.6-8.6C691.2,98.2,687.4,94.3,682.6,94.3z"/>
		<path class="st3" d="M20.1,200.8c0,1-0.8,1.9-1.9,1.9c-1,0-1.9-0.8-1.9-1.9c0-1,0.8-1.9,1.9-1.9C19.2,198.9,20.1,199.8,20.1,200.8
			z"/>
		<path class="st3" d="M56.7,81.9c0,1.1-0.9,1.9-1.9,1.9c-1.1,0-1.9-0.9-1.9-1.9c0-1.1,0.9-1.9,1.9-1.9C55.9,80,56.7,80.8,56.7,81.9
			z"/>
		<path class="st3" d="M170.1,132.2c0,1.7-1.3,3-3,3c-1.7,0-3-1.3-3-3c0-1.7,1.4-3,3-3C168.8,129.2,170.1,130.5,170.1,132.2z"/>
		<path class="st3" d="M268.9,150.1c0,1.3-1,2.3-2.3,2.3c-1.3,0-2.3-1-2.3-2.3c0-1.3,1-2.3,2.3-2.3
			C267.9,147.9,268.9,148.9,268.9,150.1z"/>
		<path class="st3" d="M230.2,65c0,1.6-1.3,3-3,3c-1.6,0-3-1.3-3-3c0-1.6,1.3-3,3-3C228.8,62,230.2,63.3,230.2,65z"/>
		<path class="st3" d="M112.7,157.2c0,0.9-0.8,1.7-1.7,1.7c-0.9,0-1.7-0.7-1.7-1.7c0-0.9,0.8-1.7,1.7-1.7
			C112,155.5,112.7,156.3,112.7,157.2z"/>
		<path class="st3" d="M439.5,37.6c0,0.9-0.8,1.7-1.7,1.7c-0.9,0-1.7-0.7-1.7-1.7c0-0.9,0.8-1.7,1.7-1.7
			C438.7,35.9,439.5,36.7,439.5,37.6z"/>
		<path class="st3" d="M412.8,155.5c0,0.9-0.8,1.7-1.7,1.7c-0.9,0-1.7-0.7-1.7-1.7c0-0.9,0.8-1.7,1.7-1.7
			C412,153.8,412.8,154.6,412.8,155.5z"/>
		<path class="st3" d="M345,219.9c0,0.9-0.8,1.7-1.7,1.7c-0.9,0-1.7-0.7-1.7-1.7c0-0.9,0.8-1.7,1.7-1.7
			C344.2,218.2,345,219,345,219.9z"/>
		<path class="st3" d="M144.2,210.9c0,0.9-0.8,1.7-1.7,1.7c-0.9,0-1.7-0.7-1.7-1.7c0-0.9,0.8-1.7,1.7-1.7
			C143.4,209.2,144.2,209.9,144.2,210.9z"/>
		<path class="st3" d="M5.1,39.3c0,0.9-0.8,1.7-1.7,1.7c-0.9,0-1.7-0.7-1.7-1.7c0-0.9,0.8-1.7,1.7-1.7C4.3,37.6,5.1,38.4,5.1,39.3z"
			/>
		<path class="st3" d="M386.3,78.3c0,0.9-0.8,1.7-1.7,1.7c-0.9,0-1.7-0.7-1.7-1.7c0-0.9,0.8-1.7,1.7-1.7
			C385.5,76.6,386.3,77.4,386.3,78.3z"/>
		<path class="st3" d="M481,83.8c0,0.9-0.8,1.7-1.7,1.7c-0.9,0-1.7-0.7-1.7-1.7c0-0.9,0.8-1.7,1.7-1.7C480.3,82.1,481,82.9,481,83.8
			z"/>
		<path class="st3" d="M576.1,46c0,0.9-0.8,1.7-1.7,1.7c-0.9,0-1.7-0.7-1.7-1.7c0-0.9,0.8-1.7,1.7-1.7
			C575.4,44.3,576.1,45.1,576.1,46z"/>
		<path class="st3" d="M594.4,146.2c0,0.9-0.8,1.7-1.7,1.7c-0.9,0-1.7-0.7-1.7-1.7c0-0.9,0.8-1.7,1.7-1.7
			C593.7,144.5,594.4,145.3,594.4,146.2z"/>
		<path class="st3" d="M479.4,202.7c0,0.9-0.8,1.7-1.7,1.7c-0.9,0-1.7-0.7-1.7-1.7c0-0.9,0.8-1.7,1.7-1.7
			C478.6,201,479.4,201.8,479.4,202.7z"/>
		<path class="st3" d="M579.5,250.2c0,0.9-0.8,1.7-1.7,1.7c-0.9,0-1.7-0.7-1.7-1.7c0-0.9,0.8-1.7,1.7-1.7
			C578.7,248.5,579.5,249.3,579.5,250.2z"/>
		<path class="st3" d="M429.6,261.6c0,0.9-0.8,1.7-1.7,1.7c-0.9,0-1.7-0.7-1.7-1.7c0-0.9,0.8-1.7,1.7-1.7
			C428.9,259.9,429.6,260.6,429.6,261.6z"/>
		<path class="st2" d="M1152.6,1034.2H951.8h-77.5H829c-8.4,0-15.2,6.8-15.2,15.2c0,8.4,6.8,15.2,15.2,15.2h45.3h77.5h200.8
			c8.4,0,15.2-6.8,15.2-15.2C1167.8,1041,1161,1034.2,1152.6,1034.2z"/>
		<path class="st2" d="M1733,831.7h-126.4h-48.8h-28.6c-5.3,0-9.6,4.3-9.6,9.6c0,5.3,4.3,9.6,9.6,9.6h28.6h48.8H1733
			c5.3,0,9.6-4.3,9.6-9.6C1742.6,836,1738.3,831.7,1733,831.7z"/>
		<path class="st2" d="M1792.9,907.7h-200.8h-77.5h-45.3c-8.4,0-15.2,6.8-15.2,15.2c0,8.4,6.8,15.2,15.2,15.2h45.3h77.5h200.8
			c8.4,0,15.2-6.8,15.2-15.2C1808.1,914.5,1801.3,907.7,1792.9,907.7z"/>
		<path class="st2" d="M1688.1,969.5h-200.8h-77.5h-45.3c-8.4,0-15.2,6.8-15.2,15.2c0,8.4,6.8,15.2,15.2,15.2h45.3h77.5h200.8
			c8.4,0,15.2-6.8,15.2-15.2C1703.3,976.3,1696.5,969.5,1688.1,969.5z"/>
		<path class="st2" d="M1971.4,1051.6h-131.1h-50.6h-29.6c-5.5,0-9.9,4.4-9.9,9.9c0,5.5,4.4,9.9,9.9,9.9h29.6h50.6h131.1
			c5.5,0,9.9-4.4,9.9-9.9C1981.3,1056.1,1976.9,1051.6,1971.4,1051.6z"/>
		<path class="st2" d="M2089.5,832.7h-113.6h-43.9h-25.7c-4.7,0-8.6,3.9-8.6,8.6c0,4.8,3.8,8.6,8.6,8.6h25.7h43.9h113.6
			c4.8,0,8.6-3.8,8.6-8.6C2098.1,836.5,2094.3,832.7,2089.5,832.7z"/>
		<path class="st3" d="M1426.9,939.2c0,1-0.8,1.9-1.9,1.9c-1,0-1.9-0.8-1.9-1.9c0-1,0.8-1.9,1.9-1.9
			C1426.1,937.3,1426.9,938.1,1426.9,939.2z"/>
		<path class="st3" d="M1502.7,1084.7c0,1.3-1.1,2.4-2.4,2.4c-1.3,0-2.4-1.1-2.4-2.4c0-1.3,1.1-2.4,2.4-2.4
			C1501.6,1082.4,1502.7,1083.4,1502.7,1084.7z"/>
		<path class="st3" d="M1463.6,820.2c0,1.1-0.9,1.9-1.9,1.9c-1.1,0-1.9-0.9-1.9-1.9c0-1.1,0.9-1.9,1.9-1.9
			C1462.7,818.3,1463.6,819.2,1463.6,820.2z"/>
		<path class="st3" d="M1577,870.6c0,1.7-1.3,3-3,3s-3-1.3-3-3c0-1.7,1.4-3,3-3S1577,868.9,1577,870.6z"/>
		<path class="st3" d="M1675.8,888.5c0,1.3-1,2.3-2.3,2.3c-1.3,0-2.3-1-2.3-2.3c0-1.3,1-2.3,2.3-2.3
			C1674.8,886.2,1675.8,887.2,1675.8,888.5z"/>
		<path class="st3" d="M1637.1,803.3c0,1.6-1.3,3-3,3c-1.6,0-3-1.3-3-3c0-1.6,1.3-3,3-3C1635.7,800.4,1637.1,801.7,1637.1,803.3z"/>
		<path class="st3" d="M1902.1,1109.4c0,0.9-0.8,1.7-1.7,1.7c-0.9,0-1.7-0.8-1.7-1.7c0-0.9,0.8-1.7,1.7-1.7
			C1901.3,1107.7,1902.1,1108.4,1902.1,1109.4z"/>
		<path class="st3" d="M1519.6,895.6c0,0.9-0.8,1.7-1.7,1.7c-0.9,0-1.7-0.7-1.7-1.7c0-0.9,0.8-1.7,1.7-1.7
			C1518.9,893.9,1519.6,894.6,1519.6,895.6z"/>
		<path class="st3" d="M1846.4,776c0,0.9-0.8,1.7-1.7,1.7c-0.9,0-1.7-0.8-1.7-1.7c0-0.9,0.8-1.7,1.7-1.7
			C1845.6,774.3,1846.4,775,1846.4,776z"/>
		<path class="st3" d="M1819.6,893.9c0,0.9-0.8,1.7-1.7,1.7c-0.9,0-1.7-0.8-1.7-1.7c0-0.9,0.8-1.7,1.7-1.7
			C1818.9,892.2,1819.6,893,1819.6,893.9z"/>
		<path class="st3" d="M1751.9,958.3c0,0.9-0.8,1.7-1.7,1.7c-0.9,0-1.7-0.8-1.7-1.7c0-0.9,0.8-1.7,1.7-1.7
			C1751.1,956.6,1751.9,957.4,1751.9,958.3z"/>
		<path class="st3" d="M1551.1,949.2c0,0.9-0.8,1.7-1.7,1.7c-0.9,0-1.7-0.7-1.7-1.7c0-0.9,0.8-1.7,1.7-1.7
			C1550.3,947.5,1551.1,948.3,1551.1,949.2z"/>
		<path class="st3" d="M1411.9,777.6c0,0.9-0.8,1.7-1.7,1.7c-0.9,0-1.7-0.8-1.7-1.7c0-0.9,0.8-1.7,1.7-1.7
			C1411.2,776,1411.9,776.7,1411.9,777.6z"/>
		<path class="st3" d="M1793.1,816.7c0,0.9-0.8,1.7-1.7,1.7c-0.9,0-1.7-0.8-1.7-1.7c0-0.9,0.8-1.7,1.7-1.7
			C1792.4,815,1793.1,815.7,1793.1,816.7z"/>
		<path class="st3" d="M1887.9,822.1c0,0.9-0.8,1.7-1.7,1.7c-0.9,0-1.7-0.8-1.7-1.7c0-0.9,0.8-1.7,1.7-1.7
			C1887.2,820.5,1887.9,821.2,1887.9,822.1z"/>
		<path class="st3" d="M1886.2,941.1c0,0.9-0.8,1.7-1.7,1.7c-0.9,0-1.7-0.8-1.7-1.7c0-0.9,0.8-1.7,1.7-1.7
			C1885.5,939.4,1886.2,940.1,1886.2,941.1z"/>
		<path class="st3" d="M1436.9,1038.7c0,0.9-0.8,1.7-1.7,1.7c-0.9,0-1.7-0.8-1.7-1.7c0-0.9,0.8-1.7,1.7-1.7
			C1436.1,1037,1436.9,1037.8,1436.9,1038.7z"/>
		<path class="st3" d="M1836.5,999.9c0,0.9-0.8,1.7-1.7,1.7c-0.9,0-1.7-0.8-1.7-1.7c0-0.9,0.8-1.7,1.7-1.7
			C1835.8,998.3,1836.5,999,1836.5,999.9z"/>
		<path class="st3" d="M1690.3,903.3c-1.2,0.5-2.6-0.2-3-1.4c-0.5-1.2,0.2-2.5,1.4-3l122.1-41.1L1690.3,903.3z"/>
		<path class="st2" d="M1706,442.5h-126.4h-48.8h-28.6c-5.3,0-9.6,4.3-9.6,9.6c0,5.3,4.3,9.6,9.6,9.6h28.6h48.8H1706
			c5.3,0,9.6-4.3,9.6-9.6C1715.5,446.8,1711.2,442.5,1706,442.5z"/>
		<path class="st2" d="M1765.8,518.5h-200.8h-77.5h-45.3c-8.4,0-15.2,6.8-15.2,15.2c0,8.4,6.8,15.2,15.2,15.2h45.3h77.5h200.8
			c8.4,0,15.2-6.8,15.2-15.2C1781,525.3,1774.2,518.5,1765.8,518.5z"/>
		<path class="st2" d="M1661.1,580.3h-200.8h-77.5h-45.3c-8.4,0-15.2,6.8-15.2,15.2c0,8.4,6.8,15.2,15.2,15.2h45.3h77.5h200.8
			c8.4,0,15.2-6.8,15.2-15.2C1676.3,587.1,1669.5,580.3,1661.1,580.3z"/>
		<path class="st2" d="M1944.4,662.4h-131.1h-50.6h-29.6c-5.5,0-9.9,4.4-9.9,9.9c0,5.5,4.4,9.9,9.9,9.9h29.6h50.6h131.1
			c5.5,0,9.9-4.4,9.9-9.9C1954.3,666.9,1949.8,662.4,1944.4,662.4z"/>
		<path class="st2" d="M2062.5,443.4h-113.6H1905h-25.7c-4.7,0-8.6,3.9-8.6,8.6c0,4.8,3.8,8.6,8.6,8.6h25.7h43.9h113.6
			c4.8,0,8.6-3.8,8.6-8.6C2071.1,447.3,2067.2,443.4,2062.5,443.4z"/>
		<path class="st3" d="M1399.9,549.9c0,1-0.8,1.9-1.9,1.9c-1,0-1.9-0.8-1.9-1.9c0-1,0.8-1.9,1.9-1.9
			C1399,548.1,1399.9,548.9,1399.9,549.9z"/>
		<path class="st3" d="M1475.6,695.5c0,1.3-1.1,2.4-2.4,2.4c-1.3,0-2.4-1.1-2.4-2.4c0-1.3,1.1-2.4,2.4-2.4
			C1474.6,693.2,1475.6,694.2,1475.6,695.5z"/>
		<path class="st3" d="M1436.6,431c0,1.1-0.9,1.9-1.9,1.9c-1.1,0-1.9-0.9-1.9-1.9c0-1.1,0.9-1.9,1.9-1.9
			C1435.7,429.1,1436.6,430,1436.6,431z"/>
		<path class="st3" d="M1550,481.4c0,1.7-1.3,3-3,3c-1.7,0-3-1.3-3-3c0-1.7,1.4-3,3-3C1548.6,478.3,1550,479.7,1550,481.4z"/>
		<path class="st3" d="M1648.7,499.3c0,1.3-1,2.3-2.3,2.3c-1.3,0-2.3-1-2.3-2.3c0-1.3,1-2.3,2.3-2.3
			C1647.7,497,1648.7,498,1648.7,499.3z"/>
		<path class="st3" d="M1610,414.1c0,1.6-1.3,3-3,3c-1.6,0-3-1.3-3-3c0-1.6,1.3-3,3-3C1608.7,411.1,1610,412.5,1610,414.1z"/>
		<path class="st3" d="M1875,720.1c0,0.9-0.8,1.7-1.7,1.7c-0.9,0-1.7-0.8-1.7-1.7c0-0.9,0.8-1.7,1.7-1.7
			C1874.3,718.5,1875,719.2,1875,720.1z"/>
		<path class="st3" d="M1492.6,506.3c0,0.9-0.8,1.7-1.7,1.7c-0.9,0-1.7-0.7-1.7-1.7c0-0.9,0.8-1.7,1.7-1.7
			C1491.8,504.7,1492.6,505.4,1492.6,506.3z"/>
		<path class="st3" d="M1819.3,386.7c0,0.9-0.8,1.7-1.7,1.7c-0.9,0-1.7-0.7-1.7-1.7c0-0.9,0.8-1.7,1.7-1.7
			C1818.6,385.1,1819.3,385.8,1819.3,386.7z"/>
		<path class="st3" d="M1792.6,504.7c0,0.9-0.8,1.7-1.7,1.7c-0.9,0-1.7-0.7-1.7-1.7c0-0.9,0.8-1.7,1.7-1.7
			C1791.9,503,1792.6,503.7,1792.6,504.7z"/>
		<path class="st3" d="M1724.8,569.1c0,0.9-0.8,1.7-1.7,1.7c-0.9,0-1.7-0.7-1.7-1.7c0-0.9,0.8-1.7,1.7-1.7
			C1724.1,567.4,1724.8,568.1,1724.8,569.1z"/>
		<path class="st3" d="M1524,560c0,0.9-0.8,1.7-1.7,1.7c-0.9,0-1.7-0.8-1.7-1.7c0-0.9,0.8-1.7,1.7-1.7
			C1523.3,558.3,1524,559.1,1524,560z"/>
		<path class="st3" d="M1384.9,388.4c0,0.9-0.8,1.7-1.7,1.7c-0.9,0-1.7-0.7-1.7-1.7c0-0.9,0.8-1.7,1.7-1.7
			C1384.2,386.7,1384.9,387.5,1384.9,388.4z"/>
		<path class="st3" d="M1766.1,427.4c0,0.9-0.8,1.7-1.7,1.7c-0.9,0-1.7-0.7-1.7-1.7c0-0.9,0.8-1.7,1.7-1.7
			C1765.3,425.8,1766.1,426.5,1766.1,427.4z"/>
		<path class="st3" d="M1860.9,432.9c0,0.9-0.8,1.7-1.7,1.7c-0.9,0-1.7-0.7-1.7-1.7c0-0.9,0.8-1.7,1.7-1.7
			C1860.1,431.3,1860.9,432,1860.9,432.9z"/>
		<path class="st3" d="M1859.2,551.8c0,0.9-0.8,1.7-1.7,1.7c-0.9,0-1.7-0.7-1.7-1.7c0-0.9,0.8-1.7,1.7-1.7
			C1858.4,550.2,1859.2,550.9,1859.2,551.8z"/>
		<path class="st3" d="M1409.9,649.5c0,0.9-0.8,1.7-1.7,1.7c-0.9,0-1.7-0.7-1.7-1.7c0-0.9,0.8-1.7,1.7-1.7
			C1409.1,647.8,1409.9,648.6,1409.9,649.5z"/>
		<path class="st3" d="M1809.5,610.7c0,0.9-0.8,1.7-1.7,1.7c-0.9,0-1.7-0.7-1.7-1.7c0-0.9,0.8-1.7,1.7-1.7
			C1808.7,609,1809.5,609.8,1809.5,610.7z"/>
		<path class="st2" d="M1761.1,104.3h-126.4h-48.8h-28.6c-5.3,0-9.6,4.3-9.6,9.6c0,5.3,4.3,9.6,9.6,9.6h28.6h48.8h126.4
			c5.3,0,9.6-4.3,9.6-9.6C1770.7,108.6,1766.4,104.3,1761.1,104.3z"/>
		<path class="st2" d="M1821,180.4h-200.8h-77.5h-45.3c-8.4,0-15.2,6.8-15.2,15.2c0,8.4,6.8,15.2,15.2,15.2h45.3h77.5H1821
			c8.4,0,15.2-6.8,15.2-15.2C1836.2,187.2,1829.4,180.4,1821,180.4z"/>
		<path class="st2" d="M1716.3,242.2h-200.8H1438h-45.3c-8.4,0-15.2,6.8-15.2,15.2c0,8.4,6.8,15.2,15.2,15.2h45.3h77.5h200.8
			c8.4,0,15.2-6.8,15.2-15.2C1731.5,249,1724.7,242.2,1716.3,242.2z"/>
		<path class="st3" d="M1455.1,211.8c0,1-0.8,1.9-1.9,1.9c-1,0-1.9-0.8-1.9-1.9c0-1,0.8-1.9,1.9-1.9
			C1454.2,209.9,1455.1,210.8,1455.1,211.8z"/>
		<path class="st3" d="M1491.7,92.9c0,1.1-0.9,1.9-1.9,1.9c-1.1,0-1.9-0.9-1.9-1.9c0-1.1,0.9-1.9,1.9-1.9
			C1490.9,91,1491.7,91.8,1491.7,92.9z"/>
		<path class="st3" d="M1605.1,143.2c0,1.7-1.3,3-3,3s-3-1.3-3-3c0-1.7,1.4-3,3-3S1605.1,141.5,1605.1,143.2z"/>
		<path class="st3" d="M1703.9,161.1c0,1.3-1,2.3-2.3,2.3c-1.3,0-2.3-1-2.3-2.3c0-1.3,1-2.3,2.3-2.3
			C1702.9,158.9,1703.9,159.9,1703.9,161.1z"/>
		<path class="st3" d="M1665.2,76c0,1.6-1.3,3-3,3c-1.6,0-3-1.3-3-3c0-1.6,1.3-3,3-3C1663.8,73,1665.2,74.3,1665.2,76z"/>
		<path class="st3" d="M1547.7,168.2c0,0.9-0.8,1.7-1.7,1.7c-0.9,0-1.7-0.7-1.7-1.7c0-0.9,0.8-1.7,1.7-1.7
			C1547,166.5,1547.7,167.3,1547.7,168.2z"/>
		<path class="st3" d="M1874.5,48.6c0,0.9-0.8,1.7-1.7,1.7c-0.9,0-1.7-0.7-1.7-1.7c0-0.9,0.8-1.7,1.7-1.7
			C1873.7,46.9,1874.5,47.7,1874.5,48.6z"/>
		<path class="st3" d="M1847.8,166.5c0,0.9-0.8,1.7-1.7,1.7c-0.9,0-1.7-0.7-1.7-1.7c0-0.9,0.8-1.7,1.7-1.7
			C1847,164.8,1847.8,165.6,1847.8,166.5z"/>
		<path class="st3" d="M1780,230.9c0,0.9-0.8,1.7-1.7,1.7c-0.9,0-1.7-0.7-1.7-1.7c0-0.9,0.8-1.7,1.7-1.7
			C1779.2,229.2,1780,230,1780,230.9z"/>
		<path class="st3" d="M1579.2,221.9c0,0.9-0.8,1.7-1.7,1.7c-0.9,0-1.7-0.7-1.7-1.7c0-0.9,0.8-1.7,1.7-1.7
			C1578.4,220.2,1579.2,220.9,1579.2,221.9z"/>
		<path class="st3" d="M1440.1,50.3c0,0.9-0.8,1.7-1.7,1.7c-0.9,0-1.7-0.7-1.7-1.7c0-0.9,0.8-1.7,1.7-1.7
			C1439.3,48.6,1440.1,49.4,1440.1,50.3z"/>
		<path class="st3" d="M1821.3,89.3c0,0.9-0.8,1.7-1.7,1.7c-0.9,0-1.7-0.7-1.7-1.7c0-0.9,0.8-1.7,1.7-1.7
			C1820.5,87.6,1821.3,88.4,1821.3,89.3z"/>
		<path class="st3" d="M1916,94.8c0,0.9-0.8,1.7-1.7,1.7c-0.9,0-1.7-0.7-1.7-1.7c0-0.9,0.8-1.7,1.7-1.7
			C1915.3,93.1,1916,93.9,1916,94.8z"/>
		<path class="st3" d="M1914.4,213.7c0,0.9-0.8,1.7-1.7,1.7c-0.9,0-1.7-0.7-1.7-1.7c0-0.9,0.8-1.7,1.7-1.7
			C1913.6,212,1914.4,212.8,1914.4,213.7z"/>
		<path class="st3" d="M1864.6,272.6c0,0.9-0.8,1.7-1.7,1.7c-0.9,0-1.7-0.7-1.7-1.7c0-0.9,0.8-1.7,1.7-1.7
			C1863.9,270.9,1864.6,271.6,1864.6,272.6z"/>
	</g>
</g>
<g id="mar">
</g>
<g id="terra">
</g>
<g id="Layer_5">
</g>
<g id="Layer_6">
</g>
</svg>
