<?xml version="1.0" encoding="utf-8"?>
<!-- Generator: Adobe Illustrator 22.0.1, SVG Export Plug-In . SVG Version: 6.00 Build 0)  -->
<svg version="1.1" id="Layer_1" xmlns="http://www.w3.org/2000/svg" xmlns:xlink="http://www.w3.org/1999/xlink" x="0px" y="0px"
	 viewBox="0 0 141.7 141.7" style="enable-background:new 0 0 141.7 141.7;" xml:space="preserve">
<style type="text/css">
	.st0{fill:#FEFEFE;}
	.st1{clip-path:url(#SVGID_2_);}
	.st2{fill:#545554;}
	.st3{fill:#A7A9AC;}
	.st4{fill:#828282;}
	.st5{fill:#FFFFFF;}
	.st6{fill:#2E1010;}
</style>
<circle class="st0" cx="70.8" cy="70.8" r="70.9"/>
<g>
	<g>
		<defs>
			<circle id="SVGID_1_" cx="70.8" cy="70.8" r="70.9"/>
		</defs>
		<clipPath id="SVGID_2_">
			<use xlink:href="#SVGID_1_"  style="overflow:visible;"/>
		</clipPath>
		<g class="st1">
			<path class="st2" d="M27.2,30.4c-1.2-1-2.7-1.7-4.2-1.7c-3.4,0-6.3,2.7-6.3,6.3L17,54.9l34-2.7L27.2,30.4z"/>
			<path class="st2" d="M75.4,85l-0.2,21.1c0,3.9,3,6.9,6.9,6.9s6.9-3,7.1-6.9L89.4,85c0-3.9-3-6.9-6.9-7.1
				C78.6,78,75.4,81.1,75.4,85z"/>
			<path class="st3" d="M-28.4,74.7c0,12.3-10.1,22.5-22.5,22.5S-73.3,87-73.3,74.7s10.1-22.5,22.5-22.5S-28.4,62.3-28.4,74.7z"/>
			<path class="st3" d="M125.4,74.7h-18.6c0-12.3-10.1-22.5-22.5-22.5H-50.8v44.9H59.8h24.5h41.1c6.3,0,11.3-5.1,11.3-11.3
				C136.6,79.7,131.7,74.7,125.4,74.7z"/>
			<path class="st4" d="M-74.8,67.7H-96c-3.9,0-6.9,3-6.9,6.9s3,6.9,6.9,6.9h21.1c3.9,0,6.9-3,6.9-6.9
				C-67.9,70.8-70.9,67.7-74.8,67.7z"/>
			<path class="st4" d="M45.6,85l-0.2,21.1c0,3.9,3,6.9,6.9,6.9s6.9-3,7.1-6.9L59.7,85c0-3.9-3-6.9-6.9-7.1
				C48.9,78,45.6,81.1,45.6,85z"/>
			<path class="st5" d="M88.7,59.6C87,59.4,85.5,60,84.3,61c-0.8-1.4-2.2-2.2-3.9-2.5c-3-0.3-5.9,1.7-6.3,4.7
				c-0.3,3,1.7,5.9,4.7,6.3c1.7,0.2,3.2-0.3,4.4-1.4c0.8,1.4,2.2,2.2,3.9,2.5c3,0.3,5.9-1.7,6.3-4.7C93.8,62.8,91.8,60.1,88.7,59.6z
				"/>
			<path class="st6" d="M83,64.5c-0.2,0.8-0.8,1.4-1.7,1.2c-0.8-0.2-1.4-0.8-1.2-1.7c0.2-0.8,0.8-1.4,1.7-1.2
				C82.5,63,83.2,63.7,83,64.5z"/>
			<path class="st6" d="M87.6,65.2c-0.2,0.8-0.8,1.4-1.7,1.2c-0.8-0.2-1.4-0.8-1.2-1.7c0.2-0.8,0.8-1.4,1.7-1.2
				C87,63.5,87.6,64.3,87.6,65.2z"/>
			<path class="st5" d="M71.2,76.3c0,1.5-1.2,2.5-2.5,2.5c-1.4,0-2.5-1.2-2.5-2.5c0-1.4,1.2-2.5,2.5-2.5S71.2,75,71.2,76.3z"/>
		</g>
	</g>
</g>
</svg>
