<?xml version="1.0" encoding="utf-8"?>
<!-- Generator: Adobe Illustrator 22.0.1, SVG Export Plug-In . SVG Version: 6.00 Build 0)  -->
<svg version="1.1" id="Layer_1" xmlns="http://www.w3.org/2000/svg" xmlns:xlink="http://www.w3.org/1999/xlink" x="0px" y="0px"
	 viewBox="0 0 141.7 60.9" style="enable-background:new 0 0 141.7 60.9;" xml:space="preserve">
<style type="text/css">
	.st0{fill:#444545;}
	.st1{fill:#828282;}
	.st2{fill:#B0AFB0;}
	.st3{fill:#222323;}
</style>
<path class="st0" d="M126.7,49.6h-25.6c-3.2,0-5.7,2.6-5.7,5.7c0,3.2,2.6,5.7,5.7,5.7h25.6c3.2,0,5.7-2.6,5.7-5.7
	S129.8,49.6,126.7,49.6z"/>
<path class="st0" d="M34.9,42H9.3c-3.2,0-5.7,2.6-5.7,5.7c0,3.2,2.6,5.7,5.7,5.7h25.6c3.2,0,5.7-2.6,5.7-5.7
	C40.6,44.6,38,42,34.9,42z"/>
<path class="st1" d="M111.1,15.4c-0.5,0-0.9,0-1.3,0.1H84.7C78.4,6.1,67.6,0,55.5,0C36,0,20.2,15.8,20.2,35.3v21.8h7.6h55.5h26.6
	c0.4,0,0.9,0.1,1.3,0.1c11.5,0,20.9-9.3,20.9-20.9C132,24.8,122.6,15.4,111.1,15.4z"/>
<path class="st2" d="M31.4,48.3H5.8c-3.2,0-5.7,2.6-5.7,5.7c0,3.2,2.6,5.7,5.7,5.7h25.6c3.2,0,5.7-2.6,5.7-5.7
	C37.1,50.8,34.6,48.3,31.4,48.3z"/>
<path class="st3" d="M116.1,24.7c-0.2,0-0.4,0.2-0.4,0.5c-0.1,0.9-0.8,1.7-1.8,1.7s-1.7-0.8-1.8-1.7c0-0.2-0.2-0.5-0.4-0.5
	c-0.2,0-0.4,0.2-0.4,0.5c0,1.4,1.2,2.6,2.6,2.6s2.6-1.2,2.6-2.6C116.5,24.9,116.3,24.7,116.1,24.7z"/>
<path class="st3" d="M122.2,24.7c-0.2,0-0.4,0.2-0.4,0.5c-0.1,0.9-0.8,1.7-1.8,1.7s-1.7-0.8-1.8-1.7c0-0.2-0.2-0.5-0.4-0.5
	s-0.4,0.2-0.4,0.5c0,1.4,1.2,2.6,2.6,2.6s2.6-1.2,2.6-2.6C122.6,24.9,122.4,24.7,122.2,24.7z"/>
<path class="st2" d="M88.9,48.3H63.3c-3.2,0-5.7,2.6-5.7,5.7c0,3.2,2.6,5.7,5.7,5.7h25.6c3.2,0,5.7-2.6,5.7-5.7
	C94.6,50.8,92,48.3,88.9,48.3z"/>
<g>
	<path class="st2" d="M127.9,30.5h-14.2c-3.9,0-7.1,3.2-7.1,7.1s3.2,7.1,7.1,7.1s7.1-3.2,7.1-7.1c0,3.9,3.2,7.1,7.1,7.1
		s7.1-3.2,7.1-7.1S131.8,30.5,127.9,30.5z"/>
	<path class="st3" d="M141,34.4L141,34.4h-8.5l0,0c-0.4,0-0.7,0.3-0.7,0.7c0,0.4,0.3,0.7,0.7,0.7l0,0h8.5l0,0c0.4,0,0.7-0.3,0.7-0.7
		C141.7,34.8,141.4,34.4,141,34.4z"/>
	<path class="st3" d="M141,36.9L141,36.9h-8.5l0,0c-0.4,0-0.7,0.3-0.7,0.7c0,0.4,0.3,0.7,0.7,0.7l0,0h8.5l0,0c0.4,0,0.7-0.3,0.7-0.7
		S141.4,36.9,141,36.9z"/>
	<path class="st3" d="M141,39.3L141,39.3h-8.5l0,0c-0.4,0-0.7,0.3-0.7,0.7c0,0.4,0.3,0.7,0.7,0.7l0,0h8.5l0,0c0.4,0,0.7-0.3,0.7-0.7
		C141.7,39.7,141.4,39.3,141,39.3z"/>
	<path class="st3" d="M111.2,34.4L111.2,34.4h-8.5l0,0c-0.4,0-0.7,0.3-0.7,0.7c0,0.4,0.3,0.7,0.7,0.7l0,0h8.5l0,0
		c0.4,0,0.7-0.3,0.7-0.7C111.9,34.8,111.6,34.4,111.2,34.4z"/>
	<path class="st3" d="M111.2,36.9L111.2,36.9h-8.5l0,0c-0.4,0-0.7,0.3-0.7,0.7c0,0.4,0.3,0.7,0.7,0.7l0,0h8.5l0,0
		c0.4,0,0.7-0.3,0.7-0.7C111.9,37.2,111.6,36.9,111.2,36.9z"/>
	<path class="st3" d="M111.2,39.3L111.2,39.3h-8.5l0,0c-0.4,0-0.7,0.3-0.7,0.7c0,0.4,0.3,0.7,0.7,0.7l0,0h8.5l0,0
		c0.4,0,0.7-0.3,0.7-0.7C111.9,39.7,111.6,39.3,111.2,39.3z"/>
	<path class="st0" d="M117.1,31.9v2.3c0,0.5,0.7,1,1.6,1s1.6-0.4,1.6-1v-2.3c0-0.5-0.7-1-1.6-1C117.8,30.9,117.1,31.3,117.1,31.9z"
		/>
	<path class="st0" d="M121.4,31.9v2.3c0,0.5,0.7,1,1.6,1s1.6-0.4,1.6-1v-2.3c0-0.5-0.7-1-1.6-1S121.4,31.3,121.4,31.9z"/>
</g>
</svg>
