<?xml version="1.0" encoding="utf-8"?>
<!-- Generator: Adobe Illustrator 22.0.1, SVG Export Plug-In . SVG Version: 6.00 Build 0)  -->
<svg version="1.1" id="Layer_1" xmlns="http://www.w3.org/2000/svg" xmlns:xlink="http://www.w3.org/1999/xlink" x="0px" y="0px"
	 viewBox="0 0 650 650" style="enable-background:new 0 0 650 650;" xml:space="preserve">
<style type="text/css">
	.st0{clip-path:url(#SVGID_2_);}
	.st1{fill:url(#SVGID_3_);}
	.st2{opacity:0.1;fill:#FFFFFF;}
	.st3{fill:#FFFFFF;}
	.st4{fill:url(#SVGID_4_);}
	.st5{opacity:0.2;fill:#FFFFFF;}
	.st6{opacity:0.3;fill:#FFFFFF;}
	.st7{opacity:0.2;fill:#242A4C;}
	.st8{opacity:0.4;fill:#FFFFFF;}
	.st9{fill:#34234B;}
	.st10{fill:url(#SVGID_5_);}
	.st11{fill:none;}
	.st12{fill:#2A1C3E;}
	.st13{fill:url(#SVGID_6_);}
	.st14{fill:url(#SVGID_7_);}
	.st15{fill:url(#SVGID_8_);}
	.st16{fill:url(#SVGID_9_);}
	.st17{fill:url(#SVGID_10_);}
	.st18{opacity:0.6;fill:#FFFFFF;}
</style>
<g>
	<g>
		<path class="st3" d="M325,125c-110.5,0-200,89.5-200,200s89.5,200,200,200s200-89.5,200-200S435.5,125,325,125z M444,383.6
			c0,13.3-10.8,24.1-24.1,24.1H230.1c-13.3,0-24.1-10.8-24.1-24.1v-96.7c0-13.3,10.8-24.1,24.1-24.1h38.1c5.2,0,9.9-2.9,12.3-7.4
			l3.6-6.8c2-3.8,6-6.2,10.4-6.2h60.9c4.4,0,8.3,2.4,10.4,6.2l3.6,6.8c2.4,4.6,7.2,7.4,12.3,7.4h38.1c13.3,0,24.1,10.8,24.1,24.1
			V383.6z M325,282c-29.4,0-53.3,23.9-53.3,53.3s23.9,53.3,53.3,53.3s53.3-23.9,53.3-53.3S354.4,282,325,282z M325,383.6
			c-26.7,0-48.3-21.7-48.3-48.3c0-26.7,21.7-48.3,48.3-48.3s48.3,21.7,48.3,48.3C373.3,361.9,351.7,383.6,325,383.6z"/>
	</g>
	<g>
		<circle class="st3" cx="325" cy="335.2" r="38.2"/>
	</g>
</g>
<path class="st2" d="M325,0C145.5,0,0,145.5,0,325s145.5,325,325,325s325-145.5,325-325S504.5,0,325,0z M325,472
	c-81.2,0-147-65.8-147-147s65.8-147,147-147s147,65.8,147,147S406.2,472,325,472z"/>
<path class="st5" d="M325,25C159.3,25,25,159.3,25,325s134.3,300,300,300s300-134.3,300-300S490.7,25,325,25z M325,472
	c-81.2,0-147-65.8-147-147s65.8-147,147-147s147,65.8,147,147S406.2,472,325,472z"/>
<path class="st6" d="M325,50C173.1,50,50,173.1,50,325s123.1,275,275,275s275-123.1,275-275S476.9,50,325,50z M325,472
	c-81.2,0-147-65.8-147-147s65.8-147,147-147s147,65.8,147,147S406.2,472,325,472z"/>
<path class="st8" d="M325,75C186.9,75,75,186.9,75,325s111.9,250,250,250s250-111.9,250-250S463.1,75,325,75z M325,472
	c-81.2,0-147-65.8-147-147s65.8-147,147-147s147,65.8,147,147S406.2,472,325,472z"/>
<path class="st18" d="M325,100c-124.3,0-225,100.7-225,225s100.7,225,225,225s225-100.7,225-225S449.3,100,325,100z M325,472
	c-81.2,0-147-65.8-147-147s65.8-147,147-147s147,65.8,147,147S406.2,472,325,472z"/>
</svg>
