<?xml version="1.0" encoding="utf-8"?>
<!-- Generator: Adobe Illustrator 22.0.1, SVG Export Plug-In . SVG Version: 6.00 Build 0)  -->
<svg version="1.1" id="Layer_1" xmlns="http://www.w3.org/2000/svg" xmlns:xlink="http://www.w3.org/1999/xlink" x="0px" y="0px"
	 viewBox="0 0 141.7 141.7" style="enable-background:new 0 0 141.7 141.7;" xml:space="preserve">
<style type="text/css">
	.st0{fill:#FFFFFF;}
	.st1{fill:#4B839B;}
	.st2{fill:#568EAD;}
	.st3{fill:#2E1010;}
</style>
<circle class="st0" cx="70.9" cy="70.9" r="70.9"/>
<g>
	<g>
		<g>
			<path class="st1" d="M44.8,29l-7.7-13.5c-0.9-1.7-3.1-2.2-4.7-1.3c-1.7,0.9-2.2,3.1-1.3,4.7l7.7,13.5c0.6,1.1,1.8,1.8,3,1.8
				c0.6,0,1.2-0.2,1.7-0.5C45.2,32.8,45.7,30.7,44.8,29z"/>
		</g>
		<g>
			<path class="st1" d="M43.5,27.7c-1.7-0.9-3.7-0.4-4.7,1.3l-7.7,13.5c-0.9,1.7-0.4,3.7,1.3,4.7c0.6,0.3,1.1,0.5,1.7,0.5
				c1.2,0,2.3-0.6,3-1.8l7.7-13.5C45.7,30.8,45.2,28.6,43.5,27.7z"/>
		</g>
		<path class="st2" d="M101,19.3H52c-6.3,0-11.4,5.1-11.4,11.4S45.7,42.1,52,42.1h49c6.3,0,11.4-5.1,11.4-11.4
			C112.4,24.5,107.3,19.3,101,19.3z"/>
		<g>
			<path class="st1" d="M75.9,49.2c-1,0-1.9-0.5-2.7-1.2c-1.2-1.5-1-3.6,0.5-4.8L85.9,33c1.5-1.2,3.6-1,4.8,0.5
				c1.2,1.5,1,3.6-0.5,4.8L78,48.4C77.5,48.9,76.6,49.2,75.9,49.2z"/>
		</g>
		<g>
			<g>
				<path class="st0" d="M104.9,24c-1.1,0-2.1,0.5-2.8,1.2c-0.6-0.8-1.7-1.3-2.8-1.4c-2-0.1-3.7,1.6-3.8,3.6c-0.1,2,1.6,3.7,3.6,3.8
					c1.1,0,2.1-0.5,2.8-1.2c0.6,0.8,1.7,1.3,2.8,1.4c2,0.1,3.7-1.6,3.8-3.6C108.5,25.7,106.9,24,104.9,24z"/>
			</g>
			<g>
				<path class="st3" d="M101.5,27.6c0,0.6-0.5,0.9-1,0.9c-0.6,0-0.9-0.5-0.9-1s0.5-0.9,1-0.9C101,26.6,101.5,27.1,101.5,27.6z"/>
			</g>
			<g>
				<path class="st3" d="M104.5,27.6c0,0.6-0.5,0.9-1,0.9c-0.6,0-0.9-0.5-0.9-1s0.5-0.9,1-0.9C104.1,26.7,104.5,27.1,104.5,27.6z"/>
			</g>
		</g>
		<path class="st1" d="M79.9,13.1H61.7c-3.4,0-6.2,2.8-6.2,6.2v0h30.6v0C86.1,15.9,83.4,13.1,79.9,13.1z"/>
	</g>
	<g>
		<g>
			<path class="st1" d="M44.8,108.5L37.2,95c-0.9-1.7-3.1-2.2-4.7-1.3c-1.7,0.9-2.2,3.1-1.3,4.7l7.7,13.5c0.6,1.1,1.8,1.8,3,1.8
				c0.6,0,1.2-0.2,1.7-0.5C45.2,112.2,45.8,110.1,44.8,108.5z"/>
		</g>
		<g>
			<path class="st1" d="M43.6,107.2c-1.7-0.9-3.7-0.4-4.7,1.3L31.2,122c-0.9,1.7-0.4,3.7,1.3,4.7c0.6,0.3,1.1,0.5,1.7,0.5
				c1.2,0,2.3-0.6,3-1.8l7.7-13.5C45.8,110.2,45.2,108.1,43.6,107.2z"/>
		</g>
		<path class="st2" d="M101.1,98.7h-49c-6.3,0-11.4,5.1-11.4,11.4s5.1,11.4,11.4,11.4h49c6.3,0,11.4-5.1,11.4-11.4
			C112.4,103.9,107.3,98.7,101.1,98.7z"/>
		<g>
			<path class="st1" d="M75.9,128.6c-1,0-1.9-0.5-2.7-1.2c-1.2-1.5-1-3.6,0.5-4.8l12.2-10.2c1.5-1.2,3.6-1,4.8,0.5
				c1.2,1.5,1,3.6-0.5,4.8L78,127.9C77.5,128.3,76.6,128.6,75.9,128.6z"/>
		</g>
		<g>
			<g>
				<path class="st0" d="M104.9,103.5c-1.1,0-2.1,0.5-2.8,1.2c-0.6-0.8-1.7-1.3-2.8-1.4c-2-0.1-3.7,1.6-3.8,3.6
					c-0.1,2,1.6,3.7,3.6,3.8c1.1,0,2.1-0.5,2.8-1.2c0.6,0.8,1.7,1.3,2.8,1.4c2,0.1,3.7-1.6,3.8-3.6
					C108.5,105.1,107,103.5,104.9,103.5z"/>
			</g>
			<g>
				<path class="st3" d="M101.5,107.1c0,0.6-0.5,0.9-1,0.9c-0.6,0-0.9-0.5-0.9-1c0-0.6,0.5-0.9,1-0.9
					C101.1,106.1,101.5,106.5,101.5,107.1z"/>
			</g>
			<g>
				<path class="st3" d="M104.6,107.1c0,0.6-0.5,0.9-1,0.9s-0.9-0.5-0.9-1c0-0.6,0.5-0.9,1-0.9C104.1,106.1,104.6,106.5,104.6,107.1
					z"/>
			</g>
		</g>
		<path class="st1" d="M79.9,92.5H61.8c-3.4,0-6.2,2.8-6.2,6.2v0h30.6v0C86.2,95.3,83.4,92.5,79.9,92.5z"/>
	</g>
	<g>
		<g>
			<path class="st1" d="M66,68.7l-7.7-13.5c-0.9-1.7-3.1-2.2-4.7-1.3c-1.7,0.9-2.2,3.1-1.3,4.7L60,72.2c0.6,1.1,1.8,1.8,3,1.8
				c0.6,0,1.2-0.2,1.7-0.5C66.4,72.5,66.9,70.4,66,68.7z"/>
		</g>
		<g>
			<path class="st1" d="M64.7,67.4C63,66.5,61,67.1,60,68.7l-7.7,13.5c-0.9,1.7-0.4,3.7,1.3,4.7c0.6,0.3,1.1,0.5,1.7,0.5
				c1.2,0,2.3-0.6,3-1.8l7.7-13.5C66.9,70.5,66.4,68.4,64.7,67.4z"/>
		</g>
		<path class="st2" d="M122.2,59h-49c-6.3,0-11.4,5.1-11.4,11.4c0,6.3,5.1,11.4,11.4,11.4h49c6.3,0,11.4-5.1,11.4-11.4
			C133.6,64.2,128.5,59,122.2,59z"/>
		<g>
			<path class="st1" d="M97.1,88.9c-1,0-1.9-0.5-2.7-1.2c-1.2-1.5-1-3.6,0.5-4.8L107,72.7c1.5-1.2,3.6-1,4.8,0.5
				c1.2,1.5,1,3.6-0.5,4.8L99.2,88.2C98.6,88.6,97.8,88.9,97.1,88.9z"/>
		</g>
		<g>
			<g>
				<path class="st0" d="M126.1,63.7c-1.1,0-2.1,0.5-2.8,1.2c-0.6-0.8-1.7-1.3-2.8-1.4c-2-0.1-3.7,1.6-3.8,3.6
					c-0.1,2,1.6,3.7,3.6,3.8c1.1,0,2.1-0.5,2.8-1.2c0.6,0.8,1.7,1.3,2.8,1.4c2,0.1,3.7-1.6,3.8-3.6
					C129.7,65.4,128.1,63.7,126.1,63.7z"/>
			</g>
			<g>
				<path class="st3" d="M122.7,67.3c0,0.6-0.5,0.9-1,0.9s-0.9-0.5-0.9-1c0-0.6,0.5-0.9,1-0.9C122.2,66.3,122.7,66.8,122.7,67.3z"/>
			</g>
			<g>
				<path class="st3" d="M125.7,67.3c0,0.6-0.5,0.9-1,0.9s-0.9-0.5-0.9-1c0-0.6,0.5-0.9,1-0.9C125.3,66.4,125.7,66.8,125.7,67.3z"/>
			</g>
		</g>
		<path class="st1" d="M101.1,52.8H82.9c-3.4,0-6.2,2.8-6.2,6.2v0h30.6v0C107.3,55.6,104.5,52.8,101.1,52.8z"/>
	</g>
</g>
</svg>
