<?xml version="1.0" encoding="utf-8"?>
<!-- Generator: Adobe Illustrator 22.0.1, SVG Export Plug-In . SVG Version: 6.00 Build 0)  -->
<svg version="1.1" id="Layer_1" xmlns="http://www.w3.org/2000/svg" xmlns:xlink="http://www.w3.org/1999/xlink" x="0px" y="0px"
	 viewBox="0 0 141.7 141.7" style="enable-background:new 0 0 141.7 141.7;" xml:space="preserve">
<style type="text/css">
	.st0{fill:#FFFFFF;}
	.st1{fill:#568EAD;}
	.st2{fill:#2E1010;}
</style>
<circle class="st0" cx="70.9" cy="70.9" r="70.9"/>
<g>
	<g>
		<path class="st1" d="M125.5,58.7h-53c-6.8,0-12.3,5.5-12.3,12.3s5.5,12.3,12.3,12.3h53c6.8,0,12.3-5.5,12.3-12.3
			S132.3,58.7,125.5,58.7z"/>
		<g>
			<path class="st1" d="M64.7,69.2l-8.3-14.6c-1-1.8-3.3-2.4-5.1-1.4c-1.8,1-2.4,3.3-1.4,5.1l8.3,14.6c0.7,1.2,1.9,1.9,3.2,1.9
				c0.6,0,1.3-0.2,1.8-0.5C65.1,73.3,65.7,71,64.7,69.2z"/>
		</g>
		<g>
			<path class="st1" d="M63.3,67.8c-1.8-1-4-0.4-5.1,1.4L50,83.8c-1,1.8-0.4,4,1.4,5.1c0.6,0.3,1.2,0.5,1.8,0.5
				c1.3,0,2.5-0.7,3.2-1.9l8.3-14.6C65.7,71.1,65.1,68.9,63.3,67.8z"/>
		</g>
		<g>
			<path class="st1" d="M98.3,91c-1.1,0-2.1-0.5-2.9-1.3c-1.3-1.6-1.1-3.9,0.5-5.2l13.2-11c1.6-1.3,3.9-1.1,5.2,0.5
				c1.3,1.6,1.1,3.9-0.5,5.2l-13.2,11C99.9,90.7,99.1,91,98.3,91z"/>
		</g>
		<g>
			<g>
				<path class="st0" d="M129.6,63.8c-1.2,0-2.3,0.5-3,1.3c-0.7-0.9-1.8-1.4-3-1.5c-2.2-0.1-4,1.7-4.1,3.9c-0.1,2.2,1.7,4,3.9,4.1
					c1.2,0,2.3-0.5,3-1.3c0.7,0.9,1.8,1.4,3,1.5c2.2,0.1,4-1.7,4.1-3.9C133.6,65.6,131.8,63.8,129.6,63.8z"/>
			</g>
			<g>
				<path class="st2" d="M125.9,67.7c0,0.6-0.5,1-1.1,1c-0.6,0-1-0.5-1-1.1c0-0.6,0.5-1,1.1-1C125.5,66.6,126,67.1,125.9,67.7z"/>
			</g>
			<g>
				<path class="st2" d="M129.2,67.7c0,0.6-0.5,1-1.1,1c-0.6,0-1-0.5-1-1.1c0-0.6,0.5-1,1.1-1C128.8,66.7,129.2,67.2,129.2,67.7z"/>
			</g>
		</g>
	</g>
	<g>
		<path class="st1" d="M102.6,93.7h-53c-6.8,0-12.3,5.5-12.3,12.3c0,6.8,5.5,12.3,12.3,12.3h53c6.8,0,12.3-5.5,12.3-12.3
			C114.9,99.3,109.4,93.7,102.6,93.7z"/>
		<g>
			<path class="st1" d="M41.8,104.2l-8.3-14.6c-1-1.8-3.3-2.4-5.1-1.4c-1.8,1-2.4,3.3-1.4,5.1l8.3,14.6c0.7,1.2,1.9,1.9,3.2,1.9
				c0.6,0,1.3-0.2,1.8-0.5C42.2,108.3,42.8,106,41.8,104.2z"/>
		</g>
		<g>
			<path class="st1" d="M40.4,102.8c-1.8-1-4-0.4-5.1,1.4l-8.3,14.6c-1,1.8-0.4,4,1.4,5.1c0.6,0.3,1.2,0.5,1.8,0.5
				c1.3,0,2.5-0.7,3.2-1.9l8.3-14.6C42.8,106.1,42.2,103.8,40.4,102.8z"/>
		</g>
		<g>
			<path class="st1" d="M75.4,126c-1.1,0-2.1-0.5-2.9-1.3c-1.3-1.6-1.1-3.9,0.5-5.2l13.2-11c1.6-1.3,3.9-1.1,5.2,0.5
				c1.3,1.6,1.1,3.9-0.5,5.2l-13.2,11C77.1,125.7,76.2,126,75.4,126z"/>
		</g>
		<g>
			<g>
				<path class="st0" d="M106.8,98.8c-1.2,0-2.3,0.5-3,1.3c-0.7-0.9-1.8-1.4-3-1.5c-2.2-0.1-4,1.7-4.1,3.9c-0.1,2.2,1.7,4,3.9,4.1
					c1.2,0,2.3-0.5,3-1.3c0.7,0.9,1.8,1.4,3,1.5c2.2,0.1,4-1.7,4.1-3.9C110.7,100.6,109,98.8,106.8,98.8z"/>
			</g>
			<g>
				<path class="st2" d="M103.1,102.7c0,0.6-0.5,1-1.1,1c-0.6,0-1-0.5-1-1.1c0-0.6,0.5-1,1.1-1C102.6,101.6,103.1,102.1,103.1,102.7
					z"/>
			</g>
			<g>
				<path class="st2" d="M106.4,102.7c0,0.6-0.5,1-1.1,1c-0.6,0-1-0.5-1-1.1c0-0.6,0.5-1,1.1-1C105.9,101.7,106.4,102.1,106.4,102.7
					z"/>
			</g>
		</g>
	</g>
	<g>
		<path class="st1" d="M102.6,23.7h-53c-6.8,0-12.3,5.5-12.3,12.3c0,6.8,5.5,12.3,12.3,12.3h53c6.8,0,12.3-5.5,12.3-12.3
			C114.9,29.3,109.4,23.7,102.6,23.7z"/>
		<g>
			<path class="st1" d="M41.8,34.2l-8.3-14.6c-1-1.8-3.3-2.4-5.1-1.4c-1.8,1-2.4,3.3-1.4,5.1l8.3,14.6c0.7,1.2,1.9,1.9,3.2,1.9
				c0.6,0,1.3-0.2,1.8-0.5C42.2,38.3,42.8,36,41.8,34.2z"/>
		</g>
		<g>
			<path class="st1" d="M40.4,32.8c-1.8-1-4-0.4-5.1,1.4l-8.3,14.6c-1,1.8-0.4,4,1.4,5.1c0.6,0.3,1.2,0.5,1.8,0.5
				c1.3,0,2.5-0.7,3.2-1.9l8.3-14.6C42.8,36.1,42.2,33.8,40.4,32.8z"/>
		</g>
		<g>
			<path class="st1" d="M75.4,56c-1.1,0-2.1-0.5-2.9-1.3c-1.3-1.6-1.1-3.9,0.5-5.2l13.2-11c1.6-1.3,3.9-1.1,5.2,0.5
				c1.3,1.6,1.1,3.9-0.5,5.2l-13.2,11C77.1,55.7,76.2,56,75.4,56z"/>
		</g>
		<g>
			<g>
				<path class="st0" d="M106.8,28.8c-1.2,0-2.3,0.5-3,1.3c-0.7-0.9-1.8-1.4-3-1.5c-2.2-0.1-4,1.7-4.1,3.9c-0.1,2.2,1.7,4,3.9,4.1
					c1.2,0,2.3-0.5,3-1.3c0.7,0.9,1.8,1.4,3,1.5c2.2,0.1,4-1.7,4.1-3.9C110.7,30.6,109,28.8,106.8,28.8z"/>
			</g>
			<g>
				<path class="st2" d="M103.1,32.7c0,0.6-0.5,1-1.1,1c-0.6,0-1-0.5-1-1.1c0-0.6,0.5-1,1.1-1C102.6,31.6,103.1,32.1,103.1,32.7z"/>
			</g>
			<g>
				<path class="st2" d="M106.4,32.7c0,0.6-0.5,1-1.1,1c-0.6,0-1-0.5-1-1.1c0-0.6,0.5-1,1.1-1C105.9,31.7,106.4,32.1,106.4,32.7z"/>
			</g>
		</g>
	</g>
</g>
</svg>
