<?xml version="1.0" encoding="utf-8"?>
<!-- Generator: Adobe Illustrator 22.0.1, SVG Export Plug-In . SVG Version: 6.00 Build 0)  -->
<svg version="1.1" id="Layer_1" xmlns="http://www.w3.org/2000/svg" xmlns:xlink="http://www.w3.org/1999/xlink" x="0px" y="0px"
	 viewBox="0 0 400 400" style="enable-background:new 0 0 400 400;" xml:space="preserve">
<style type="text/css">
	.st0{clip-path:url(#SVGID_2_);}
	.st1{fill:url(#SVGID_3_);}
	.st2{opacity:0.1;fill:#FFFFFF;}
	.st3{fill:#FFFFFF;}
	.st4{fill:url(#SVGID_4_);}
	.st5{opacity:0.2;fill:#FFFFFF;}
	.st6{opacity:0.3;fill:#FFFFFF;}
	.st7{opacity:0.2;fill:#242A4C;}
	.st8{opacity:0.4;fill:#FFFFFF;}
	.st9{fill:#34234B;}
	.st10{fill:url(#SVGID_5_);}
	.st11{fill:none;}
	.st12{fill:#2A1C3E;}
	.st13{fill:url(#SVGID_6_);}
	.st14{fill:url(#SVGID_7_);}
	.st15{fill:url(#SVGID_8_);}
	.st16{fill:url(#SVGID_9_);}
	.st17{fill:url(#SVGID_10_);}
</style>
<g>
	<defs>
		<polygon id="SVGID_1_" points="-791,-600 -41,-600 -41,306 -416,400 -791,306 		"/>
	</defs>
	<clipPath id="SVGID_2_">
		<use xlink:href="#SVGID_1_"  style="overflow:visible;"/>
	</clipPath>
	<g class="st0">
		<g>
			<g>
				<path class="st3" d="M26.6,214.5l-38.9-3.9c-2.7,2.4-6.1,3.9-10,3.9H26.6z"/>
				<path class="st3" d="M355.2,103.8h-277c3.7-1.6,6.2-5.2,6.2-9.4c0-5.6-4.6-10.2-10.2-10.2h-209.8c-5.6,0-10.2,4.6-10.2,10.2
					c0,4.2,2.6,7.8,6.2,9.4h-25.9c-14,0-25.3,11.3-25.3,25.3c0,14,11.3,25.3,25.3,25.3h-62.9c-8.3,0-15,6.7-15,15
					c0,7.8,5.9,14.1,13.5,14.9h-70.8c-0.1,0-0.3-0.1-0.4-0.1c-0.1,0.1-0.3,0.1-0.4,0.1h-10v1.3l-1.2-1.1h-17.8c-8.3,0-15,6.7-15,15
					s6.7,15,15,15h48.9l-18.2-17.6h77.7v-7.1l209.8,20.8c3.1-2.7,5-6.7,5-11.1c0-8.3-6.7-15-15-15H79.9c8.3,0,15-6.7,15-15
					s-6.7-15-15-15h275.4c14,0,25.3-11.3,25.3-25.3C380.6,115.1,369.2,103.8,355.2,103.8z"/>
			</g>
			<g>
				<linearGradient id="SVGID_3_" gradientUnits="userSpaceOnUse" x1="17.9409" y1="86.0063" x2="17.9409" y2="262.0541">
					<stop  offset="0" style="stop-color:#2F328F"/>
					<stop  offset="1" style="stop-color:#300B30"/>
				</linearGradient>
				<path class="st1" d="M355.7,105.6h-277c3.7-1.6,6.2-5.2,6.2-9.4c0-5.6-4.6-10.2-10.2-10.2h-209.8c-5.6,0-10.2,4.6-10.2,10.2
					c0,4.2,2.6,7.8,6.2,9.4h-25.9c-14,0-25.3,11.3-25.3,25.3c0,14,11.3,25.3,25.3,25.3h-62.9c-8.3,0-15,6.7-15,15
					c0,8.3,6.7,15,15,15h-47.9c1.9-0.5,3.3-2.2,3.3-4.3c0-0.1,0-0.2,0-0.3v-21.1c0.4-0.3,0.7-0.7,0.9-1.1h2.7v0
					c0.2,0,0.3-0.1,0.3-0.3c0-0.2-0.1-0.3-0.3-0.3v0h-2.5c0-0.1,0.1-0.3,0.1-0.4h2.4v0c0.2,0,0.3-0.1,0.3-0.3c0-0.2-0.1-0.3-0.3-0.3
					v0h-2.4c0-0.1,0-0.3-0.1-0.4h2.5v0c0.2,0,0.3-0.1,0.3-0.3c0-0.2-0.1-0.3-0.3-0.3v0h-2.7c-0.2-0.5-0.6-0.9-1.1-1.2
					c-0.8-4.9-5.1-8.7-10.3-8.7c-5.8,0-10.5,4.7-10.5,10.5v18.5h-5c-2.8,0-5.1,2.3-5.1,5.1c0,0.2,0,0.3,0,0.5h-8.4
					c-1.3,0-2.3,1-2.3,2.3c0,1.2,0.9,2.1,2,2.2h-17.8c-8.3,0-15,6.7-15,15c0,8.3,6.7,15,15,15h48.9c-8.3,0-15,6.7-15,15
					c0,8.3,6.7,15,15,15h50.7v1.4c-3.7,0.3-6.6,3.4-6.6,7.2c0,4,3.2,7.2,7.2,7.2h69.9h78.8h131c5.6,0,10.2-4.6,10.2-10.2
					c0-5.6-4.6-10.2-10.2-10.2H37.8c2.6-2.7,4.2-6.3,4.2-10.4c0-8.3-6.7-15-15-15h-48.9c8.3,0,15-6.7,15-15c0-8.3-6.7-15-15-15H80.3
					c8.3,0,15-6.7,15-15c0-8.3-6.7-15-15-15h275.4c14,0,25.3-11.3,25.3-25.3C381,117,369.7,105.6,355.7,105.6z M-300.6,186
					c0.3,0.1,0.6,0.2,0.9,0.3h-1.7C-301.2,186.2-300.9,186.2-300.6,186z"/>
			</g>
		</g>
	</g>
</g>
<g>
	<path class="st3" d="M200,0C89.5,0,0,89.5,0,200s89.5,200,200,200s200-89.5,200-200S310.5,0,200,0z M319,258.6
		c0,13.3-10.8,24.1-24.1,24.1H105.1c-13.3,0-24.1-10.8-24.1-24.1v-96.7c0-13.3,10.8-24.1,24.1-24.1h38.1c5.2,0,9.9-2.9,12.3-7.4
		l3.6-6.8c2-3.8,6-6.2,10.4-6.2h60.9c4.4,0,8.3,2.4,10.4,6.2l3.6,6.8c2.4,4.6,7.2,7.4,12.3,7.4h38.1c13.3,0,24.1,10.8,24.1,24.1
		V258.6z M200,157c-29.4,0-53.3,23.9-53.3,53.3s23.9,53.3,53.3,53.3s53.3-23.9,53.3-53.3S229.4,157,200,157z M200,258.6
		c-26.7,0-48.3-21.7-48.3-48.3c0-26.7,21.7-48.3,48.3-48.3s48.3,21.7,48.3,48.3C248.3,236.9,226.7,258.6,200,258.6z"/>
</g>
<g>
	<g>
		<circle class="st3" cx="200" cy="210.2" r="38.2"/>
	</g>
</g>
</svg>
