<?xml version="1.0" encoding="utf-8"?>
<!-- Generator: Adobe Illustrator 22.0.1, SVG Export Plug-In . SVG Version: 6.00 Build 0)  -->
<svg version="1.1" xmlns="http://www.w3.org/2000/svg" xmlns:xlink="http://www.w3.org/1999/xlink" x="0px" y="0px"
	 viewBox="0 0 238 165.4" style="enable-background:new 0 0 238 165.4;" xml:space="preserve">
<style type="text/css">
	.st0{clip-path:url(#SVGID_2_);}
	.st1{fill:url(#SVGID_3_);}
	.st2{opacity:0.1;fill:#FFFFFF;}
	.st3{fill:#FFFFFF;}
	.st4{fill:url(#SVGID_4_);}
	.st5{opacity:0.2;fill:#FFFFFF;}
	.st6{opacity:0.3;fill:#FFFFFF;}
	.st7{opacity:0.2;fill:#242A4C;}
	.st8{opacity:0.4;fill:#FFFFFF;}
	.st9{fill:#34234B;}
	.st10{fill:url(#SVGID_5_);}
	.st11{fill:none;}
	.st12{fill:#2A1C3E;}
	.st13{fill:url(#SVGID_6_);}
	.st14{fill:url(#SVGID_7_);}
	.st15{fill:url(#SVGID_8_);}
	.st16{fill:url(#SVGID_9_);}
	.st17{fill:url(#SVGID_10_);}
	.st18{fill:#EB1B7F;}
	.st19{fill:url(#SVGID_11_);}
	.st20{fill:url(#SVGID_12_);}
	.st21{fill:url(#SVGID_13_);}
	.st22{fill:url(#SVGID_14_);}
	.st23{fill:#2D5A96;}
	.st24{clip-path:url(#SVGID_16_);fill:url(#SVGID_17_);}
	.st25{opacity:0.1;clip-path:url(#SVGID_16_);fill:#FFFFFF;}
	.st26{clip-path:url(#SVGID_16_);fill:#FFFFFF;}
	.st27{clip-path:url(#SVGID_16_);fill:url(#SVGID_18_);}
	.st28{opacity:0.2;clip-path:url(#SVGID_16_);fill:#FFFFFF;}
	.st29{opacity:0.3;clip-path:url(#SVGID_16_);fill:#FFFFFF;}
	.st30{opacity:0.2;clip-path:url(#SVGID_16_);fill:#242A4C;}
	.st31{opacity:0.4;clip-path:url(#SVGID_16_);fill:#FFFFFF;}
	.st32{clip-path:url(#SVGID_16_);}
	.st33{fill:url(#SVGID_19_);}
	.st34{fill:url(#SVGID_20_);}
	.st35{fill:url(#SVGID_21_);}
	.st36{fill:url(#SVGID_22_);}
	.st37{fill:url(#SVGID_23_);}
	.st38{fill:url(#SVGID_24_);}
	.st39{fill:url(#SVGID_25_);}
	.st40{fill:#20749D;}
	.st41{fill:url(#SVGID_26_);}
	.st42{fill:url(#SVGID_27_);}
	.st43{fill:url(#SVGID_28_);}
	.st44{fill:url(#SVGID_29_);}
	.st45{fill:url(#SVGID_30_);}
	.st46{fill:url(#SVGID_31_);}
	.st47{fill:url(#SVGID_32_);}
	.st48{fill:url(#SVGID_33_);}
	.st49{fill:url(#SVGID_34_);}
	.st50{fill:url(#SVGID_35_);}
	.st51{fill:url(#SVGID_36_);}
	.st52{fill:url(#SVGID_37_);}
	.st53{fill:url(#SVGID_38_);}
	.st54{fill:url(#SVGID_39_);}
	.st55{fill:url(#SVGID_40_);}
	.st56{fill:url(#SVGID_41_);}
	.st57{fill:url(#SVGID_42_);}
	.st58{fill:url(#SVGID_43_);}
	.st59{fill:url(#SVGID_44_);}
	.st60{fill:url(#SVGID_45_);}
	.st61{fill:url(#SVGID_46_);}
	.st62{fill:url(#SVGID_47_);}
	.st63{fill:url(#SVGID_48_);}
	.st64{fill:url(#SVGID_49_);}
	.st65{fill:url(#SVGID_50_);}
	.st66{fill:url(#SVGID_51_);}
	.st67{fill:url(#SVGID_52_);}
	.st68{fill:url(#SVGID_53_);}
	.st69{fill:url(#SVGID_54_);}
	.st70{fill:url(#SVGID_55_);}
	.st71{fill:url(#SVGID_56_);}
	.st72{fill:url(#SVGID_57_);}
	.st73{fill:url(#SVGID_58_);}
	.st74{fill:url(#SVGID_59_);}
	.st75{fill:url(#SVGID_60_);}
	.st76{fill:url(#SVGID_61_);}
	.st77{fill:url(#SVGID_62_);}
	.st78{fill:url(#SVGID_63_);}
</style>
<g id="Layer_1">
	<g>
		<path class="st3" d="M213.9,20.5h-38.1c-5.2,0-9.9-2.9-12.3-7.4l-3.6-6.8c-2-3.8-6-6.2-10.4-6.2H88.5c-4.3,0-8.3,2.4-10.4,6.2
			l-3.6,6.8c-2.4,4.6-7.2,7.4-12.3,7.4H24.1C10.8,20.5,0,31.3,0,44.6v96.7c0,13.3,10.8,24.1,24.1,24.1h189.7
			c13.3,0,24.1-10.8,24.1-24.1V44.6C238,31.3,227.2,20.5,213.9,20.5z M119,146.2c-29.4,0-53.3-23.9-53.3-53.3S89.6,39.7,119,39.7
			s53.3,23.9,53.3,53.3S148.4,146.2,119,146.2z M119,44.6c-26.7,0-48.3,21.7-48.3,48.3c0,26.7,21.7,48.3,48.3,48.3
			c26.7,0,48.3-21.7,48.3-48.3C167.3,66.3,145.7,44.6,119,44.6z M119,131.1c-21.1,0-38.2-17.1-38.2-38.2c0-21.1,17.1-38.2,38.2-38.2
			s38.2,17.1,38.2,38.2C157.2,114,140.1,131.1,119,131.1z"/>
	</g>
</g>
<g id="ceu">
</g>
<g id="mar">
</g>
<g id="terra">
</g>
<g id="Layer_5">
</g>
<g id="Layer_6">
</g>
</svg>
