<?xml version="1.0" encoding="utf-8"?>
<!-- Generator: Adobe Illustrator 22.0.1, SVG Export Plug-In . SVG Version: 6.00 Build 0)  -->
<svg version="1.1" xmlns="http://www.w3.org/2000/svg" xmlns:xlink="http://www.w3.org/1999/xlink" x="0px" y="0px"
	 viewBox="0 0 400 400" style="enable-background:new 0 0 400 400;" xml:space="preserve">
<style type="text/css">
	.st0{clip-path:url(#SVGID_2_);}
	.st1{fill:url(#SVGID_3_);}
	.st2{opacity:0.1;fill:#FFFFFF;}
	.st3{fill:#FFFFFF;}
	.st4{fill:url(#SVGID_4_);}
	.st5{opacity:0.2;fill:#FFFFFF;}
	.st6{opacity:0.3;fill:#FFFFFF;}
	.st7{opacity:0.2;fill:#242A4C;}
	.st8{opacity:0.4;fill:#FFFFFF;}
	.st9{fill:#34234B;}
	.st10{fill:url(#SVGID_5_);}
	.st11{fill:none;}
	.st12{fill:#2A1C3E;}
	.st13{fill:url(#SVGID_6_);}
	.st14{fill:url(#SVGID_7_);}
	.st15{fill:url(#SVGID_8_);}
	.st16{fill:url(#SVGID_9_);}
	.st17{fill:url(#SVGID_10_);}
	.st18{opacity:0.6;fill:#FFFFFF;}
	.st19{clip-path:url(#SVGID_12_);fill:url(#SVGID_13_);}
	.st20{opacity:0.1;clip-path:url(#SVGID_12_);fill:#FFFFFF;}
	.st21{clip-path:url(#SVGID_12_);fill:#FFFFFF;}
	.st22{clip-path:url(#SVGID_12_);fill:url(#SVGID_14_);}
	.st23{opacity:0.2;clip-path:url(#SVGID_12_);fill:#FFFFFF;}
	.st24{opacity:0.3;clip-path:url(#SVGID_12_);fill:#FFFFFF;}
	.st25{opacity:0.2;clip-path:url(#SVGID_12_);fill:#242A4C;}
	.st26{opacity:0.4;clip-path:url(#SVGID_12_);fill:#FFFFFF;}
	.st27{clip-path:url(#SVGID_12_);}
	.st28{fill:url(#SVGID_15_);}
	.st29{fill:url(#SVGID_16_);}
	.st30{fill:url(#SVGID_17_);}
	.st31{fill:url(#SVGID_18_);}
	.st32{fill:url(#SVGID_19_);}
	.st33{fill:url(#SVGID_20_);}
	.st34{fill:url(#SVGID_21_);}
	.st35{fill:url(#SVGID_22_);}
	.st36{fill:url(#SVGID_23_);}
	.st37{fill:url(#SVGID_24_);}
	.st38{fill:url(#SVGID_25_);}
	.st39{fill:url(#SVGID_26_);}
	.st40{fill:url(#SVGID_27_);}
	.st41{fill:url(#SVGID_28_);}
	.st42{fill:url(#SVGID_29_);}
	.st43{fill:url(#SVGID_30_);}
	.st44{fill:url(#SVGID_31_);}
	.st45{fill:url(#SVGID_32_);}
	.st46{fill:url(#SVGID_33_);}
	.st47{fill:url(#SVGID_34_);}
	.st48{fill:url(#SVGID_35_);}
	.st49{fill:url(#SVGID_36_);}
	.st50{fill:url(#SVGID_37_);}
	.st51{fill:url(#SVGID_38_);}
	.st52{fill:url(#SVGID_39_);}
	.st53{fill:url(#SVGID_40_);}
	.st54{fill:url(#SVGID_41_);}
	.st55{fill:url(#SVGID_42_);}
	.st56{fill:url(#SVGID_43_);}
	.st57{fill:url(#SVGID_44_);}
	.st58{fill:url(#SVGID_45_);}
	.st59{fill:url(#SVGID_46_);}
	.st60{fill:url(#SVGID_47_);}
	.st61{fill:url(#SVGID_48_);}
	.st62{fill:url(#SVGID_49_);}
	.st63{fill:url(#SVGID_50_);}
	.st64{fill:url(#SVGID_51_);}
	.st65{fill:url(#SVGID_52_);}
	.st66{fill:url(#SVGID_53_);}
	.st67{fill:url(#SVGID_54_);}
	.st68{fill:url(#SVGID_55_);}
	.st69{fill:url(#SVGID_56_);}
	.st70{fill:url(#SVGID_57_);}
	.st71{fill:url(#SVGID_58_);}
</style>
<g id="Layer_1">
	<g>
		<g>
			<path class="st3" d="M200,0C89.5,0,0,89.5,0,200s89.5,200,200,200s200-89.5,200-200S310.5,0,200,0z M319,258.6
				c0,13.3-10.8,24.1-24.1,24.1H105.1c-13.3,0-24.1-10.8-24.1-24.1v-96.7c0-13.3,10.8-24.1,24.1-24.1h38.1c5.2,0,9.9-2.9,12.3-7.4
				l3.6-6.8c2-3.8,6-6.2,10.4-6.2h60.9c4.4,0,8.3,2.4,10.4,6.2l3.6,6.8c2.4,4.6,7.2,7.4,12.3,7.4h38.1c13.3,0,24.1,10.8,24.1,24.1
				V258.6z M200,157c-29.4,0-53.3,23.9-53.3,53.3s23.9,53.3,53.3,53.3s53.3-23.9,53.3-53.3S229.4,157,200,157z M200,258.6
				c-26.7,0-48.3-21.7-48.3-48.3c0-26.7,21.7-48.3,48.3-48.3s48.3,21.7,48.3,48.3C248.3,236.9,226.7,258.6,200,258.6z"/>
		</g>
		<g>
			<circle class="st3" cx="200" cy="210.2" r="38.2"/>
		</g>
	</g>
</g>
<g id="ceu">
</g>
<g id="mar">
</g>
<g id="terra">
</g>
<g id="Layer_5">
</g>
<g id="Layer_6">
</g>
</svg>
