<?xml version="1.0" encoding="utf-8"?>
<!-- Generator: Adobe Illustrator 22.0.1, SVG Export Plug-In . SVG Version: 6.00 Build 0)  -->
<svg version="1.1" xmlns="http://www.w3.org/2000/svg" xmlns:xlink="http://www.w3.org/1999/xlink" x="0px" y="0px"
	 viewBox="0 0 400 400" style="enable-background:new 0 0 400 400;" xml:space="preserve">
<style type="text/css">
	.st0{clip-path:url(#SVGID_2_);}
	.st1{fill:url(#SVGID_3_);}
	.st2{opacity:0.1;fill:#FFFFFF;}
	.st3{fill:#FFFFFF;}
	.st4{fill:url(#SVGID_4_);}
	.st5{opacity:0.2;fill:#FFFFFF;}
	.st6{opacity:0.3;fill:#FFFFFF;}
	.st7{opacity:0.2;fill:#242A4C;}
	.st8{opacity:0.4;fill:#FFFFFF;}
	.st9{fill:#34234B;}
	.st10{fill:url(#SVGID_5_);}
	.st11{fill:none;}
	.st12{fill:#2A1C3E;}
	.st13{fill:url(#SVGID_6_);}
	.st14{fill:url(#SVGID_7_);}
	.st15{fill:url(#SVGID_8_);}
	.st16{fill:url(#SVGID_9_);}
	.st17{fill:url(#SVGID_10_);}
	.st18{fill:#EB1B7F;}
	.st19{fill:url(#SVGID_11_);}
	.st20{fill:url(#SVGID_12_);}
	.st21{fill:url(#SVGID_13_);}
	.st22{fill:url(#SVGID_14_);}
	.st23{opacity:0.6;fill:#FFFFFF;}
	.st24{clip-path:url(#SVGID_16_);fill:url(#SVGID_17_);}
	.st25{opacity:0.1;clip-path:url(#SVGID_16_);fill:#FFFFFF;}
	.st26{clip-path:url(#SVGID_16_);fill:#FFFFFF;}
	.st27{clip-path:url(#SVGID_16_);fill:url(#SVGID_18_);}
	.st28{opacity:0.2;clip-path:url(#SVGID_16_);fill:#FFFFFF;}
	.st29{opacity:0.3;clip-path:url(#SVGID_16_);fill:#FFFFFF;}
	.st30{opacity:0.2;clip-path:url(#SVGID_16_);fill:#242A4C;}
	.st31{opacity:0.4;clip-path:url(#SVGID_16_);fill:#FFFFFF;}
	.st32{clip-path:url(#SVGID_16_);}
	.st33{fill:url(#SVGID_19_);}
	.st34{fill:url(#SVGID_20_);}
	.st35{fill:url(#SVGID_21_);}
	.st36{fill:url(#SVGID_22_);}
	.st37{fill:url(#SVGID_23_);}
	.st38{fill:url(#SVGID_24_);}
	.st39{fill:url(#SVGID_25_);}
	.st40{fill:#20749D;}
	.st41{fill:url(#SVGID_26_);}
	.st42{fill:url(#SVGID_27_);}
	.st43{fill:url(#SVGID_28_);}
	.st44{fill:url(#SVGID_29_);}
	.st45{fill:url(#SVGID_30_);}
	.st46{fill:url(#SVGID_31_);}
	.st47{fill:url(#SVGID_32_);}
	.st48{fill:url(#SVGID_33_);}
	.st49{fill:url(#SVGID_34_);}
	.st50{fill:url(#SVGID_35_);}
	.st51{fill:url(#SVGID_36_);}
	.st52{fill:url(#SVGID_37_);}
	.st53{fill:url(#SVGID_38_);}
	.st54{fill:url(#SVGID_39_);}
	.st55{fill:url(#SVGID_40_);}
	.st56{fill:url(#SVGID_41_);}
	.st57{fill:url(#SVGID_42_);}
	.st58{fill:url(#SVGID_43_);}
	.st59{fill:url(#SVGID_44_);}
	.st60{fill:url(#SVGID_45_);}
	.st61{fill:url(#SVGID_46_);}
	.st62{fill:url(#SVGID_47_);}
	.st63{fill:url(#SVGID_48_);}
	.st64{fill:url(#SVGID_49_);}
	.st65{fill:url(#SVGID_50_);}
	.st66{fill:url(#SVGID_51_);}
	.st67{fill:url(#SVGID_52_);}
	.st68{fill:url(#SVGID_53_);}
	.st69{fill:url(#SVGID_54_);}
	.st70{fill:url(#SVGID_55_);}
	.st71{fill:url(#SVGID_56_);}
	.st72{fill:url(#SVGID_57_);}
	.st73{fill:url(#SVGID_58_);}
	.st74{fill:url(#SVGID_59_);}
	.st75{fill:url(#SVGID_60_);}
	.st76{fill:url(#SVGID_61_);}
	.st77{fill:url(#SVGID_62_);}
	.st78{fill:url(#SVGID_63_);}
</style>
<g id="Layer_1">
	<g>
		<g>
			<g>
				<linearGradient id="SVGID_2_" gradientUnits="userSpaceOnUse" x1="196.475" y1="4" x2="196.475" y2="400.0454">
					<stop  offset="0" style="stop-color:#00B3BC"/>
					<stop  offset="0.564" style="stop-color:#2E5B90"/>
					<stop  offset="0.8226" style="stop-color:#40377F"/>
				</linearGradient>
				<path style="fill:url(#SVGID_2_);" d="M373.5,263.3l-0.7-0.3c-0.5-0.2-1-0.4-1.6-0.6l-0.7-0.3c-0.6-0.2-1.1-0.4-1.7-0.7
					l-0.7-0.3c-0.5-0.2-1.1-0.5-1.7-0.7l-0.7-0.3c-0.6-0.2-1.1-0.5-1.8-0.7l-3-1.3c-0.7-0.3-2.5-1.1-2.5-1.1c-0.5-0.2-1.6-0.8-2.2-1
					c-23,64.1-84.5,110.1-156.4,110.1c-69.8,0-129.6-43.3-154.2-104.4c-0.9-0.3-1.8-0.6-2.7-0.9c-7.1-2.4-15-6.4-22.4-10.7
					c22,78.3,94,135.9,179.3,135.9c80.2,0,148.8-51,174.9-122.4l0,0C374.4,263.6,374,263.5,373.5,263.3z M29.7,151.9
					c2.4-1.8,4.8-3.6,7.1-5.3c2.7-2,5.3-3.8,7.9-5.6C68.6,78.4,129.2,33.9,200,33.9c72.1,0,133.6,46.1,156.5,110.4
					c0.8-0.3,2.4-1.1,2.5-1.1c0.9-0.4,3-1.3,3-1.3c0.9-0.4,2.9-1.2,3-1.3c3-1.3,5.9-2.5,8.5-3.5c0.1,0,0.1-0.1,0.2-0.1
					c0.5-0.2,0.9-0.3,1.3-0.5C349,65.1,280.4,13.9,200,13.9c-89.3,0-164.1,63.2-182,147.2c1.9-1.4,3.7-2.8,5.4-4.2
					C25.4,155.2,27.6,153.5,29.7,151.9z"/>
			</g>
		</g>
	</g>
	<path class="st3" d="M400,151.5c0-0.5-0.2-0.9-0.4-1.1c-0.1-0.1-0.3-0.1-0.5-0.2c-0.1,0-0.2,0-0.2,0c-0.2,0-0.3,0-0.6,0
		c-0.1,0-0.3,0-0.4,0c-0.2,0-0.4,0-0.7,0.1c-0.2,0-0.3,0.1-0.5,0.1c-0.3,0-0.5,0.1-0.8,0.2c-0.2,0-0.4,0.1-0.6,0.1
		c-0.3,0.1-0.6,0.2-0.9,0.2c-0.2,0.1-0.4,0.1-0.6,0.2c-0.3,0.1-0.7,0.2-1.1,0.3c-0.2,0.1-0.5,0.1-0.7,0.2c-0.4,0.1-0.8,0.3-1.2,0.4
		c-0.2,0.1-0.5,0.2-0.7,0.2c-0.4,0.2-0.9,0.3-1.4,0.5c-0.2,0.1-0.5,0.2-0.7,0.3c-0.5,0.2-1,0.4-1.6,0.6c-0.2,0.1-0.4,0.2-0.7,0.2
		c-0.6,0.2-1.2,0.5-1.8,0.7c-0.2,0.1-0.4,0.1-0.5,0.2c-0.8,0.3-1.5,0.6-2.3,0.9c0,0-0.1,0-0.1,0.1c-2.6,1-5.4,2.2-8.2,3.4
		c0,0,0,0,0,0c-0.1,0-0.1,0-0.2,0.1c-0.9,0.4-1.7,0.7-2.6,1.1c-0.2,0.1-0.3,0.1-0.5,0.2c-0.8,0.3-1.6,0.7-2.4,1
		c-0.1,0-0.1,0.1-0.2,0.1c-0.1,0.1-0.3,0.1-0.4,0.2c-0.8,0.3-1.5,0.7-2.3,1c-0.2,0.1-0.4,0.2-0.6,0.3c-0.8,0.3-1.5,0.7-2.3,1
		c-0.2,0.1-0.4,0.2-0.6,0.3c-0.8,0.3-1.5,0.7-2.3,1c-0.1,0-0.2,0.1-0.3,0.1c-0.1,0-0.2,0.1-0.3,0.1c-0.8,0.4-1.6,0.7-2.3,1
		c-0.1,0.1-0.3,0.1-0.4,0.2c-0.8,0.4-1.6,0.7-2.4,1.1c-0.1,0-0.2,0.1-0.2,0.1c0,0-0.1,0-0.1,0c-0.9,0.4-1.7,0.8-2.6,1.2
		c0,0-0.1,0-0.1,0c-6.7,3-12.4,5.7-16.1,7.4c-0.6,0.3-1.2,0.6-1.7,0.8c-0.5,0.2-0.9,0.4-1.3,0.6c-0.9,0.4-1.7,0.7-2.4,1.1
		c-1.3,0.5-2.5,1-3.7,1.3c-4.9,1.5-9.6,1.3-19.9-1.2c-0.2,0-0.4-0.1-0.6-0.1c-0.9-0.2-1.9-0.5-2.9-0.7c-0.6-0.1-1.1-0.3-1.7-0.4
		c-1.2-0.3-2.5-0.7-3.9-1.1c-1.4-0.4-2.8-0.9-4.4-1.4c0.1-3,0.1-8.4-1.3-10.4c-2-2.9-2.3-0.5-2.6-3c-0.4-2.5-1.2-1.2-2.5-3.2
		c-1.3-2-4.8-0.6-5.6-1c-0.8-0.4-1.1-4.1-2-5.1c-0.9-1-3.2-0.5-3-1.6c0.3-1.1-0.3-3.4-3.5-3.1c-3.2,0.3-3.5-2-3.8-3.7
		c-0.3-1.7-8.5-0.2-7.8-1.9c0.7-1.7-4-3.4-4.8-2.4c-0.8,1-3.7-1.9-4.4-4.1c-0.7-2.2-5.5,3.4-5.4,1.6c0.1-1.8-1.2-5.6-1.2-5.6
		s-7.1,0.3-6.3-1c0.8-1.3-7.1-1.1-7.9-1.4c-0.8-0.4-1.3-4.8-1.5-6c-0.3-1.3-8.7,1.6-8.7,1.6s-8.5-0.4-9-0.5c-0.5-0.1,0.7-3.7,0-4.7
		c-0.7-1-9.1,1-9.6,0.1c-0.5-0.8-5.6-0.7-6.2-1.7c-0.6-1,2.2-5.9,0.7-6.1c-1.4-0.2-10.1,2.5-10.1,0.7c0-1.8-9.5,1.6-9.9,1.1
		c-0.4-0.5-5.8-3.1-6.5-1.8c-0.7,1.3-7.2-1.6-9-4.1c-1.8-2.5-6.5,5-8.3,2.2c-1.8-2.9-9.5,5.9-10.8,6.3c-1.3,0.4-2.3-2.9-6.7-2.2
		c-4.3,0.7-6.8,6.7-7.9,5c-1.1-1.6-7.9,6.1-9,7c-1.1,0.9-1.6-3.1-4.3-1.4c-2.2,1.3-5.3,7.2-6.4,9.4c-3.6,0.5-6.7,1.1-9.3,2
		c-16.2,5.4-33.7,16.5-47.8,26.7c-2.3,1.7-4.6,3.4-6.7,5c-2.1,1.6-4.1,3.2-6,4.7c-13.5,10.9-31,22.2-35,27.2
		c-0.1,0.2-0.3,0.3-0.4,0.5c-0.2,0.3-0.3,0.6-0.4,0.8c-0.1,0.3-0.1,0.6-0.1,0.9c0,0.1,0,0.1,0,0.2c0,0.3,0,0.6,0.1,0.8c0,0,0,0,0,0
		l0,0c0.4,2,2.2,3.3,3,3.8h0c0,0,0,0,0,0c0.1,0.1,0.2,0.1,0.3,0.2c0,0,0,0,0,0c0.1,0,0.1,0.1,0.1,0.1l0,0c0,0,0,0,0,0
		c-0.1,0.3-1.4,6.5,0.7,8.1c2.2,1.7,27.9,21,45.2,26.7c15.9,5.3,40.3,14.8,75.3,16.6l0,0c2.1,8,8.6,29.1,18.5,34.3
		c0,0,3.7-0.7,5.3-4.8c1.3,0.9,2.6,1.7,3.9,2.3c2.5,1.2,5.5-0.2,6.1-2.9c0.8-3.7,1.8-8.8,2.5-12.8c0.5-3.1-1.2-6.1-4.1-7.2
		c-4.9-1.8-12.3-4.9-17.3-8.5c29.3,0.4,53.7,1.3,72.3-2.8c16,12.9,42.5,1.7,56.5-5c14.8-7,21.9-18,16.7-20.3c-3-1.4-7-4-9.8-6
		c-9.6,4.9-21,11.5-31.5,17.2c20-11,43.5-24.9,51.3-24.9c10.4,0,29.9,1.4,37.4,5c0.1,0.1,0.3,0.2,0.5,0.2c3.2,1.5,10.9,5.5,19.8,9.9
		c0,0,0,0,0,0c0.7,0.4,1.5,0.7,2.2,1.1c0.1,0,0.1,0.1,0.2,0.1c0.7,0.3,1.4,0.7,2.2,1c0.1,0,0.2,0.1,0.3,0.1c0.7,0.3,1.4,0.7,2.1,1
		c0.1,0.1,0.2,0.1,0.3,0.2c0.7,0.3,1.4,0.6,2,1c0.1,0.1,0.3,0.1,0.4,0.2c0.7,0.3,1.3,0.6,2,0.9c0.2,0.1,0.3,0.1,0.5,0.2
		c0.6,0.3,1.3,0.6,1.9,0.9c0.2,0.1,0.3,0.2,0.5,0.2c0.6,0.3,1.2,0.5,1.8,0.8c0.2,0.1,0.4,0.2,0.5,0.2c0.6,0.3,1.2,0.5,1.7,0.8
		c0.2,0.1,0.4,0.2,0.6,0.2c0.6,0.2,1.1,0.5,1.6,0.7c0.2,0.1,0.4,0.2,0.6,0.3c0.5,0.2,1,0.4,1.5,0.6c0.2,0.1,0.4,0.2,0.6,0.2
		c0.5,0.2,1,0.4,1.4,0.6c0.2,0.1,0.4,0.2,0.6,0.2c0.5,0.2,0.9,0.3,1.3,0.5c0.2,0.1,0.4,0.2,0.6,0.2c0.4,0.2,0.8,0.3,1.2,0.4
		c0.2,0.1,0.4,0.1,0.6,0.2c0.4,0.1,0.7,0.2,1.1,0.4c0.2,0.1,0.4,0.1,0.6,0.2c0.3,0.1,0.7,0.2,1,0.3c0.2,0.1,0.4,0.1,0.5,0.2
		c0.3,0.1,0.6,0.1,0.9,0.2c0.2,0,0.3,0.1,0.5,0.1c0.3,0.1,0.5,0.1,0.8,0.1c0.1,0,0.3,0.1,0.5,0.1c0.2,0,0.4,0,0.7,0.1
		c0.1,0,0.3,0,0.4,0c0.2,0,0.4,0,0.6,0c0.1,0,0.2,0,0.3,0c0.2,0,0.4-0.1,0.6-0.2c5.4-2.9,4.7-9-0.7-15.8
		c-5.4-6.8-15.5-25.2-15.5-25.2s8.3-14.8,15.5-29C395.3,165.6,400.1,155,400,151.5z M110.5,133.5c0.2,0,0.4,0,0.6-0.1
		C110.9,133.5,110.7,133.5,110.5,133.5z M135,133.3c0.3,0,0.5,0,0.8,0C135.5,133.3,135.2,133.3,135,133.3z M177.7,137.8
		c-0.6-0.1-1.3-0.2-1.9-0.3C176.4,137.6,177,137.7,177.7,137.8z M166.9,136.2c-0.5-0.1-1-0.1-1.5-0.2
		C165.9,136.1,166.4,136.2,166.9,136.2z M163.3,135.8c-0.5-0.1-0.9-0.1-1.4-0.2C162.3,135.6,162.8,135.7,163.3,135.8z M145.5,134
		c0.3,0,0.6,0,0.9,0.1C146.1,134,145.8,134,145.5,134z M149.1,134.3c0.1,0,0.2,0,0.2,0C149.3,134.3,149.2,134.3,149.1,134.3z
		 M158.5,135.2c0.4,0,0.7,0.1,1.1,0.1C159.3,135.3,158.9,135.2,158.5,135.2z M168.9,136.5c0.5,0.1,1.1,0.2,1.6,0.2
		C170,136.6,169.4,136.6,168.9,136.5z M172.3,137c0.6,0.1,1.1,0.2,1.7,0.3C173.5,137.2,172.9,137.1,172.3,137z M179.1,138.1
		c1.1,0.2,2.1,0.4,3.2,0.5C181.3,138.4,180.2,138.2,179.1,138.1z M183.4,138.8c0.7,0.1,1.4,0.3,2.1,0.4
		C184.8,139.1,184.1,138.9,183.4,138.8z M186.8,139.4c0.6,0.1,1.2,0.2,1.8,0.4C188,139.7,187.4,139.6,186.8,139.4z M189.9,140.1
		c0.6,0.1,1.1,0.2,1.7,0.4C191,140.3,190.4,140.2,189.9,140.1z M192.8,140.7c0.6,0.1,1.1,0.2,1.6,0.4c-0.2,0-0.4-0.1-0.6-0.1
		C193.4,140.8,193.1,140.7,192.8,140.7z M202.8,143.2c-0.7-0.2-1.5-0.4-2.2-0.6C201.4,142.8,202.1,143,202.8,143.2z M195.5,141.3
		c0.5,0.1,1.1,0.3,1.6,0.4C196.6,141.5,196.1,141.4,195.5,141.3z M198.2,141.9c0.6,0.1,1.1,0.3,1.6,0.4
		C199.3,142.2,198.7,142.1,198.2,141.9z M202.9,143.2c0.7,0.2,1.4,0.4,2.2,0.7C204.3,143.6,203.6,143.4,202.9,143.2z M205.9,144.1
		c0.5,0.2,1,0.3,1.6,0.5C207,144.5,206.4,144.3,205.9,144.1z M208.5,144.9c0.5,0.2,1,0.3,1.5,0.5c-0.3-0.1-0.6-0.2-0.9-0.3
		C208.9,145.1,208.7,145,208.5,144.9z M211.1,145.8c0.5,0.2,1.1,0.4,1.6,0.5c-0.1,0-0.3-0.1-0.4-0.1
		C211.9,146.1,211.5,145.9,211.1,145.8z M213.8,146.7c0.6,0.2,1.1,0.4,1.7,0.6c-0.4-0.1-0.8-0.3-1.2-0.4
		C214.1,146.8,213.9,146.8,213.8,146.7z M222.1,149.7c-0.9-0.3-1.8-0.6-2.7-1C220.3,149,221.2,149.4,222.1,149.7z M231.9,153.3
		c-0.8-0.3-1.5-0.6-2.2-0.8C230.4,152.7,231.2,153,231.9,153.3z M238.8,155.9c-0.9-0.3-1.8-0.7-2.7-1
		C237.1,155.2,237.9,155.6,238.8,155.9z M261.7,164.6c-6.2-2.4-12.6-4.8-18.9-7.2C249.1,159.8,255.5,162.2,261.7,164.6z M276,170
		c-3.6-1.3-7.3-2.7-11.2-4.2C268.7,167.3,272.5,168.7,276,170z M216.6,147.7c0.6,0.2,1.3,0.5,1.9,0.7
		C217.9,148.2,217.2,147.9,216.6,147.7z M222.4,149.8c1,0.4,2.1,0.7,3.1,1.1C224.5,150.5,223.4,150.2,222.4,149.8z M226.2,151.2
		c0.8,0.3,1.6,0.6,2.4,0.9C227.8,151.8,227,151.5,226.2,151.2z M232.9,153.7c0.8,0.3,1.5,0.6,2.3,0.9
		C234.5,154.3,233.7,154,232.9,153.7z M239.4,156.1c1,0.4,2.1,0.8,3.2,1.2C241.5,156.9,240.5,156.5,239.4,156.1z M261.8,164.6
		c1,0.4,1.9,0.7,2.9,1.1C263.7,165.4,262.7,165,261.8,164.6z M276.2,170.1c0.7,0.3,1.4,0.5,2.1,0.8
		C277.6,170.6,276.9,170.3,276.2,170.1z M281.9,172.1c0.6,0.2,1.2,0.4,1.7,0.6C283,172.6,282.4,172.4,281.9,172.1z M284.5,173.1
		c0.5,0.2,1.1,0.4,1.6,0.6C285.6,173.5,285.1,173.3,284.5,173.1z M280.9,171.8c-0.6-0.2-1.2-0.4-1.9-0.7
		C279.7,171.4,280.3,171.6,280.9,171.8z M142.9,133.8c-0.3,0-0.6,0-1-0.1C142.2,133.7,142.6,133.7,142.9,133.8z M138.4,133.5
		c0.3,0,0.6,0,0.9,0.1C139,133.5,138.7,133.5,138.4,133.5z M132.2,133.2c-0.1,0-0.3,0-0.4,0C132,133.2,132.1,133.2,132.2,133.2z
		 M119.6,133.1c-0.1,0-0.1,0-0.2,0C119.5,133.1,119.5,133.1,119.6,133.1z M291,175.3c-0.5-0.2-1-0.3-1.5-0.5
		C290,175,290.5,175.2,291,175.3z M288.6,174.5c-0.5-0.2-1-0.4-1.6-0.5C287.6,174.2,288.1,174.4,288.6,174.5z M116.8,133.1
		c-0.2,0-0.4,0-0.5,0C116.5,133.2,116.7,133.1,116.8,133.1z M113.9,133.3c-0.2,0-0.4,0-0.6,0C113.5,133.3,113.7,133.3,113.9,133.3z
		 M108.3,133.7c-0.2,0-0.3,0-0.4,0C108,133.7,108.1,133.7,108.3,133.7z M128.7,258.7C128.7,258.7,128.7,258.7,128.7,258.7
		c1.7,0.1,3.3,0.1,5.1,0.1C132.1,258.8,130.4,258.8,128.7,258.7z M216.1,255c-0.5,0.1-1,0.3-1.5,0.4
		C215,255.3,215.5,255.2,216.1,255z M221.8,253.1c1.2-0.5,2.4-1,3.6-1.5c0,0,0,0,0,0c0,0,0,0,0,0
		C224.3,252.2,223.1,252.7,221.8,253.1z M218.2,254.4c0.7-0.2,1.4-0.5,2.1-0.7C219.6,253.9,218.9,254.2,218.2,254.4z M227.7,250.5
		c0.3-0.1,0.5-0.3,0.8-0.4C228.3,250.3,228,250.4,227.7,250.5z M230.3,249.3c0.3-0.1,0.6-0.3,0.9-0.4
		C230.8,249,230.5,249.1,230.3,249.3z M241.9,243.1c0.5-0.3,1.1-0.6,1.6-0.9C242.9,242.5,242.4,242.8,241.9,243.1z M233,247.8
		c0.2-0.1,0.5-0.3,0.7-0.4C233.5,247.6,233.3,247.7,233,247.8z M236.4,246.1c0.4-0.2,0.7-0.4,1.1-0.6
		C237.1,245.7,236.7,245.9,236.4,246.1z M239.1,244.6c0.5-0.2,0.9-0.5,1.4-0.8C240,244.1,239.6,244.4,239.1,244.6z"/>
</g>
<g id="ceu">
</g>
<g id="mar">
</g>
<g id="terra">
</g>
<g id="Layer_5">
</g>
<g id="Layer_6">
</g>
</svg>
