<?xml version="1.0" encoding="utf-8"?>
<!-- Generator: Adobe Illustrator 22.0.1, SVG Export Plug-In . SVG Version: 6.00 Build 0)  -->
<svg version="1.1" id="Layer_1" xmlns="http://www.w3.org/2000/svg" xmlns:xlink="http://www.w3.org/1999/xlink" x="0px" y="0px"
	 viewBox="0 0 400 400" style="enable-background:new 0 0 400 400;" xml:space="preserve">
<style type="text/css">
	.st0{fill:#FFFFFF;}
</style>
<g id="ceu">
</g>
<g id="mar">
</g>
<g id="terra">
</g>
<g id="Layer_5">
</g>
<g id="Layer_6">
</g>
<path class="st0" d="M399.9,149.2c-1.3-4.6-5.3-0.6-10.5-1c-5.2-0.4-7.8-4-10.9-2.7c-3.1,1.3-2.9-5.2-17.7-6.7
	c-14.9-1.5-19.7-1.1-19.7-1.1s-2.5-6.5-11.8-10.1c-9.3-3.6-15.5-5.3-20.4-10.9s-6.7-9.2-8.4-8c-1.7,1.1-4.4,5.9-4.4,13
	c0,7.1,3.6,21.2,18.7,29.2c0,0-20.8,18.3-31.3,23.5c-7.9,3.9-35.7,13.8-40.8,1.9c-0.7-1.6-1-3.5-2.4-4.5c-1.1-0.7-2.6-0.6-3.9-0.4
	c-6.3,1.2-11.6,5.4-17.8,6.9c-8.5,2-19.3-0.2-28.1-0.4c-10.6-0.2-21.3-0.4-31.9-0.7c-29,0-57.9-2.2-86.8-2.6
	c-18.5-0.3-37.4,0.8-55.2,6.1c-4.1,1.2-10,3-13.3,5.7c-2.2,1.8-3.6,4.9-2.6,7.6c0.9,2.3,3.2,3.6,5.4,4.8c10.5,6,18,14.7,27,22.4
	c9.9,8.5,20.3,16.7,31.6,23.1c5.8,3.3,12.5,6.7,20,10c0.1,3.3,0.3,6.6,0.8,9.7c4.5,28.9,14.5,29,14.9,18.9
	c0.2-4.4-0.8-10.9,2.9-21.4c3.7,1.3,7.6,2.5,11.6,3.6c6,11.1,14.1,23.3,23.9,31.6c22.3,18.9,28.1,11.3,21.8,3.4
	c-3.8-4.7-9.2-13.9-14.5-28.8c9.5,1.2,19.4,1.7,29.8,1.4c47.3-1.3,84.3-14.7,103.8-32.6s43.9-52.3,52.1-67.9s9.2-13.9,14.9-12.2
	c5.7,1.7,14.7,2.7,23.1,2.7S402,155.7,399.9,149.2z"/>
<g>
	<path class="st0" d="M384.7,180.3c-6.7,1.6-12.5,2.3-15.2,2.3c-1,0-2.2,0-3.7,0c0.6,5.7,0.9,11.6,0.9,17.5
		c0,92-74.8,166.8-166.8,166.8c-73.3,0-135.7-47.5-158-113.3c-8.7-6.1-17.3-13.1-24.7-19.5c16,86.3,91.8,151.8,182.7,151.8
		c102.4,0,185.8-83.3,185.8-185.8C385.8,193.4,385.4,186.8,384.7,180.3z M38.4,158.7C56.8,86.6,122.3,33.2,200,33.2
		c59.4,0,111.6,31.2,141.2,78c3.8,2,7.1,4.4,9.7,6.9c3.1,0.2,7,0.5,11.9,1c1.7,0.2,3.3,0.4,4.8,0.7C337.6,57.4,273.7,14.2,200,14.2
		c-88.8,0-163.3,62.7-181.5,146.1c4.9-1,9.8-1.4,14.1-1.4C34,158.9,36,158.8,38.4,158.7z"/>
</g>
</svg>
