<?xml version="1.0" encoding="utf-8"?>
<!-- Generator: Adobe Illustrator 22.0.1, SVG Export Plug-In . SVG Version: 6.00 Build 0)  -->
<svg version="1.1" id="Layer_1" xmlns="http://www.w3.org/2000/svg" xmlns:xlink="http://www.w3.org/1999/xlink" x="0px" y="0px"
	 viewBox="0 0 141.7 141.7" style="enable-background:new 0 0 141.7 141.7;" xml:space="preserve">
<style type="text/css">
	.st0{fill:#FEFEFE;}
	.st1{fill:#006666;}
	.st2{fill:#FFCC67;}
	.st3{fill:#9A3333;}
	.st4{fill:#2E1010;}
	.st5{fill:#329966;}
	.st6{fill:#FFFFFF;}
	.st7{fill:#0E0E0E;}
</style>
<circle class="st0" cx="70.8" cy="70.8" r="70.9"/>
<g>
	<path class="st1" d="M6.7,87.1c0,2.2,1.8,4.1,4.1,4.1h9.6c2.2,0,4.1-1.8,4.1-4.1c0-2.2-1.8-4.1-4.1-4.1h-9.6
		C8.5,83.1,6.7,84.9,6.7,87.1z"/>
	<g>
		<g>
			<path class="st1" d="M62.2,85.3c-3.4,0-6.3,2.8-6.3,6.3v14.9c0,3.4,2.8,6.3,6.3,6.3c3.5,0,6.3-2.8,6.3-6.3V91.6
				C68.5,88.1,65.7,85.3,62.2,85.3z"/>
			<path class="st1" d="M87.5,85.3c-3.4,0-6.3,2.8-6.3,6.3v14.9c0,3.4,2.8,6.3,6.3,6.3s6.3-2.8,6.3-6.3V91.6
				C93.8,88.1,91,85.3,87.5,85.3z"/>
		</g>
	</g>
	<g>
		<path class="st2" d="M25,91.2H13.9h-0.4l0,0c0,4.3,3.5,7.8,7.8,7.8h75.5l0,0c4.3,0,7.8-3.5,7.8-7.8l0,0h-0.3H25z"/>
		<path class="st3" d="M59.1,15.4c-25.2,0-45.6,20.4-45.6,45.6c0,0.6,0,1.2,0.1,1.8h-0.1v28.4h0.3H25h79.5h0.3V62.8V61
			C104.7,35.8,84.3,15.4,59.1,15.4z"/>
	</g>
	<circle class="st4" cx="83.2" cy="79" r="16.9"/>
	<path class="st5" d="M125.4,66.9H82.7c-6.7,0-12.2,5.4-12.2,12.2c0,6.7,5.4,12.2,12.2,12.2h42.7c6.7,0,12.2-5.4,12.2-12.2
		C137.5,72.3,132.1,66.9,125.4,66.9z"/>
	<path class="st6" d="M117.9,70.1c-1.4,0-2.7,0.6-3.7,1.5h-1.5c-0.9-0.9-2.2-1.5-3.7-1.5c-3,0-5.4,2.4-5.4,5.4s2.4,5.4,5.4,5.4
		c1.8,0,3.4-0.9,4.4-2.3c0.9,1.4,2.6,2.3,4.4,2.3c3,0,5.4-2.4,5.4-5.4C123.3,72.5,120.9,70.1,117.9,70.1z"/>
	<g>
		<path class="st5" d="M30.7,91.2c-3.4,0-6.3,2.8-6.3,6.3v14.9c0,3.4,2.8,6.3,6.3,6.3s6.3-2.8,6.3-6.3V97.5
			C36.9,94,34.1,91.2,30.7,91.2z"/>
		<path class="st5" d="M55.9,91.2c-3.4,0-6.3,2.8-6.3,6.3v14.9c0,3.4,2.8,6.3,6.3,6.3c3.4,0,6.3-2.8,6.3-6.3V97.5
			C62.2,94,59.4,91.2,55.9,91.2z"/>
	</g>
	<path class="st6" d="M101,82.1c-3.5,0-6.4,2.9-6.4,6.4h12.7C107.3,84.9,104.5,82.1,101,82.1z"/>
	<path class="st1" d="M121.9,70.1H105c-0.5,0-0.9,0.4-0.9,0.9c0,0.6,0.4,0.9,0.9,0.9h16.9c0.5,0,0.9-0.4,0.9-0.9
		S122.5,70.1,121.9,70.1z"/>
	<g>
		<path class="st7" d="M115.6,74.1c-0.8,0-1.4,0.6-1.4,1.4c0,0.8,0.6,1.4,1.4,1.4c0.8,0,1.4-0.6,1.4-1.4
			C117,74.7,116.4,74.1,115.6,74.1z"/>
		<path class="st7" d="M111.6,74.1c-0.8,0-1.4,0.6-1.4,1.4c0,0.8,0.6,1.4,1.4,1.4c0.8,0,1.4-0.6,1.4-1.4
			C113,74.7,112.4,74.1,111.6,74.1z"/>
	</g>
</g>
</svg>
