<?xml version="1.0" encoding="utf-8"?>
<!-- Generator: Adobe Illustrator 22.0.1, SVG Export Plug-In . SVG Version: 6.00 Build 0)  -->
<svg version="1.1" id="Layer_1" xmlns="http://www.w3.org/2000/svg" xmlns:xlink="http://www.w3.org/1999/xlink" x="0px" y="0px"
	 viewBox="0 0 141.7 141.7" style="enable-background:new 0 0 141.7 141.7;" xml:space="preserve">
<style type="text/css">
	.st0{fill:#FEFEFE;}
	.st1{clip-path:url(#SVGID_2_);}
	.st2{fill:#2D3C63;}
	.st3{fill:#7EBDE8;}
	.st4{fill:#B5CDDA;}
	.st5{fill:#FFFFFF;}
	.st6{fill:#0D0D0D;}
	.st7{fill:#657699;}
</style>
<circle class="st0" cx="70.8" cy="70.8" r="70.9"/>
<g>
	<defs>
		<circle id="SVGID_1_" cx="70.8" cy="70.8" r="70.9"/>
	</defs>
	<clipPath id="SVGID_2_">
		<use xlink:href="#SVGID_1_"  style="overflow:visible;"/>
	</clipPath>
	<g class="st1">
		<g>
			<path class="st2" d="M92.5,106.6c2.2,3.1,6.3,3.7,9.4,1.5s3.7-6.3,1.5-9.4l-2-2.7H85L92.5,106.6z"/>
			<path class="st3" d="M115.5,51.8h-57L34.8,31.4c-1.9-1.9-4.8-2.2-7-0.7c-1.4,1.2-2,2.7-2,4.3l0,0v16.8H-60
				c-7,0-13.1,3.2-17.2,8.2l-12.3-19.9c-2.2-3.6-6.8-4.8-10.4-2.6s-4.8,6.8-2.6,10.4l14,22.6v1.4l-11.4,23.7
				c-1.9,3.7-0.2,8.3,3.6,10.2s8.3,0.2,10.2-3.6l7.7-16H134c2.4-3.6,3.7-7.7,3.7-12.3C137.6,61.7,127.7,51.8,115.5,51.8z M74.8,80.4
				c1-4.3,5.4-6.8,9.5-5.6c4.3,1,6.8,5.4,5.6,9.5L74.8,80.4z M114.5,60.5h-1.2c0.9,1,1.4,2.6,1.4,3.9c0,3.6-2.9,6.5-6.5,6.5
				c-2.2,0-4.3-1.2-5.4-2.9c-1.2,1.7-3.1,2.9-5.4,2.9c-3.6,0-6.5-2.9-6.5-6.5c0-1.5,0.5-2.9,1.4-3.9H91c-0.7,0-1.2-0.5-1.2-1.2
				c0-0.7,0.5-1.2,1.2-1.2h23.3c0.7,0,1.2,0.5,1.2,1.2C115.7,59.8,115.2,60.5,114.5,60.5z"/>
			<path class="st4" d="M-78.5,86.2c3.9,6,10.7,9.9,18.4,9.9H51.5l-3.7,5.3c-2.2,2.9-1.5,7.1,1.4,9.4c2.9,2.2,7.1,1.5,9.4-1.4
				L68,96.3h17h16.3h14.1c7.7,0,14.5-3.9,18.4-9.9H-78.5V86.2z"/>
			<path class="st5" d="M84.4,74.8c-4.3-1-8.5,1.4-9.5,5.6L90,84.3C91,80.3,88.6,75.8,84.4,74.8z"/>
			<path class="st5" d="M91,64.4c0,3.6,2.9,6.5,6.5,6.5c2.2,0,4.3-1.2,5.4-2.9c1.2,1.7,3.1,2.9,5.4,2.9c3.6,0,6.5-2.9,6.5-6.5
				c0-1.5-0.5-2.9-1.4-3.9H92.5C91.5,61.5,91,62.9,91,64.4z M106.5,62.2c1.2,0,2.2,1,2.2,2.2c0,1.2-1,2.2-2.2,2.2
				c-1.2,0-2.2-1-2.2-2.2C104.3,63.2,105.3,62.2,106.5,62.2z M98.6,62.2c1.2,0,2.2,1,2.2,2.2c0,1.2-1,2.2-2.2,2.2
				c-1.2,0-2.2-1-2.2-2.2C96.6,63.2,97.5,62.2,98.6,62.2z"/>
			<path class="st6" d="M106.5,66.6c1.2,0,2.2-1,2.2-2.2c0-1.2-1-2.2-2.2-2.2c-1.2,0-2.2,1-2.2,2.2S105.3,66.6,106.5,66.6z"/>
			<path class="st6" d="M98.6,66.6c1.2,0,2.2-1,2.2-2.2c0-1.2-1-2.2-2.2-2.2c-1.2,0-2.2,1-2.2,2.2C96.6,65.6,97.5,66.6,98.6,66.6z"
				/>
			<path class="st2" d="M114.5,58H91.2c-0.7,0-1.2,0.5-1.2,1.2c0,0.7,0.5,1.2,1.2,1.2h1.2h20.9h1.2c0.7,0,1.2-0.5,1.2-1.2
				S115.2,58,114.5,58z"/>
		</g>
		<path class="st7" d="M54.1,66.1v23.3c0,0.7,0.5,1.2,1.2,1.2s1.2-0.5,1.2-1.2v-1.2V67.3v-1.2c0-0.7-0.5-1.2-1.2-1.2
			S54.1,65.5,54.1,66.1z"/>
		<path class="st7" d="M46.1,66.1v23.3c0,0.7,0.5,1.2,1.2,1.2c0.7,0,1.2-0.5,1.2-1.2v-1.2V67.3v-1.2c0-0.7-0.5-1.2-1.2-1.2
			C46.6,64.9,46.1,65.5,46.1,66.1z"/>
		<path class="st7" d="M38.7,66.1v23.3c0,0.7,0.5,1.2,1.2,1.2c0.7,0,1.2-0.5,1.2-1.2v-1.2V67.3v-1.2c0-0.7-0.5-1.2-1.2-1.2
			C39.4,64.9,38.7,65.5,38.7,66.1z"/>
	</g>
</g>
</svg>
